<svg width="49" height="31" viewBox="0 0 49 31" fill="none" xmlns="http://www.w3.org/2000/svg">
<path d="M3.60389 0C3.13172 0 2.68385 0.0985554 2.27115 0.260733L22.6547 17.9399C23.5357 18.7038 24.4742 18.7046 25.3574 17.9399L45.7784 0.260733C45.3662 0.0981423 44.9179 0 44.4457 0H3.60356H3.60389ZM0.0377055 3.07392C0.0146631 3.23651 0 3.40743 0 3.57668V27.4229C0 29.4043 1.60709 31 3.60393 31H44.4461C46.4424 31 48.05 29.4049 48.05 27.4229V3.57668C48.05 3.40744 48.0353 3.23652 48.0123 3.07351L27.7221 20.642C25.6051 22.4746 22.4064 22.4775 20.2893 20.642L0.0376924 3.07351L0.0377055 3.07392Z" fill="white"/>
</svg>
