<svg width="44" height="44" viewBox="0 0 44 44" fill="none" xmlns="http://www.w3.org/2000/svg">
<path d="M22 0C9.8505 0 0 9.8505 0 22C0 34.1495 9.8505 44 22 44C34.1495 44 44 34.1495 44 22C44 9.8505 34.1495 0 22 0ZM13.7427 9.9055C15.2863 9.9055 16.3148 10.934 16.3148 12.3053C16.3148 13.6767 15.2863 14.7052 13.5722 14.7052C12.0285 14.707 11 13.6767 11 12.3053C11 10.934 12.0285 9.9055 13.7427 9.9055ZM16.5 31.1667H11V16.5H16.5V31.1667ZM34.8333 31.1667H29.656V23.1513C29.656 20.9348 28.2755 20.4233 27.7585 20.4233C27.2415 20.4233 25.5145 20.7643 25.5145 23.1513C25.5145 23.4923 25.5145 31.1667 25.5145 31.1667H20.1667V16.5H25.5163V18.546C26.2057 17.3525 27.5862 16.5 30.1748 16.5C32.7635 16.5 34.8333 18.546 34.8333 23.1513V31.1667Z" fill="white"/>
</svg>
