<svg width="904" height="297" viewBox="0 0 904 297" fill="none" xmlns="http://www.w3.org/2000/svg">
<g clip-path="url(#clip0_9_2)">
<g clip-path="url(#clip1_9_2)">
<g clip-path="url(#clip2_9_2)">
<path d="M76.9285 208.251C98.6616 208.816 113.778 212.729 128.377 221.564C129.271 222.094 130.294 222.382 131.34 222.399C132.387 222.416 133.419 222.161 134.33 221.66C135.242 221.158 136.001 220.43 136.528 219.548C137.055 218.666 137.332 217.663 137.33 216.642V136.646C137.335 135.748 137.121 134.861 136.708 134.059C136.295 133.256 135.693 132.56 134.952 132.027C118.244 120.166 102.053 115.083 77.218 114.337C76.424 114.318 75.6342 114.455 74.8957 114.74C74.1573 115.026 73.4853 115.453 72.9198 115.997C72.3544 116.541 71.9071 117.191 71.6046 117.907C71.3021 118.623 71.1506 119.392 71.1592 120.166V202.483C71.1587 203.989 71.7619 205.435 72.8399 206.513C73.9178 207.591 75.3852 208.215 76.9285 208.251ZM147.67 136.383V215.19C147.675 215.953 147.835 216.707 148.139 217.41C148.443 218.113 148.886 218.75 149.443 219.286C150 219.822 150.66 220.245 151.384 220.532C152.109 220.819 152.884 220.964 153.667 220.959C154.756 220.953 155.823 220.653 156.748 220.092C171.223 211.418 186.401 207.586 208.072 207.021C209.622 206.984 211.096 206.354 212.175 205.268C213.254 204.181 213.852 202.725 213.841 201.212V120.106C213.83 118.569 213.195 117.098 212.075 116.017C210.955 114.936 209.441 114.332 207.865 114.337H207.638C182.823 115.023 166.694 120.025 150.027 131.724C149.286 132.264 148.685 132.968 148.276 133.778C147.866 134.588 147.658 135.481 147.67 136.383ZM160.077 140.418C172.381 132.208 184.271 128.416 201.434 127.327V196.21C185.181 197.117 172.153 200.123 160.077 205.811V140.418Z" fill="white"/>
<path d="M141.983 116.011C159.114 116.011 173.001 102.465 173.001 85.7551C173.001 69.0452 159.114 55.4991 141.983 55.4991C124.852 55.4991 110.965 69.0452 110.965 85.7551C110.965 102.465 124.852 116.011 141.983 116.011Z" fill="#00B2FF"/>
<path d="M192.401 166.456C193.482 167.255 193.482 168.872 192.401 169.672L175.252 182.359C173.932 183.336 172.063 182.394 172.063 180.751V155.376C172.063 153.734 173.932 152.792 175.252 153.768L192.401 166.456Z" fill="white"/>
</g>
</g>
</g>
<path d="M294.25 94.75C294.25 91.75 295.833 89.1667 299 87C302.167 84.8333 305 83.75 307.5 83.75C312 83.75 314.25 86.3333 314.25 91.5C314.25 96.6667 312.917 101.167 310.25 105C307.583 108.667 303.833 110.5 299 110.5C295.833 110.5 294.25 105.25 294.25 94.75ZM301.5 218.25C295 218.25 290.083 216.917 286.75 214.25C285.583 213.083 285 208.917 285 201.75C285 194.583 285.5 182.667 286.5 166C287.667 149.167 288.667 140.083 289.5 138.75C290.333 137.417 292.917 134.917 297.25 131.25C301.583 127.583 304.917 125.75 307.25 125.75C309.75 125.75 311 128.917 311 135.25C311 136.917 310.5 140.167 309.5 145C308.667 149.833 307.667 153.333 306.5 155.5C304.333 161 303.25 175.417 303.25 198.75C303.25 203.25 303.75 205.5 304.75 205.5C307.583 205.333 311.5 201.833 316.5 195C321.5 188 326.417 179.083 331.25 168.25C336.25 157.417 339.25 152 340.25 152C341.417 152 342 152.667 342 154C342 158.667 339.583 166.083 334.75 176.25C321.583 204.25 310.5 218.25 301.5 218.25ZM348.201 203.5L348.451 211.25C348.451 215.917 347.118 218.25 344.451 218.25C340.451 218.25 336.618 217.75 332.951 216.75C329.285 215.583 327.451 214.083 327.451 212.25C327.451 210.25 327.868 203.667 328.701 192.5C329.701 181.167 330.201 172.667 330.201 167V152.25C330.201 144.25 331.035 139.417 332.701 137.75C334.368 136.083 337.285 133.667 341.451 130.5C345.785 127.333 348.868 125.75 350.701 125.75C352.701 125.75 353.951 126.083 354.451 126.75C354.951 127.417 355.201 128.667 355.201 130.5C355.201 139.333 353.535 147.667 350.201 155.5C349.368 165 348.951 171.583 348.951 175.25C349.618 174.25 353.118 168.583 359.451 158.25C365.785 147.917 371.118 140.333 375.451 135.5C379.951 130.667 383.951 128.25 387.451 128.25C390.951 128.25 394.035 129.417 396.701 131.75C399.535 134.083 400.951 137 400.951 140.5C400.951 147.833 400.118 158.667 398.451 173C396.951 187.167 396.201 196.167 396.201 200C396.201 203.667 396.701 205.5 397.701 205.5C400.535 205.333 404.451 201.833 409.451 195C414.451 188 419.368 179.083 424.201 168.25C429.201 157.417 432.201 152 433.201 152C434.368 152 434.951 152.667 434.951 154C434.951 158.667 432.535 166.083 427.701 176.25C414.535 204.25 403.451 218.25 394.451 218.25C387.951 218.25 383.035 216.917 379.701 214.25C378.535 213.083 377.951 210.083 377.951 205.25C377.951 200.25 378.368 192.25 379.201 181.25C380.201 170.083 380.701 161.75 380.701 156.25C380.701 150.75 379.701 148 377.701 148C375.868 148 370.868 153.75 362.701 165.25C354.535 176.583 350.201 183.833 349.701 187C348.701 192.833 348.201 198.333 348.201 203.5ZM501.975 225.75L508.725 225C510.058 225 510.725 225.667 510.725 227C510.725 229.333 509.141 231.083 505.975 232.25C502.808 233.417 499.225 234 495.225 234C487.725 234 481.391 231 476.225 225C471.225 219 464.225 207.917 455.225 191.75C453.058 188.25 451.975 185.583 451.975 183.75C451.975 181.25 455.475 178.333 462.475 175C473.808 169.167 479.475 161.833 479.475 153C479.475 150.5 478.558 148.417 476.725 146.75C475.058 144.917 472.808 144 469.975 144C465.975 144 461.225 148.75 455.725 158.25C450.225 167.583 446.475 176.417 444.475 184.75C442.641 192.917 441.725 201.75 441.725 211.25C441.725 215.917 440.391 218.25 437.725 218.25C433.891 218.25 430.225 217.75 426.725 216.75C423.225 215.583 421.475 214.167 421.475 212.5C421.475 210.667 422.141 202.75 423.475 188.75C424.808 174.583 425.558 164.417 425.725 158.25C426.391 124.25 428.391 98.25 431.725 80.25C432.225 78.75 434.475 76.1667 438.475 72.5C442.641 68.8333 445.975 67 448.475 67C450.975 67 452.141 70.1667 451.975 76.5C451.975 82.6667 450.641 96 447.975 116.5C445.308 137 443.641 155.75 442.975 172.75C445.975 162.083 450.725 152 457.225 142.5C463.891 133 470.558 128.25 477.225 128.25C488.558 128.25 494.225 133.75 494.225 144.75C494.225 152.083 492.058 158.75 487.725 164.75C483.391 170.583 477.558 175.333 470.225 179C468.725 179.667 467.975 180.417 467.975 181.25C467.975 182.083 468.225 182.917 468.725 183.75C479.225 202.25 488.141 215.25 495.475 222.75C497.475 224.75 499.641 225.75 501.975 225.75ZM544.168 140.5L544.668 136.75C544.668 133.75 542.918 132.25 539.418 132.25C536.085 132.25 532.835 134.5 529.668 139C526.501 143.333 524.918 146.917 524.918 149.75C524.918 152.583 525.085 154.833 525.418 156.5C525.751 158.167 526.085 159.583 526.418 160.75C526.918 161.75 527.668 163 528.668 164.5C529.668 166 530.418 167.083 530.918 167.75L533.668 171.25C534.835 172.917 535.668 174 536.168 174.5C544.835 167.333 555.168 159.333 567.168 150.5C567.835 150 568.585 149.75 569.418 149.75C571.085 149.75 571.918 150.667 571.918 152.5C571.918 154.333 571.168 155.75 569.668 156.75C559.001 163.583 548.918 171 539.418 179C543.085 184.333 544.918 190.167 544.918 196.5C544.918 202.833 542.501 208.25 537.668 212.75C532.835 217.25 526.668 219.5 519.168 219.5C511.668 219.5 507.918 215.917 507.918 208.75C507.918 203.583 513.418 195.667 524.418 185C523.585 184 522.085 182.417 519.918 180.25C517.751 177.917 516.085 176.083 514.918 174.75C513.918 173.417 512.668 171.667 511.168 169.5C508.501 165.333 507.168 160.833 507.168 156C507.168 146.167 510.335 138.25 516.668 132.25C523.001 126.083 529.751 123 536.918 123C541.418 123 544.918 124.25 547.418 126.75C549.918 129.083 551.168 131.5 551.168 134C551.168 139.667 549.835 142.5 547.168 142.5C545.168 142.5 544.168 141.833 544.168 140.5ZM528.168 189.75C521.501 196.417 518.168 201.833 518.168 206C518.168 210 520.251 212 524.418 212C526.918 212 529.001 211 530.668 209C534.335 204 533.501 197.583 528.168 189.75ZM615.17 176.25C602.003 204.25 590.837 218.25 581.67 218.25C572.67 218.25 567.337 217.167 565.67 215C564.17 212.833 563.42 205.667 563.42 193.5C563.42 181.333 564.587 163.75 566.92 140.75C558.587 139.083 554.17 135.667 553.67 130.5C553.67 127.833 555.42 126.5 558.92 126.5C562.42 126.5 565.503 127.167 568.17 128.5C569.67 116.5 571.42 104.333 573.42 92C573.92 88.8333 575.503 85.8333 578.17 83C580.837 80.1667 583.42 78.75 585.92 78.75C588.087 78.75 589.17 82.1667 589.17 89C589.17 92.1667 588.003 106.75 585.67 132.75C590.17 131.917 595.087 130.25 600.42 127.75C605.92 125.25 609.17 124 610.17 124C613.17 124 614.67 124.917 614.67 126.75C614.837 128.417 611.753 130.75 605.42 133.75C599.087 136.583 592.253 138.75 584.92 140.25C582.92 164.583 581.92 183 581.92 195.5C581.92 202.167 582.92 205.5 584.92 205.5C587.92 205.333 591.92 201.833 596.92 195C601.92 188.167 606.837 179.333 611.67 168.5C616.67 157.5 619.67 152 620.67 152C621.837 152 622.42 152.667 622.42 154C622.42 158.667 620.003 166.083 615.17 176.25ZM687.713 162.75C694.38 160.583 698.963 158.75 701.463 157.25C704.13 155.583 706.13 154.333 707.463 153.5L710.463 151.75C711.296 151.25 711.963 151 712.463 151C713.796 151 714.463 151.75 714.463 153.25C714.463 154.75 711.88 157.417 706.713 161.25C701.546 164.917 695.13 168.25 687.463 171.25C686.296 185.25 681.88 196.583 674.213 205.25C666.546 213.917 655.63 218.25 641.463 218.25C631.13 218.25 623.213 214.167 617.713 206C612.213 197.667 609.463 188 609.463 177C609.463 165.833 612.713 155.333 619.213 145.5C625.88 135.667 634.38 130.75 644.713 130.75C649.38 127.417 654.88 125.75 661.213 125.75C667.713 125.75 673.713 129.167 679.213 136C684.713 142.833 687.546 151.75 687.713 162.75ZM671.463 175.5L662.463 176C654.796 176 648.296 173.75 642.963 169.25C637.63 164.583 634.963 159.5 634.963 154C634.963 148.5 635.88 143.75 637.713 139.75C630.546 145.417 626.963 156.583 626.963 173.25C626.963 181.25 628.63 188.917 631.963 196.25C635.296 203.417 640.546 207 647.713 207C654.88 207 660.463 204 664.463 198C668.463 191.833 670.796 184.333 671.463 175.5ZM655.963 134C653.296 134 651.213 135.25 649.713 137.75C648.213 140.083 647.463 142.667 647.463 145.5C647.463 151.667 649.546 156.667 653.713 160.5C658.046 164.333 663.046 166.25 668.713 166.25H671.713C671.38 158.083 669.963 150.667 667.463 144C665.13 137.333 661.296 134 655.963 134ZM722.277 151.75L736.027 150.25C737.361 150.25 738.527 151 739.527 152.5C740.527 154 741.027 155.583 741.027 157.25C741.027 158.917 740.444 164.583 739.277 174.25C738.277 183.917 737.777 191.583 737.777 197.25C737.777 202.75 738.277 205.5 739.277 205.5C742.111 205.333 746.027 201.833 751.027 195C756.027 188 760.944 179.083 765.777 168.25C770.777 157.417 773.777 152 774.777 152C775.944 152 776.527 152.667 776.527 154C776.527 158.667 774.111 166.083 769.277 176.25C756.111 204.25 745.027 218.25 736.027 218.25C729.527 218.25 724.611 216.917 721.277 214.25C720.111 213.083 719.527 205.833 719.527 192.5C719.527 179.167 720.944 167.75 723.777 158.25C714.111 158.25 707.361 155.167 703.527 149C701.527 145.833 700.527 142.25 700.527 138.25C700.527 134.25 701.361 130.75 703.027 127.75C704.694 124.75 707.027 123.25 710.027 123.25C713.194 123.25 716.027 124.917 718.527 128.25C721.194 131.417 722.527 135 722.527 139C722.527 143 721.361 147 719.027 151C719.694 151.5 720.777 151.75 722.277 151.75ZM764.248 195.25L765.748 167.25C765.748 149.417 766.581 139.667 768.248 138C769.915 136.333 772.831 133.917 776.998 130.75C781.331 127.417 784.415 125.75 786.248 125.75C788.248 125.75 789.498 126.083 789.998 126.75C790.498 127.417 790.748 128.75 790.748 130.75C790.748 137.917 789.165 145.167 785.998 152.5C783.498 167.833 782.248 180.417 782.248 190.25C782.248 200.083 783.415 205 785.748 205C789.748 205 794.331 201.5 799.498 194.5C804.831 187.333 810.248 176.833 815.748 163C815.915 159.333 816.081 155.5 816.248 151.5C816.415 147.333 816.581 144.333 816.748 142.5C816.915 140.5 816.998 139.083 816.998 138.25C817.165 137.417 819.498 135.167 823.998 131.5C828.498 127.667 831.915 125.75 834.248 125.75C836.748 125.75 837.998 128.917 837.998 135.25C837.998 136.917 837.498 140.167 836.498 145C835.665 149.833 834.665 153.333 833.498 155.5C832.165 167.333 831.248 177.667 830.748 186.5C847.081 165.833 855.748 154.917 856.748 153.75C857.915 152.583 858.915 152 859.748 152C861.415 152 862.248 152.833 862.248 154.5C862.248 155.5 861.915 156.583 861.248 157.75C855.915 165.583 845.415 179.333 829.748 199C828.748 218.833 828.081 232.333 827.748 239.5C826.915 260.667 823.915 275.5 818.748 284C813.748 292.667 804.748 297 791.748 297C786.081 297 780.748 295.25 775.748 291.75C770.915 288.417 768.498 282.5 768.498 274C768.498 265.667 771.665 257.083 777.998 248.25C784.498 239.417 796.248 225.833 813.248 207.5L814.748 180.25C809.081 192.75 803.498 202.25 797.998 208.75C792.498 215.083 786.415 218.25 779.748 218.25C773.081 218.25 768.831 216.583 766.998 213.25C765.165 209.917 764.248 203.917 764.248 195.25ZM812.498 219.25C793.498 239.75 783.998 256.167 783.998 268.5C783.998 274.167 784.998 278.833 786.998 282.5C788.998 286.167 791.748 288 795.248 288C800.581 288 804.331 285.083 806.498 279.25C808.665 273.417 810.248 261.583 811.248 243.75L812.498 219.25Z" fill="url(#paint0_linear_9_2)"/>
<defs>
<linearGradient id="paint0_linear_9_2" x1="409" y1="111" x2="739" y2="297" gradientUnits="userSpaceOnUse">
<stop stop-color="#00B2FF"/>
<stop offset="1" stop-color="white"/>
</linearGradient>
<clipPath id="clip0_9_2">
<rect width="285" height="278" fill="white"/>
</clipPath>
<clipPath id="clip1_9_2">
<rect width="142.682" height="166.8" fill="white" transform="translate(71.1588 55.6)"/>
</clipPath>
<clipPath id="clip2_9_2">
<rect width="142.682" height="166.8" fill="white" transform="translate(71.1588 55.6)"/>
</clipPath>
</defs>
</svg>
