<svg width="36" height="56" viewBox="0 0 36 56" fill="none" xmlns="http://www.w3.org/2000/svg">
<path fill-rule="evenodd" clip-rule="evenodd" d="M34.9977 20.5767C32.9998 27.5726 21.9997 42.2205 21.9997 42.2205C21.9997 42.2205 19.9998 44.8056 18 44.8056C16.0002 44.8056 14.0004 42.2205 14.0004 42.2205C14.0004 42.2205 3.00002 27.573 1.00377 20.5767C0.364124 18.9863 0 17.286 0 15.5094C0 6.94413 8.05875 0 18 0C27.9407 0 36 6.94367 36 15.5094C36 17.286 35.6366 18.9863 34.9977 20.5767ZM17.9998 9.47809C14.1341 9.47809 11 12.1785 11 15.5094C11 18.8402 14.1341 21.5406 17.9998 21.5406C21.8656 21.5406 24.9997 18.8402 24.9997 15.5094C24.9997 12.1785 21.8656 9.47809 17.9998 9.47809ZM17.9998 47.3945C26.2839 47.3945 32.9998 49.3202 32.9998 51.6972C32.9998 54.0736 26.2839 56 17.9998 56C9.71573 56 2.99984 54.0732 2.99984 51.6972C2.99984 49.3202 9.71573 47.3945 17.9998 47.3945Z" fill="white"/>
</svg>
