<svg width="1103" height="557" viewBox="0 0 1103 557" fill="none" xmlns="http://www.w3.org/2000/svg">
<circle cx="218.379" cy="21.0392" r="19.3891" stroke="#27285A" stroke-width="3.30027"/>
<circle cx="887.304" cy="21.0392" r="19.3891" stroke="#27285A" stroke-width="3.30027"/>
<g filter="url(#filter0_d_118_254)">
<path fill-rule="evenodd" clip-rule="evenodd" d="M233.799 84.982L218.256 60.23L202.713 84.982H15V463.688H414.333V84.982H233.799Z" fill="#27285A"/>
</g>
<g filter="url(#filter1_d_118_254)">
<path fill-rule="evenodd" clip-rule="evenodd" d="M906.85 84.982L891.307 60.23L875.764 84.982H688.051V526.393H1087.38V84.982H906.85Z" fill="url(#paint0_linear_118_254)"/>
</g>
<path d="M218 21L888 20.9999" stroke="#27285A" stroke-width="4.12534" stroke-dasharray="11.55 11.55"/>
<circle cx="218.379" cy="21.0393" r="12.7885" fill="#27285A"/>
<circle cx="887.305" cy="21.0393" r="12.7885" fill="#27285A"/>
<path opacity="0.25" d="M52.4654 115.944V109.097H64.3938V140.533H56.7286V115.944H52.4654ZM90.9194 115.514H77.4839V121.456C78.058 120.825 78.8619 120.308 79.8954 119.906C80.9289 119.504 82.0485 119.303 83.2543 119.303C85.4074 119.303 87.1873 119.791 88.5941 120.767C90.0295 121.743 91.0773 123.006 91.7376 124.557C92.3979 126.107 92.7281 127.786 92.7281 129.595C92.7281 132.954 91.7807 135.624 89.8859 137.605C87.9912 139.557 85.3213 140.533 81.8763 140.533C79.5796 140.533 77.5844 140.145 75.8905 139.37C74.1967 138.566 72.8905 137.461 71.9718 136.054C71.0532 134.648 70.5508 133.026 70.4646 131.188H77.6561C77.8284 132.078 78.2446 132.825 78.9049 133.428C79.5652 134.002 80.4696 134.289 81.6179 134.289C82.9672 134.289 83.972 133.858 84.6323 132.997C85.2926 132.136 85.6227 130.987 85.6227 129.552C85.6227 128.145 85.2782 127.069 84.5892 126.322C83.9002 125.576 82.8954 125.203 81.5748 125.203C80.5987 125.203 79.7949 125.447 79.1633 125.935C78.5317 126.394 78.1155 127.011 77.9145 127.786H70.8091V109.054H90.9194V115.514ZM124.177 135.193H112.895L111.086 140.533H103.378L114.316 110.303H122.842L133.78 140.533H125.986L124.177 135.193ZM122.282 129.509L118.536 118.442L114.832 129.509H122.282ZM143.827 119.906C144.544 118.786 145.535 117.882 146.798 117.193C148.061 116.504 149.54 116.159 151.234 116.159C153.214 116.159 155.009 116.662 156.616 117.667C158.224 118.671 159.487 120.107 160.406 121.973C161.353 123.839 161.827 126.006 161.827 128.475C161.827 130.944 161.353 133.126 160.406 135.021C159.487 136.887 158.224 138.337 156.616 139.37C155.009 140.375 153.214 140.877 151.234 140.877C149.568 140.877 148.09 140.533 146.798 139.844C145.535 139.155 144.544 138.265 143.827 137.174V151.988H136.463V116.504H143.827V119.906ZM154.334 128.475C154.334 126.638 153.817 125.203 152.784 124.169C151.779 123.107 150.53 122.576 149.037 122.576C147.573 122.576 146.324 123.107 145.291 124.169C144.286 125.231 143.784 126.681 143.784 128.518C143.784 130.356 144.286 131.806 145.291 132.868C146.324 133.93 147.573 134.461 149.037 134.461C150.501 134.461 151.75 133.93 152.784 132.868C153.817 131.777 154.334 130.313 154.334 128.475ZM172.408 120.509C173.269 119.188 174.346 118.155 175.638 117.408C176.93 116.633 178.365 116.246 179.944 116.246V124.04H177.92C176.083 124.04 174.705 124.442 173.786 125.246C172.867 126.021 172.408 127.399 172.408 129.38V140.533H165.044V116.504H172.408V120.509ZM186.521 114.006C185.229 114.006 184.167 113.633 183.334 112.887C182.531 112.112 182.129 111.164 182.129 110.045C182.129 108.896 182.531 107.949 183.334 107.202C184.167 106.427 185.229 106.04 186.521 106.04C187.784 106.04 188.818 106.427 189.622 107.202C190.454 107.949 190.87 108.896 190.87 110.045C190.87 111.164 190.454 112.112 189.622 112.887C188.818 113.633 187.784 114.006 186.521 114.006ZM190.181 116.504V140.533H182.818V116.504H190.181ZM202.236 108.667V140.533H194.872V108.667H202.236Z" fill="white"/>
<path opacity="0.25" d="M735.417 115.944V109.097H747.345V140.533H739.68V115.944H735.417ZM767.283 117.581C767.053 116.518 766.651 115.729 766.077 115.212C765.503 114.667 764.684 114.394 763.622 114.394C761.986 114.394 760.809 115.112 760.091 116.547C759.373 117.954 759 120.193 758.971 123.265C759.603 122.26 760.507 121.471 761.684 120.896C762.89 120.322 764.211 120.035 765.646 120.035C768.46 120.035 770.713 120.925 772.407 122.705C774.129 124.485 774.991 126.968 774.991 130.155C774.991 132.251 774.56 134.088 773.699 135.667C772.866 137.246 771.632 138.48 769.995 139.37C768.388 140.26 766.479 140.705 764.268 140.705C759.847 140.705 756.775 139.327 755.053 136.571C753.33 133.786 752.469 129.796 752.469 124.6C752.469 119.145 753.373 115.097 755.182 112.456C757.019 109.786 759.947 108.451 763.967 108.451C766.12 108.451 767.928 108.882 769.393 109.743C770.885 110.576 772.005 111.681 772.751 113.059C773.527 114.437 773.986 115.944 774.129 117.581H767.283ZM763.881 125.849C762.646 125.849 761.613 126.222 760.78 126.968C759.976 127.686 759.574 128.719 759.574 130.069C759.574 131.447 759.947 132.523 760.694 133.298C761.469 134.074 762.56 134.461 763.967 134.461C765.23 134.461 766.22 134.088 766.938 133.341C767.684 132.566 768.058 131.518 768.058 130.198C768.058 128.849 767.699 127.786 766.981 127.011C766.263 126.236 765.23 125.849 763.881 125.849ZM806.54 135.193H795.257L793.449 140.533H785.741L796.679 110.303H805.205L816.143 140.533H808.349L806.54 135.193ZM804.645 129.509L800.899 118.442L797.195 129.509H804.645ZM826.19 119.906C826.907 118.786 827.898 117.882 829.161 117.193C830.424 116.504 831.903 116.159 833.596 116.159C835.577 116.159 837.372 116.662 838.979 117.667C840.587 118.671 841.85 120.107 842.769 121.973C843.716 123.839 844.19 126.006 844.19 128.475C844.19 130.944 843.716 133.126 842.769 135.021C841.85 136.887 840.587 138.337 838.979 139.37C837.372 140.375 835.577 140.877 833.596 140.877C831.931 140.877 830.453 140.533 829.161 139.844C827.898 139.155 826.907 138.265 826.19 137.174V151.988H818.826V116.504H826.19V119.906ZM836.697 128.475C836.697 126.638 836.18 125.203 835.147 124.169C834.142 123.107 832.893 122.576 831.4 122.576C829.936 122.576 828.687 123.107 827.654 124.169C826.649 125.231 826.147 126.681 826.147 128.518C826.147 130.356 826.649 131.806 827.654 132.868C828.687 133.93 829.936 134.461 831.4 134.461C832.864 134.461 834.113 133.93 835.147 132.868C836.18 131.777 836.697 130.313 836.697 128.475ZM854.771 120.509C855.632 119.188 856.709 118.155 858.001 117.408C859.292 116.633 860.728 116.246 862.307 116.246V124.04H860.283C858.446 124.04 857.068 124.442 856.149 125.246C855.23 126.021 854.771 127.399 854.771 129.38V140.533H847.407V116.504H854.771V120.509ZM868.884 114.006C867.592 114.006 866.53 113.633 865.697 112.887C864.894 112.112 864.492 111.164 864.492 110.045C864.492 108.896 864.894 107.949 865.697 107.202C866.53 106.427 867.592 106.04 868.884 106.04C870.147 106.04 871.181 106.427 871.985 107.202C872.817 107.949 873.233 108.896 873.233 110.045C873.233 111.164 872.817 112.112 871.985 112.887C871.181 113.633 870.147 114.006 868.884 114.006ZM872.544 116.504V140.533H865.181V116.504H872.544ZM884.599 108.667V140.533H877.235V108.667H884.599Z" fill="white"/>
<path d="M89.0185 175.111V194.664H86.4657V175.111H89.0185ZM100.438 179.01C102.309 179.01 103.823 179.581 104.983 180.722C106.142 181.844 106.722 183.471 106.722 185.603V194.664H104.197V185.967C104.197 184.434 103.814 183.265 103.047 182.461C102.28 181.638 101.233 181.227 99.9054 181.227C98.5589 181.227 97.4835 181.647 96.6794 182.489C95.8939 183.33 95.5012 184.555 95.5012 186.164V194.664H92.9484V179.291H95.5012V181.479C96.0061 180.694 96.6887 180.086 97.549 179.656C98.428 179.225 99.3911 179.01 100.438 179.01ZM109.517 186.921C109.517 185.35 109.835 183.976 110.471 182.797C111.107 181.601 111.977 180.675 113.08 180.02C114.202 179.366 115.446 179.038 116.811 179.038C118.158 179.038 119.326 179.328 120.318 179.908C121.309 180.488 122.047 181.217 122.534 182.096V179.291H125.115V194.664H122.534V191.802C122.029 192.7 121.271 193.448 120.261 194.046C119.27 194.626 118.111 194.916 116.783 194.916C115.418 194.916 114.183 194.579 113.08 193.906C111.977 193.233 111.107 192.288 110.471 191.073C109.835 189.857 109.517 188.473 109.517 186.921ZM122.534 186.949C122.534 185.79 122.3 184.78 121.832 183.92C121.365 183.059 120.729 182.405 119.925 181.956C119.139 181.488 118.27 181.255 117.316 181.255C116.362 181.255 115.493 181.479 114.707 181.928C113.922 182.377 113.295 183.031 112.828 183.891C112.36 184.752 112.126 185.762 112.126 186.921C112.126 188.099 112.36 189.128 112.828 190.007C113.295 190.867 113.922 191.531 114.707 191.999C115.493 192.447 116.362 192.672 117.316 192.672C118.27 192.672 119.139 192.447 119.925 191.999C120.729 191.531 121.365 190.867 121.832 190.007C122.3 189.128 122.534 188.109 122.534 186.949ZM142.641 179.291V194.664H140.088V192.391C139.602 193.177 138.919 193.794 138.041 194.243C137.18 194.673 136.226 194.888 135.179 194.888C133.982 194.888 132.907 194.645 131.953 194.159C130.999 193.654 130.242 192.906 129.681 191.914C129.139 190.923 128.867 189.717 128.867 188.296V179.291H131.392V187.959C131.392 189.474 131.775 190.643 132.542 191.466C133.309 192.27 134.356 192.672 135.684 192.672C137.049 192.672 138.125 192.251 138.91 191.41C139.696 190.568 140.088 189.343 140.088 187.735V179.291H142.641ZM152.87 179.038C154.198 179.038 155.358 179.328 156.349 179.908C157.359 180.488 158.107 181.217 158.593 182.096V179.291H161.174V195C161.174 196.403 160.875 197.646 160.276 198.731C159.678 199.835 158.817 200.695 157.695 201.312C156.592 201.929 155.302 202.238 153.824 202.238C151.804 202.238 150.121 201.761 148.775 200.807C147.428 199.853 146.633 198.553 146.39 196.908H148.915C149.195 197.843 149.775 198.591 150.654 199.152C151.533 199.732 152.59 200.022 153.824 200.022C155.227 200.022 156.367 199.582 157.246 198.703C158.144 197.824 158.593 196.59 158.593 195V191.774C158.088 192.672 157.34 193.42 156.349 194.018C155.358 194.617 154.198 194.916 152.87 194.916C151.505 194.916 150.261 194.579 149.139 193.906C148.036 193.233 147.166 192.288 146.53 191.073C145.895 189.857 145.577 188.473 145.577 186.921C145.577 185.35 145.895 183.976 146.53 182.797C147.166 181.601 148.036 180.675 149.139 180.02C150.261 179.366 151.505 179.038 152.87 179.038ZM158.593 186.949C158.593 185.79 158.359 184.78 157.892 183.92C157.424 183.059 156.788 182.405 155.984 181.956C155.199 181.488 154.329 181.255 153.375 181.255C152.421 181.255 151.552 181.479 150.766 181.928C149.981 182.377 149.354 183.031 148.887 183.891C148.419 184.752 148.186 185.762 148.186 186.921C148.186 188.099 148.419 189.128 148.887 190.007C149.354 190.867 149.981 191.531 150.766 191.999C151.552 192.447 152.421 192.672 153.375 192.672C154.329 192.672 155.199 192.447 155.984 191.999C156.788 191.531 157.424 190.867 157.892 190.007C158.359 189.128 158.593 188.109 158.593 186.949ZM178.7 179.291V194.664H176.148V192.391C175.661 193.177 174.979 193.794 174.1 194.243C173.239 194.673 172.286 194.888 171.238 194.888C170.042 194.888 168.966 194.645 168.012 194.159C167.059 193.654 166.301 192.906 165.74 191.914C165.198 190.923 164.927 189.717 164.927 188.296V179.291H167.451V187.959C167.451 189.474 167.835 190.643 168.602 191.466C169.368 192.27 170.416 192.672 171.743 192.672C173.109 192.672 174.184 192.251 174.969 191.41C175.755 190.568 176.148 189.343 176.148 187.735V179.291H178.7ZM185.143 181.788C185.591 180.909 186.227 180.226 187.05 179.74C187.892 179.254 188.911 179.01 190.108 179.01V181.647H189.435C186.573 181.647 185.143 183.2 185.143 186.304V194.664H182.59V179.291H185.143V181.788ZM191.68 186.921C191.68 185.35 191.998 183.976 192.634 182.797C193.27 181.601 194.139 180.675 195.243 180.02C196.365 179.366 197.608 179.038 198.974 179.038C200.32 179.038 201.489 179.328 202.48 179.908C203.471 180.488 204.21 181.217 204.696 182.096V179.291H207.277V194.664H204.696V191.802C204.191 192.7 203.434 193.448 202.424 194.046C201.433 194.626 200.273 194.916 198.946 194.916C197.58 194.916 196.346 194.579 195.243 193.906C194.139 193.233 193.27 192.288 192.634 191.073C191.998 189.857 191.68 188.473 191.68 186.921ZM204.696 186.949C204.696 185.79 204.463 184.78 203.995 183.92C203.527 183.059 202.892 182.405 202.087 181.956C201.302 181.488 200.432 181.255 199.479 181.255C198.525 181.255 197.655 181.479 196.87 181.928C196.084 182.377 195.458 183.031 194.99 183.891C194.523 184.752 194.289 185.762 194.289 186.921C194.289 188.099 194.523 189.128 194.99 190.007C195.458 190.867 196.084 191.531 196.87 191.999C197.655 192.447 198.525 192.672 199.479 192.672C200.432 192.672 201.302 192.447 202.087 191.999C202.892 191.531 203.527 190.867 203.995 190.007C204.463 189.128 204.696 188.109 204.696 186.949ZM213.723 173.905V194.664H211.17V173.905H213.723ZM230.91 194.86C229.62 194.86 228.461 194.636 227.432 194.187C226.422 193.719 225.627 193.083 225.048 192.279C224.468 191.456 224.169 190.512 224.15 189.446H226.871C226.964 190.362 227.338 191.138 227.993 191.774C228.666 192.391 229.639 192.7 230.91 192.7C232.126 192.7 233.08 192.401 233.772 191.802C234.482 191.185 234.838 190.4 234.838 189.446C234.838 188.698 234.632 188.09 234.221 187.622C233.809 187.155 233.295 186.8 232.678 186.556C232.061 186.313 231.228 186.052 230.181 185.771C228.891 185.434 227.853 185.098 227.067 184.761C226.301 184.424 225.637 183.901 225.076 183.19C224.533 182.461 224.262 181.488 224.262 180.273C224.262 179.207 224.533 178.262 225.076 177.439C225.618 176.617 226.375 175.981 227.348 175.532C228.339 175.083 229.47 174.859 230.742 174.859C232.575 174.859 234.071 175.317 235.231 176.233C236.409 177.15 237.073 178.365 237.222 179.88H234.417C234.324 179.132 233.931 178.477 233.239 177.916C232.547 177.337 231.63 177.047 230.49 177.047C229.424 177.047 228.554 177.327 227.881 177.888C227.208 178.431 226.871 179.197 226.871 180.189C226.871 180.899 227.067 181.479 227.46 181.928C227.871 182.377 228.367 182.723 228.947 182.966C229.545 183.19 230.377 183.452 231.443 183.751C232.734 184.107 233.772 184.462 234.557 184.817C235.343 185.154 236.016 185.687 236.577 186.416C237.138 187.127 237.419 188.099 237.419 189.334C237.419 190.287 237.166 191.185 236.661 192.027C236.156 192.868 235.408 193.551 234.417 194.074C233.426 194.598 232.257 194.86 230.91 194.86ZM254.781 186.388C254.781 186.874 254.753 187.389 254.696 187.931H242.41C242.503 189.446 243.017 190.633 243.952 191.494C244.906 192.335 246.056 192.756 247.403 192.756C248.506 192.756 249.423 192.504 250.152 191.999C250.9 191.475 251.424 190.783 251.723 189.923H254.472C254.061 191.4 253.238 192.606 252.003 193.541C250.769 194.458 249.236 194.916 247.403 194.916C245.944 194.916 244.635 194.589 243.476 193.934C242.335 193.28 241.437 192.354 240.782 191.157C240.128 189.941 239.801 188.539 239.801 186.949C239.801 185.36 240.119 183.966 240.754 182.769C241.39 181.573 242.279 180.656 243.419 180.02C244.579 179.366 245.907 179.038 247.403 179.038C248.862 179.038 250.152 179.356 251.274 179.992C252.396 180.628 253.256 181.507 253.855 182.629C254.472 183.733 254.781 184.986 254.781 186.388ZM252.144 185.855C252.144 184.883 251.929 184.05 251.498 183.358C251.068 182.648 250.479 182.115 249.731 181.76C249.002 181.385 248.188 181.198 247.291 181.198C246 181.198 244.897 181.61 243.98 182.433C243.083 183.256 242.568 184.396 242.438 185.855H252.144ZM263.172 194.916C261.993 194.916 260.937 194.72 260.002 194.327C259.067 193.916 258.328 193.354 257.785 192.644C257.243 191.914 256.944 191.082 256.888 190.147H259.525C259.6 190.914 259.955 191.54 260.591 192.027C261.245 192.513 262.096 192.756 263.143 192.756C264.116 192.756 264.883 192.541 265.444 192.111C266.005 191.681 266.285 191.138 266.285 190.484C266.285 189.811 265.986 189.315 265.388 188.997C264.789 188.66 263.863 188.333 262.61 188.015C261.47 187.716 260.535 187.417 259.805 187.118C259.095 186.8 258.477 186.341 257.954 185.743C257.449 185.126 257.196 184.322 257.196 183.33C257.196 182.545 257.43 181.825 257.898 181.17C258.365 180.516 259.029 180.002 259.889 179.628C260.75 179.235 261.731 179.038 262.835 179.038C264.537 179.038 265.911 179.469 266.959 180.329C268.006 181.189 268.567 182.367 268.642 183.863H266.089C266.033 183.059 265.706 182.414 265.107 181.928C264.527 181.442 263.742 181.198 262.751 181.198C261.834 181.198 261.105 181.395 260.563 181.788C260.02 182.18 259.749 182.695 259.749 183.33C259.749 183.835 259.908 184.256 260.226 184.593C260.563 184.911 260.974 185.173 261.46 185.378C261.965 185.565 262.657 185.78 263.536 186.023C264.64 186.323 265.537 186.622 266.229 186.921C266.921 187.202 267.51 187.632 267.997 188.212C268.501 188.791 268.763 189.549 268.782 190.484C268.782 191.325 268.548 192.083 268.081 192.756C267.613 193.429 266.949 193.962 266.089 194.355C265.247 194.729 264.275 194.916 263.172 194.916ZM277.407 194.916C276.229 194.916 275.172 194.72 274.237 194.327C273.302 193.916 272.563 193.354 272.021 192.644C271.479 191.914 271.179 191.082 271.123 190.147H273.76C273.835 190.914 274.19 191.54 274.826 192.027C275.481 192.513 276.332 192.756 277.379 192.756C278.351 192.756 279.118 192.541 279.679 192.111C280.24 191.681 280.521 191.138 280.521 190.484C280.521 189.811 280.222 189.315 279.623 188.997C279.025 188.66 278.099 188.333 276.846 188.015C275.705 187.716 274.77 187.417 274.041 187.118C273.33 186.8 272.713 186.341 272.189 185.743C271.684 185.126 271.432 184.322 271.432 183.33C271.432 182.545 271.666 181.825 272.133 181.17C272.601 180.516 273.265 180.002 274.125 179.628C274.985 179.235 275.967 179.038 277.07 179.038C278.772 179.038 280.147 179.469 281.194 180.329C282.241 181.189 282.802 182.367 282.877 183.863H280.324C280.268 183.059 279.941 182.414 279.343 181.928C278.763 181.442 277.977 181.198 276.986 181.198C276.07 181.198 275.34 181.395 274.798 181.788C274.256 182.18 273.985 182.695 273.985 183.33C273.985 183.835 274.144 184.256 274.461 184.593C274.798 184.911 275.21 185.173 275.696 185.378C276.201 185.565 276.893 185.78 277.772 186.023C278.875 186.323 279.773 186.622 280.465 186.921C281.157 187.202 281.746 187.632 282.232 188.212C282.737 188.791 282.999 189.549 283.017 190.484C283.017 191.325 282.784 192.083 282.316 192.756C281.849 193.429 281.185 193.962 280.324 194.355C279.483 194.729 278.51 194.916 277.407 194.916ZM287.519 176.794C287.032 176.794 286.621 176.626 286.284 176.289C285.948 175.953 285.779 175.541 285.779 175.055C285.779 174.569 285.948 174.157 286.284 173.821C286.621 173.484 287.032 173.316 287.519 173.316C287.986 173.316 288.379 173.484 288.697 173.821C289.034 174.157 289.202 174.569 289.202 175.055C289.202 175.541 289.034 175.953 288.697 176.289C288.379 176.626 287.986 176.794 287.519 176.794ZM288.753 179.291V194.664H286.2V179.291H288.753ZM299.387 194.916C297.947 194.916 296.638 194.589 295.46 193.934C294.301 193.28 293.384 192.354 292.711 191.157C292.056 189.941 291.729 188.539 291.729 186.949C291.729 185.378 292.066 183.994 292.739 182.797C293.431 181.582 294.366 180.656 295.544 180.02C296.722 179.366 298.041 179.038 299.5 179.038C300.958 179.038 302.277 179.366 303.455 180.02C304.633 180.656 305.559 181.573 306.232 182.769C306.924 183.966 307.27 185.36 307.27 186.949C307.27 188.539 306.915 189.941 306.204 191.157C305.512 192.354 304.568 193.28 303.371 193.934C302.174 194.589 300.846 194.916 299.387 194.916ZM299.387 192.672C300.304 192.672 301.164 192.457 301.968 192.027C302.772 191.597 303.418 190.951 303.904 190.091C304.409 189.231 304.661 188.183 304.661 186.949C304.661 185.715 304.418 184.668 303.932 183.807C303.446 182.947 302.81 182.311 302.024 181.9C301.239 181.47 300.388 181.255 299.472 181.255C298.537 181.255 297.676 181.47 296.891 181.9C296.124 182.311 295.507 182.947 295.039 183.807C294.572 184.668 294.338 185.715 294.338 186.949C294.338 188.202 294.562 189.259 295.011 190.119C295.479 190.979 296.096 191.625 296.863 192.055C297.63 192.466 298.471 192.672 299.387 192.672ZM317.696 179.01C319.566 179.01 321.081 179.581 322.24 180.722C323.4 181.844 323.979 183.471 323.979 185.603V194.664H321.455V185.967C321.455 184.434 321.071 183.265 320.305 182.461C319.538 181.638 318.491 181.227 317.163 181.227C315.816 181.227 314.741 181.647 313.937 182.489C313.151 183.33 312.759 184.555 312.759 186.164V194.664H310.206V179.291H312.759V181.479C313.263 180.694 313.946 180.086 314.806 179.656C315.685 179.225 316.648 179.01 317.696 179.01Z" fill="white"/>
<path d="M771.145 177.187V183.723H778.27V185.827H771.145V192.56H779.112V194.664H768.592V175.083H779.112V177.187H771.145ZM790.044 179.01C791.914 179.01 793.429 179.581 794.588 180.722C795.748 181.844 796.327 183.471 796.327 185.603V194.664H793.803V185.967C793.803 184.434 793.419 183.265 792.652 182.461C791.886 181.638 790.838 181.227 789.511 181.227C788.164 181.227 787.089 181.647 786.285 182.489C785.499 183.33 785.106 184.555 785.106 186.164V194.664H782.554V179.291H785.106V181.479C785.611 180.694 786.294 180.086 787.154 179.656C788.033 179.225 788.996 179.01 790.044 179.01ZM805.519 194.916C804.34 194.916 803.284 194.72 802.349 194.327C801.414 193.916 800.675 193.354 800.133 192.644C799.59 191.914 799.291 191.082 799.235 190.147H801.872C801.947 190.914 802.302 191.54 802.938 192.027C803.592 192.513 804.443 192.756 805.491 192.756C806.463 192.756 807.23 192.541 807.791 192.111C808.352 191.681 808.632 191.138 808.632 190.484C808.632 189.811 808.333 189.315 807.735 188.997C807.136 188.66 806.211 188.333 804.958 188.015C803.817 187.716 802.882 187.417 802.152 187.118C801.442 186.8 800.825 186.341 800.301 185.743C799.796 185.126 799.543 184.322 799.543 183.33C799.543 182.545 799.777 181.825 800.245 181.17C800.712 180.516 801.376 180.002 802.237 179.628C803.097 179.235 804.079 179.038 805.182 179.038C806.884 179.038 808.258 179.469 809.306 180.329C810.353 181.189 810.914 182.367 810.989 183.863H808.436C808.38 183.059 808.053 182.414 807.454 181.928C806.874 181.442 806.089 181.198 805.098 181.198C804.181 181.198 803.452 181.395 802.91 181.788C802.367 182.18 802.096 182.695 802.096 183.33C802.096 183.835 802.255 184.256 802.573 184.593C802.91 184.911 803.321 185.173 803.807 185.378C804.312 185.565 805.004 185.78 805.883 186.023C806.987 186.323 807.884 186.622 808.576 186.921C809.268 187.202 809.857 187.632 810.344 188.212C810.849 188.791 811.11 189.549 811.129 190.484C811.129 191.325 810.895 192.083 810.428 192.756C809.96 193.429 809.296 193.962 808.436 194.355C807.594 194.729 806.622 194.916 805.519 194.916ZM828.338 186.388C828.338 186.874 828.31 187.389 828.254 187.931H815.967C816.061 189.446 816.575 190.633 817.51 191.494C818.464 192.335 819.614 192.756 820.96 192.756C822.064 192.756 822.98 192.504 823.709 191.999C824.458 191.475 824.981 190.783 825.28 189.923H828.03C827.618 191.4 826.795 192.606 825.561 193.541C824.327 194.458 822.793 194.916 820.96 194.916C819.502 194.916 818.192 194.589 817.033 193.934C815.892 193.28 814.995 192.354 814.34 191.157C813.685 189.941 813.358 188.539 813.358 186.949C813.358 185.36 813.676 183.966 814.312 182.769C814.948 181.573 815.836 180.656 816.977 180.02C818.136 179.366 819.464 179.038 820.96 179.038C822.419 179.038 823.709 179.356 824.832 179.992C825.954 180.628 826.814 181.507 827.412 182.629C828.029 183.733 828.338 184.986 828.338 186.388ZM825.701 185.855C825.701 184.883 825.486 184.05 825.056 183.358C824.626 182.648 824.037 182.115 823.289 181.76C822.559 181.385 821.746 181.198 820.848 181.198C819.558 181.198 818.454 181.61 817.538 182.433C816.64 183.256 816.126 184.396 815.995 185.855H825.701ZM849.773 179.01C850.97 179.01 852.036 179.263 852.971 179.768C853.906 180.254 854.645 180.993 855.187 181.984C855.73 182.975 856.001 184.181 856.001 185.603V194.664H853.476V185.967C853.476 184.434 853.093 183.265 852.326 182.461C851.578 181.638 850.559 181.227 849.268 181.227C847.941 181.227 846.884 181.657 846.098 182.517C845.313 183.358 844.92 184.583 844.92 186.192V194.664H842.396V185.967C842.396 184.434 842.012 183.265 841.245 182.461C840.497 181.638 839.478 181.227 838.188 181.227C836.86 181.227 835.803 181.657 835.018 182.517C834.232 183.358 833.84 184.583 833.84 186.192V194.664H831.287V179.291H833.84V181.507C834.345 180.703 835.018 180.086 835.859 179.656C836.72 179.225 837.664 179.01 838.693 179.01C839.983 179.01 841.124 179.3 842.115 179.88C843.106 180.46 843.845 181.311 844.331 182.433C844.761 181.348 845.472 180.507 846.463 179.908C847.454 179.31 848.558 179.01 849.773 179.01ZM862.32 182.152C862.844 181.236 863.611 180.488 864.621 179.908C865.631 179.328 866.781 179.038 868.071 179.038C869.455 179.038 870.699 179.366 871.802 180.02C872.905 180.675 873.775 181.601 874.411 182.797C875.047 183.976 875.365 185.35 875.365 186.921C875.365 188.473 875.047 189.857 874.411 191.073C873.775 192.288 872.896 193.233 871.774 193.906C870.671 194.579 869.436 194.916 868.071 194.916C866.743 194.916 865.574 194.626 864.565 194.046C863.573 193.467 862.825 192.728 862.32 191.83V194.664H859.768V173.905H862.32V182.152ZM872.756 186.921C872.756 185.762 872.522 184.752 872.055 183.891C871.587 183.031 870.951 182.377 870.147 181.928C869.361 181.479 868.492 181.255 867.538 181.255C866.603 181.255 865.733 181.488 864.929 181.956C864.144 182.405 863.508 183.069 863.022 183.948C862.554 184.808 862.32 185.808 862.32 186.949C862.32 188.109 862.554 189.128 863.022 190.007C863.508 190.867 864.144 191.531 864.929 191.999C865.733 192.447 866.603 192.672 867.538 192.672C868.492 192.672 869.361 192.447 870.147 191.999C870.951 191.531 871.587 190.867 872.055 190.007C872.522 189.128 872.756 188.099 872.756 186.921ZM880.857 173.905V194.664H878.304V173.905H880.857ZM898.813 186.388C898.813 186.874 898.785 187.389 898.729 187.931H886.442C886.535 189.446 887.05 190.633 887.985 191.494C888.938 192.335 890.089 192.756 891.435 192.756C892.539 192.756 893.455 192.504 894.184 191.999C894.932 191.475 895.456 190.783 895.755 189.923H898.504C898.093 191.4 897.27 192.606 896.036 193.541C894.801 194.458 893.268 194.916 891.435 194.916C889.976 194.916 888.667 194.589 887.508 193.934C886.367 193.28 885.469 192.354 884.815 191.157C884.16 189.941 883.833 188.539 883.833 186.949C883.833 185.36 884.151 183.966 884.787 182.769C885.423 181.573 886.311 180.656 887.452 180.02C888.611 179.366 889.939 179.038 891.435 179.038C892.894 179.038 894.184 179.356 895.306 179.992C896.428 180.628 897.289 181.507 897.887 182.629C898.504 183.733 898.813 184.986 898.813 186.388ZM896.176 185.855C896.176 184.883 895.961 184.05 895.531 183.358C895.101 182.648 894.512 182.115 893.763 181.76C893.034 181.385 892.221 181.198 891.323 181.198C890.033 181.198 888.929 181.61 888.013 182.433C887.115 183.256 886.601 184.396 886.47 185.855H896.176Z" fill="white"/>
<path d="M99.5381 235.288C99.5381 236.915 98.977 238.271 97.8549 239.356C96.7515 240.422 95.059 240.955 92.7775 240.955H89.0185V249.118H86.4657V229.566H92.7775C94.9842 229.566 96.658 230.099 97.7988 231.165C98.9583 232.231 99.5381 233.605 99.5381 235.288ZM92.7775 238.851C94.1988 238.851 95.2461 238.542 95.9193 237.925C96.5926 237.308 96.9292 236.429 96.9292 235.288C96.9292 232.876 95.5453 231.67 92.7775 231.67H89.0185V238.851H92.7775ZM104.843 236.242C105.292 235.363 105.927 234.681 106.75 234.194C107.592 233.708 108.611 233.465 109.808 233.465V236.102H109.135C106.273 236.102 104.843 237.654 104.843 240.759V249.118H102.29V233.746H104.843V236.242ZM119.039 249.371C117.599 249.371 116.289 249.043 115.111 248.389C113.952 247.734 113.035 246.809 112.362 245.612C111.708 244.396 111.38 242.993 111.38 241.404C111.38 239.833 111.717 238.449 112.39 237.252C113.082 236.036 114.017 235.111 115.195 234.475C116.374 233.82 117.692 233.493 119.151 233.493C120.61 233.493 121.928 233.82 123.106 234.475C124.284 235.111 125.21 236.027 125.883 237.224C126.575 238.421 126.921 239.814 126.921 241.404C126.921 242.993 126.566 244.396 125.855 245.612C125.163 246.809 124.219 247.734 123.022 248.389C121.825 249.043 120.497 249.371 119.039 249.371ZM119.039 247.126C119.955 247.126 120.815 246.911 121.619 246.481C122.424 246.051 123.069 245.406 123.555 244.546C124.06 243.685 124.312 242.638 124.312 241.404C124.312 240.169 124.069 239.122 123.583 238.262C123.097 237.402 122.461 236.766 121.675 236.354C120.89 235.924 120.039 235.709 119.123 235.709C118.188 235.709 117.327 235.924 116.542 236.354C115.775 236.766 115.158 237.402 114.69 238.262C114.223 239.122 113.989 240.169 113.989 241.404C113.989 242.657 114.214 243.713 114.662 244.574C115.13 245.434 115.747 246.079 116.514 246.509C117.281 246.921 118.122 247.126 119.039 247.126ZM131.231 231.249C130.745 231.249 130.334 231.081 129.997 230.744C129.679 230.407 129.52 229.996 129.52 229.51C129.52 229.023 129.679 228.612 129.997 228.275C130.334 227.939 130.745 227.77 131.231 227.77C131.718 227.77 132.12 227.939 132.438 228.275C132.774 228.612 132.943 229.023 132.943 229.51C132.943 229.996 132.774 230.407 132.438 230.744C132.12 231.081 131.718 231.249 131.231 231.249ZM132.494 252.456C132.494 253.822 132.148 254.822 131.456 255.458C130.764 256.094 129.754 256.412 128.426 256.412H126.939V254.252H128.005C128.716 254.252 129.212 254.111 129.492 253.831C129.791 253.55 129.941 253.074 129.941 252.4V233.746H132.494V252.456ZM150.421 240.843C150.421 241.329 150.392 241.843 150.336 242.386H138.049C138.143 243.9 138.657 245.088 139.592 245.948C140.546 246.79 141.696 247.211 143.043 247.211C144.146 247.211 145.063 246.958 145.792 246.453C146.54 245.93 147.064 245.238 147.363 244.377H150.112C149.701 245.855 148.878 247.061 147.643 247.996C146.409 248.912 144.876 249.371 143.043 249.371C141.584 249.371 140.275 249.043 139.115 248.389C137.975 247.734 137.077 246.809 136.422 245.612C135.768 244.396 135.441 242.993 135.441 241.404C135.441 239.814 135.759 238.421 136.394 237.224C137.03 236.027 137.919 235.111 139.059 234.475C140.219 233.82 141.547 233.493 143.043 233.493C144.502 233.493 145.792 233.811 146.914 234.447C148.036 235.083 148.896 235.962 149.495 237.084C150.112 238.187 150.421 239.44 150.421 240.843ZM147.784 240.31C147.784 239.337 147.569 238.505 147.138 237.813C146.708 237.102 146.119 236.569 145.371 236.214C144.642 235.84 143.828 235.653 142.931 235.653C141.64 235.653 140.537 236.064 139.62 236.887C138.723 237.71 138.208 238.851 138.078 240.31H147.784ZM152.416 241.404C152.416 239.814 152.733 238.43 153.369 237.252C154.005 236.055 154.884 235.129 156.006 234.475C157.147 233.82 158.447 233.493 159.906 233.493C161.794 233.493 163.347 233.951 164.562 234.868C165.797 235.784 166.61 237.056 167.003 238.683H164.254C163.992 237.748 163.478 237.009 162.711 236.467C161.963 235.924 161.028 235.653 159.906 235.653C158.447 235.653 157.269 236.158 156.371 237.168C155.473 238.159 155.024 239.571 155.024 241.404C155.024 243.255 155.473 244.686 156.371 245.696C157.269 246.706 158.447 247.211 159.906 247.211C161.028 247.211 161.963 246.949 162.711 246.425C163.459 245.902 163.973 245.153 164.254 244.181H167.003C166.591 245.752 165.768 247.014 164.534 247.968C163.3 248.903 161.757 249.371 159.906 249.371C158.447 249.371 157.147 249.043 156.006 248.389C154.884 247.734 154.005 246.809 153.369 245.612C152.733 244.415 152.416 243.012 152.416 241.404ZM173.102 235.849V244.91C173.102 245.658 173.261 246.191 173.579 246.509C173.897 246.809 174.448 246.958 175.234 246.958H177.113V249.118H174.813C173.392 249.118 172.326 248.791 171.615 248.136C170.905 247.482 170.549 246.406 170.549 244.91V235.849H168.557V233.746H170.549V229.874H173.102V233.746H177.113V235.849H173.102ZM206.677 229.706V249.118H204.124V234.643L197.672 249.118H195.876L189.396 234.615V249.118H186.844V229.706H189.593L196.774 245.752L203.956 229.706H206.677ZM224.611 240.843C224.611 241.329 224.583 241.843 224.527 242.386H212.24C212.334 243.9 212.848 245.088 213.783 245.948C214.737 246.79 215.887 247.211 217.233 247.211C218.337 247.211 219.253 246.958 219.983 246.453C220.731 245.93 221.254 245.238 221.554 244.377H224.303C223.891 245.855 223.068 247.061 221.834 247.996C220.6 248.912 219.066 249.371 217.233 249.371C215.775 249.371 214.466 249.043 213.306 248.389C212.165 247.734 211.268 246.809 210.613 245.612C209.959 244.396 209.631 242.993 209.631 241.404C209.631 239.814 209.949 238.421 210.585 237.224C211.221 236.027 212.109 235.111 213.25 234.475C214.41 233.82 215.737 233.493 217.233 233.493C218.692 233.493 219.983 233.811 221.105 234.447C222.227 235.083 223.087 235.962 223.685 237.084C224.303 238.187 224.611 239.44 224.611 240.843ZM221.974 240.31C221.974 239.337 221.759 238.505 221.329 237.813C220.899 237.102 220.31 236.569 219.562 236.214C218.832 235.84 218.019 235.653 217.121 235.653C215.831 235.653 214.727 236.064 213.811 236.887C212.913 237.71 212.399 238.851 212.268 240.31H221.974ZM230.113 228.359V249.118H227.56V228.359H230.113ZM233.089 241.376C233.089 239.805 233.407 238.43 234.043 237.252C234.679 236.055 235.548 235.129 236.652 234.475C237.774 233.82 239.017 233.493 240.383 233.493C241.729 233.493 242.898 233.783 243.889 234.363C244.88 234.942 245.619 235.672 246.105 236.551V233.746H248.686V249.118H246.105V246.257C245.6 247.155 244.843 247.903 243.833 248.501C242.842 249.081 241.682 249.371 240.354 249.371C238.989 249.371 237.755 249.034 236.652 248.361C235.548 247.687 234.679 246.743 234.043 245.527C233.407 244.312 233.089 242.928 233.089 241.376ZM246.105 241.404C246.105 240.244 245.871 239.234 245.404 238.374C244.936 237.514 244.3 236.859 243.496 236.41C242.711 235.943 241.841 235.709 240.887 235.709C239.934 235.709 239.064 235.934 238.279 236.382C237.493 236.831 236.867 237.486 236.399 238.346C235.932 239.206 235.698 240.216 235.698 241.376C235.698 242.554 235.932 243.583 236.399 244.461C236.867 245.322 237.493 245.986 238.279 246.453C239.064 246.902 239.934 247.126 240.887 247.126C241.841 247.126 242.711 246.902 243.496 246.453C244.3 245.986 244.936 245.322 245.404 244.461C245.871 243.583 246.105 242.563 246.105 241.404Z" fill="white"/>
<path d="M793.166 229.566L787.499 249.118H784.638L780.094 233.381L775.381 249.118L772.548 249.146L767.077 229.566H769.798L774.062 246.145L778.775 229.566H781.636L786.125 246.089L790.417 229.566H793.166ZM802.243 249.371C800.803 249.371 799.494 249.043 798.316 248.389C797.156 247.734 796.24 246.809 795.567 245.612C794.912 244.396 794.585 242.993 794.585 241.404C794.585 239.833 794.922 238.449 795.595 237.252C796.287 236.036 797.222 235.111 798.4 234.475C799.578 233.82 800.897 233.493 802.356 233.493C803.814 233.493 805.133 233.82 806.311 234.475C807.489 235.111 808.415 236.027 809.088 237.224C809.78 238.421 810.126 239.814 810.126 241.404C810.126 242.993 809.771 244.396 809.06 245.612C808.368 246.809 807.424 247.734 806.227 248.389C805.03 249.043 803.702 249.371 802.243 249.371ZM802.243 247.126C803.16 247.126 804.02 246.911 804.824 246.481C805.628 246.051 806.273 245.406 806.76 244.546C807.265 243.685 807.517 242.638 807.517 241.404C807.517 240.169 807.274 239.122 806.788 238.262C806.302 237.402 805.666 236.766 804.88 236.354C804.095 235.924 803.244 235.709 802.327 235.709C801.392 235.709 800.532 235.924 799.747 236.354C798.98 236.766 798.363 237.402 797.895 238.262C797.428 239.122 797.194 240.169 797.194 241.404C797.194 242.657 797.418 243.713 797.867 244.574C798.335 245.434 798.952 246.079 799.719 246.509C800.485 246.921 801.327 247.126 802.243 247.126ZM815.614 236.242C816.063 235.363 816.699 234.681 817.522 234.194C818.364 233.708 819.383 233.465 820.58 233.465V236.102H819.906C817.045 236.102 815.614 237.654 815.614 240.759V249.118H813.062V233.746H815.614V236.242ZM831.69 249.118L825.658 242.33V249.118H823.106V228.359H825.658V240.562L831.577 233.746H835.14L827.903 241.404L835.168 249.118H831.69ZM842.564 249.371C841.386 249.371 840.329 249.174 839.394 248.782C838.459 248.37 837.72 247.809 837.178 247.098C836.636 246.369 836.336 245.537 836.28 244.602H838.917C838.992 245.369 839.347 245.995 839.983 246.481C840.638 246.967 841.489 247.211 842.536 247.211C843.509 247.211 844.275 246.996 844.836 246.565C845.397 246.135 845.678 245.593 845.678 244.938C845.678 244.265 845.379 243.77 844.78 243.452C844.182 243.115 843.256 242.788 842.003 242.47C840.862 242.171 839.927 241.871 839.198 241.572C838.487 241.254 837.87 240.796 837.346 240.198C836.841 239.58 836.589 238.776 836.589 237.785C836.589 237 836.823 236.28 837.29 235.625C837.758 234.97 838.422 234.456 839.282 234.082C840.142 233.689 841.124 233.493 842.227 233.493C843.929 233.493 845.304 233.923 846.351 234.783C847.398 235.644 847.959 236.822 848.034 238.318H845.482C845.425 237.514 845.098 236.869 844.5 236.382C843.92 235.896 843.134 235.653 842.143 235.653C841.227 235.653 840.498 235.849 839.955 236.242C839.413 236.635 839.142 237.149 839.142 237.785C839.142 238.29 839.301 238.711 839.619 239.047C839.955 239.365 840.367 239.627 840.853 239.833C841.358 240.02 842.05 240.235 842.929 240.478C844.032 240.777 844.93 241.077 845.622 241.376C846.314 241.656 846.903 242.086 847.389 242.666C847.894 243.246 848.156 244.003 848.175 244.938C848.175 245.78 847.941 246.537 847.473 247.211C847.006 247.884 846.342 248.417 845.482 248.81C844.64 249.184 843.667 249.371 842.564 249.371ZM858.988 233.465C860.147 233.465 861.194 233.717 862.129 234.222C863.065 234.709 863.794 235.447 864.318 236.439C864.86 237.43 865.131 238.636 865.131 240.057V249.118H862.606V240.422C862.606 238.888 862.223 237.72 861.456 236.915C860.689 236.093 859.642 235.681 858.314 235.681C856.968 235.681 855.893 236.102 855.088 236.943C854.303 237.785 853.91 239.01 853.91 240.618V249.118H851.357V228.359H853.91V235.934C854.415 235.148 855.107 234.54 855.986 234.11C856.884 233.68 857.884 233.465 858.988 233.465ZM875.585 249.371C874.145 249.371 872.836 249.043 871.657 248.389C870.498 247.734 869.582 246.809 868.908 245.612C868.254 244.396 867.926 242.993 867.926 241.404C867.926 239.833 868.263 238.449 868.936 237.252C869.628 236.036 870.563 235.111 871.742 234.475C872.92 233.82 874.238 233.493 875.697 233.493C877.156 233.493 878.474 233.82 879.652 234.475C880.83 235.111 881.756 236.027 882.429 237.224C883.121 238.421 883.467 239.814 883.467 241.404C883.467 242.993 883.112 244.396 882.401 245.612C881.709 246.809 880.765 247.734 879.568 248.389C878.371 249.043 877.043 249.371 875.585 249.371ZM875.585 247.126C876.501 247.126 877.361 246.911 878.166 246.481C878.97 246.051 879.615 245.406 880.101 244.546C880.606 243.685 880.859 242.638 880.859 241.404C880.859 240.169 880.615 239.122 880.129 238.262C879.643 237.402 879.007 236.766 878.222 236.354C877.436 235.924 876.585 235.709 875.669 235.709C874.734 235.709 873.874 235.924 873.088 236.354C872.321 236.766 871.704 237.402 871.237 238.262C870.769 239.122 870.535 240.169 870.535 241.404C870.535 242.657 870.76 243.713 871.209 244.574C871.676 245.434 872.293 246.079 873.06 246.509C873.827 246.921 874.668 247.126 875.585 247.126ZM888.956 236.579C889.461 235.7 890.209 234.97 891.2 234.391C892.21 233.792 893.379 233.493 894.707 233.493C896.072 233.493 897.306 233.82 898.409 234.475C899.532 235.129 900.41 236.055 901.046 237.252C901.682 238.43 902 239.805 902 241.376C902 242.928 901.682 244.312 901.046 245.527C900.41 246.743 899.532 247.687 898.409 248.361C897.306 249.034 896.072 249.371 894.707 249.371C893.397 249.371 892.238 249.081 891.228 248.501C890.237 247.903 889.479 247.164 888.956 246.285V256.412H886.403V233.746H888.956V236.579ZM899.391 241.376C899.391 240.216 899.157 239.206 898.69 238.346C898.222 237.486 897.587 236.831 896.782 236.382C895.997 235.934 895.127 235.709 894.174 235.709C893.238 235.709 892.369 235.943 891.565 236.41C890.779 236.859 890.143 237.523 889.657 238.402C889.19 239.262 888.956 240.263 888.956 241.404C888.956 242.563 889.19 243.583 889.657 244.461C890.143 245.322 890.779 245.986 891.565 246.453C892.369 246.902 893.238 247.126 894.174 247.126C895.127 247.126 895.997 246.902 896.782 246.453C897.587 245.986 898.222 245.322 898.69 244.461C899.157 243.583 899.391 242.554 899.391 241.376ZM910.382 249.371C909.203 249.371 908.147 249.174 907.212 248.782C906.277 248.37 905.538 247.809 904.996 247.098C904.453 246.369 904.154 245.537 904.098 244.602H906.735C906.81 245.369 907.165 245.995 907.801 246.481C908.455 246.967 909.306 247.211 910.354 247.211C911.326 247.211 912.093 246.996 912.654 246.565C913.215 246.135 913.495 245.593 913.495 244.938C913.495 244.265 913.196 243.77 912.598 243.452C911.999 243.115 911.074 242.788 909.821 242.47C908.68 242.171 907.745 241.871 907.015 241.572C906.305 241.254 905.688 240.796 905.164 240.198C904.659 239.58 904.406 238.776 904.406 237.785C904.406 237 904.64 236.28 905.108 235.625C905.575 234.97 906.239 234.456 907.1 234.082C907.96 233.689 908.942 233.493 910.045 233.493C911.747 233.493 913.121 233.923 914.169 234.783C915.216 235.644 915.777 236.822 915.852 238.318H913.299C913.243 237.514 912.916 236.869 912.317 236.382C911.737 235.896 910.952 235.653 909.961 235.653C909.044 235.653 908.315 235.849 907.773 236.242C907.23 236.635 906.959 237.149 906.959 237.785C906.959 238.29 907.118 238.711 907.436 239.047C907.773 239.365 908.184 239.627 908.67 239.833C909.175 240.02 909.867 240.235 910.746 240.478C911.85 240.777 912.747 241.077 913.439 241.376C914.131 241.656 914.72 242.086 915.207 242.666C915.712 243.246 915.973 244.003 915.992 244.938C915.992 245.78 915.758 246.537 915.291 247.211C914.823 247.884 914.159 248.417 913.299 248.81C912.457 249.184 911.485 249.371 910.382 249.371Z" fill="white"/>
<path d="M106.299 284.16V303.572H103.746V289.097L97.2939 303.572H95.4985L89.0185 289.069V303.572H86.4657V284.16H89.2148L96.3962 300.206L103.578 284.16H106.299ZM112.76 301.496H119.605V303.572H110.207V284.02H112.76V301.496ZM127.999 293.782C127.999 291.874 128.429 290.163 129.289 288.648C130.15 287.115 131.319 285.918 132.796 285.058C134.292 284.197 135.947 283.767 137.761 283.767C139.893 283.767 141.754 284.282 143.344 285.31C144.933 286.339 146.093 287.798 146.822 289.686H143.764C143.222 288.508 142.437 287.601 141.408 286.965C140.398 286.329 139.183 286.012 137.761 286.012C136.396 286.012 135.171 286.329 134.086 286.965C133.002 287.601 132.151 288.508 131.534 289.686C130.917 290.846 130.608 292.211 130.608 293.782C130.608 295.334 130.917 296.699 131.534 297.878C132.151 299.037 133.002 299.935 134.086 300.571C135.171 301.207 136.396 301.524 137.761 301.524C139.183 301.524 140.398 301.216 141.408 300.599C142.437 299.963 143.222 299.056 143.764 297.878H146.822C146.093 299.748 144.933 301.197 143.344 302.226C141.754 303.236 139.893 303.741 137.761 303.741C135.947 303.741 134.292 303.32 132.796 302.478C131.319 301.618 130.15 300.43 129.289 298.916C128.429 297.401 127.999 295.69 127.999 293.782ZM156.906 303.825C155.466 303.825 154.157 303.497 152.979 302.843C151.819 302.188 150.903 301.263 150.229 300.066C149.575 298.85 149.248 297.448 149.248 295.858C149.248 294.287 149.584 292.903 150.257 291.706C150.949 290.491 151.885 289.565 153.063 288.929C154.241 288.274 155.559 287.947 157.018 287.947C158.477 287.947 159.795 288.274 160.973 288.929C162.152 289.565 163.077 290.481 163.751 291.678C164.443 292.875 164.789 294.268 164.789 295.858C164.789 297.448 164.433 298.85 163.723 300.066C163.031 301.263 162.086 302.188 160.889 302.843C159.692 303.497 158.365 303.825 156.906 303.825ZM156.906 301.581C157.822 301.581 158.683 301.365 159.487 300.935C160.291 300.505 160.936 299.86 161.422 299C161.927 298.139 162.18 297.092 162.18 295.858C162.18 294.624 161.937 293.576 161.45 292.716C160.964 291.856 160.328 291.22 159.543 290.808C158.757 290.378 157.906 290.163 156.99 290.163C156.055 290.163 155.195 290.378 154.409 290.808C153.642 291.22 153.025 291.856 152.558 292.716C152.09 293.576 151.856 294.624 151.856 295.858C151.856 297.111 152.081 298.168 152.53 299.028C152.997 299.888 153.614 300.533 154.381 300.963C155.148 301.375 155.99 301.581 156.906 301.581ZM186.211 287.919C187.408 287.919 188.474 288.172 189.409 288.676C190.344 289.163 191.082 289.901 191.625 290.893C192.167 291.884 192.438 293.09 192.438 294.511V303.572H189.914V294.876C189.914 293.343 189.53 292.174 188.763 291.37C188.015 290.547 186.996 290.135 185.706 290.135C184.378 290.135 183.321 290.565 182.536 291.426C181.75 292.267 181.358 293.492 181.358 295.1V303.572H178.833V294.876C178.833 293.343 178.45 292.174 177.683 291.37C176.935 290.547 175.915 290.135 174.625 290.135C173.297 290.135 172.241 290.565 171.455 291.426C170.67 292.267 170.277 293.492 170.277 295.1V303.572H167.724V288.2H170.277V290.416C170.782 289.612 171.455 288.994 172.297 288.564C173.157 288.134 174.101 287.919 175.13 287.919C176.42 287.919 177.561 288.209 178.552 288.789C179.544 289.368 180.282 290.219 180.769 291.341C181.199 290.257 181.909 289.415 182.901 288.817C183.892 288.218 184.995 287.919 186.211 287.919ZM198.758 291.033C199.263 290.154 200.011 289.425 201.002 288.845C202.012 288.246 203.181 287.947 204.508 287.947C205.874 287.947 207.108 288.274 208.211 288.929C209.333 289.584 210.212 290.509 210.848 291.706C211.484 292.884 211.802 294.259 211.802 295.83C211.802 297.382 211.484 298.766 210.848 299.982C210.212 301.197 209.333 302.142 208.211 302.815C207.108 303.488 205.874 303.825 204.508 303.825C203.199 303.825 202.04 303.535 201.03 302.955C200.039 302.357 199.281 301.618 198.758 300.739V310.866H196.205V288.2H198.758V291.033ZM209.193 295.83C209.193 294.67 208.959 293.66 208.492 292.8C208.024 291.94 207.388 291.285 206.584 290.837C205.799 290.388 204.929 290.163 203.975 290.163C203.04 290.163 202.171 290.397 201.367 290.865C200.581 291.313 199.945 291.977 199.459 292.856C198.992 293.717 198.758 294.717 198.758 295.858C198.758 297.017 198.992 298.037 199.459 298.916C199.945 299.776 200.581 300.44 201.367 300.907C202.171 301.356 203.04 301.581 203.975 301.581C204.929 301.581 205.799 301.356 206.584 300.907C207.388 300.44 208.024 299.776 208.492 298.916C208.959 298.037 209.193 297.008 209.193 295.83ZM228.768 295.297C228.768 295.783 228.74 296.297 228.683 296.84H216.396C216.49 298.355 217.004 299.542 217.939 300.402C218.893 301.244 220.043 301.665 221.39 301.665C222.493 301.665 223.41 301.412 224.139 300.907C224.887 300.384 225.411 299.692 225.71 298.831H228.459C228.048 300.309 227.225 301.515 225.99 302.45C224.756 303.367 223.223 303.825 221.39 303.825C219.931 303.825 218.622 303.497 217.462 302.843C216.322 302.188 215.424 301.263 214.769 300.066C214.115 298.85 213.788 297.448 213.788 295.858C213.788 294.268 214.106 292.875 214.741 291.678C215.377 290.481 216.266 289.565 217.406 288.929C218.566 288.274 219.894 287.947 221.39 287.947C222.849 287.947 224.139 288.265 225.261 288.901C226.383 289.537 227.243 290.416 227.842 291.538C228.459 292.641 228.768 293.894 228.768 295.297ZM226.131 294.764C226.131 293.791 225.916 292.959 225.485 292.267C225.055 291.557 224.466 291.024 223.718 290.668C222.989 290.294 222.175 290.107 221.278 290.107C219.987 290.107 218.884 290.519 217.967 291.341C217.07 292.164 216.555 293.305 216.425 294.764H226.131ZM234.83 290.304V299.364C234.83 300.112 234.989 300.645 235.307 300.963C235.625 301.263 236.177 301.412 236.962 301.412H238.842V303.572H236.541C235.12 303.572 234.054 303.245 233.343 302.59C232.633 301.936 232.277 300.861 232.277 299.364V290.304H230.286V288.2H232.277V284.328H234.83V288.2H238.842V290.304H234.83ZM242.832 285.703C242.346 285.703 241.935 285.535 241.598 285.198C241.261 284.861 241.093 284.45 241.093 283.964C241.093 283.477 241.261 283.066 241.598 282.729C241.935 282.393 242.346 282.224 242.832 282.224C243.3 282.224 243.693 282.393 244.01 282.729C244.347 283.066 244.515 283.477 244.515 283.964C244.515 284.45 244.347 284.861 244.01 285.198C243.693 285.535 243.3 285.703 242.832 285.703ZM244.067 288.2V303.572H241.514V288.2H244.067ZM251.11 290.304V299.364C251.11 300.112 251.269 300.645 251.587 300.963C251.905 301.263 252.457 301.412 253.242 301.412H255.122V303.572H252.822C251.4 303.572 250.334 303.245 249.624 302.59C248.913 301.936 248.558 300.861 248.558 299.364V290.304H246.566V288.2H248.558V284.328H251.11V288.2H255.122V290.304H251.11ZM259.112 285.703C258.626 285.703 258.215 285.535 257.878 285.198C257.542 284.861 257.373 284.45 257.373 283.964C257.373 283.477 257.542 283.066 257.878 282.729C258.215 282.393 258.626 282.224 259.112 282.224C259.58 282.224 259.973 282.393 260.291 282.729C260.627 283.066 260.796 283.477 260.796 283.964C260.796 284.45 260.627 284.861 260.291 285.198C259.973 285.535 259.58 285.703 259.112 285.703ZM260.347 288.2V303.572H257.794V288.2H260.347ZM270.981 303.825C269.541 303.825 268.232 303.497 267.054 302.843C265.894 302.188 264.978 301.263 264.305 300.066C263.65 298.85 263.323 297.448 263.323 295.858C263.323 294.287 263.66 292.903 264.333 291.706C265.025 290.491 265.96 289.565 267.138 288.929C268.316 288.274 269.635 287.947 271.093 287.947C272.552 287.947 273.871 288.274 275.049 288.929C276.227 289.565 277.153 290.481 277.826 291.678C278.518 292.875 278.864 294.268 278.864 295.858C278.864 297.448 278.509 298.85 277.798 300.066C277.106 301.263 276.162 302.188 274.965 302.843C273.768 303.497 272.44 303.825 270.981 303.825ZM270.981 301.581C271.898 301.581 272.758 301.365 273.562 300.935C274.366 300.505 275.011 299.86 275.498 299C276.003 298.139 276.255 297.092 276.255 295.858C276.255 294.624 276.012 293.576 275.526 292.716C275.039 291.856 274.404 291.22 273.618 290.808C272.833 290.378 271.982 290.163 271.065 290.163C270.13 290.163 269.27 290.378 268.485 290.808C267.718 291.22 267.101 291.856 266.633 292.716C266.166 293.576 265.932 294.624 265.932 295.858C265.932 297.111 266.156 298.168 266.605 299.028C267.073 299.888 267.69 300.533 268.457 300.963C269.223 301.375 270.065 301.581 270.981 301.581ZM289.29 287.919C291.16 287.919 292.674 288.489 293.834 289.63C294.993 290.752 295.573 292.379 295.573 294.511V303.572H293.049V294.876C293.049 293.343 292.665 292.174 291.898 291.37C291.132 290.547 290.084 290.135 288.757 290.135C287.41 290.135 286.335 290.556 285.531 291.398C284.745 292.239 284.352 293.464 284.352 295.072V303.572H281.8V288.2H284.352V290.388C284.857 289.602 285.54 288.994 286.4 288.564C287.279 288.134 288.242 287.919 289.29 287.919ZM317.433 284.02V286.096H308.933V292.688H315.834V294.764H308.933V303.572H306.38V284.02H317.433ZM321.414 285.703C320.928 285.703 320.516 285.535 320.179 285.198C319.843 284.861 319.675 284.45 319.675 283.964C319.675 283.477 319.843 283.066 320.179 282.729C320.516 282.393 320.928 282.224 321.414 282.224C321.881 282.224 322.274 282.393 322.592 282.729C322.929 283.066 323.097 283.477 323.097 283.964C323.097 284.45 322.929 284.861 322.592 285.198C322.274 285.535 321.881 285.703 321.414 285.703ZM322.648 288.2V303.572H320.095V288.2H322.648ZM334.068 287.919C335.938 287.919 337.453 288.489 338.612 289.63C339.772 290.752 340.352 292.379 340.352 294.511V303.572H337.827V294.876C337.827 293.343 337.444 292.174 336.677 291.37C335.91 290.547 334.863 290.135 333.535 290.135C332.189 290.135 331.113 290.556 330.309 291.398C329.524 292.239 329.131 293.464 329.131 295.072V303.572H326.578V288.2H329.131V290.388C329.636 289.602 330.318 288.994 331.179 288.564C332.058 288.134 333.021 287.919 334.068 287.919ZM343.147 295.83C343.147 294.259 343.465 292.884 344.101 291.706C344.737 290.509 345.606 289.584 346.71 288.929C347.832 288.274 349.075 287.947 350.441 287.947C351.787 287.947 352.956 288.237 353.947 288.817C354.938 289.397 355.677 290.126 356.163 291.005V288.2H358.744V303.572H356.163V300.711C355.658 301.609 354.901 302.357 353.891 302.955C352.9 303.535 351.74 303.825 350.413 303.825C349.047 303.825 347.813 303.488 346.71 302.815C345.606 302.142 344.737 301.197 344.101 299.982C343.465 298.766 343.147 297.382 343.147 295.83ZM356.163 295.858C356.163 294.698 355.93 293.689 355.462 292.828C354.994 291.968 354.359 291.313 353.554 290.865C352.769 290.397 351.899 290.163 350.946 290.163C349.992 290.163 349.122 290.388 348.337 290.837C347.551 291.285 346.925 291.94 346.457 292.8C345.99 293.66 345.756 294.67 345.756 295.83C345.756 297.008 345.99 298.037 346.457 298.916C346.925 299.776 347.551 300.44 348.337 300.907C349.122 301.356 349.992 301.581 350.946 301.581C351.899 301.581 352.769 301.356 353.554 300.907C354.359 300.44 354.994 299.776 355.462 298.916C355.93 298.037 356.163 297.017 356.163 295.858ZM365.19 282.814V303.572H362.637V282.814H365.19ZM374.562 303.825C373.384 303.825 372.327 303.628 371.392 303.236C370.457 302.824 369.718 302.263 369.176 301.552C368.634 300.823 368.335 299.991 368.278 299.056H370.915C370.99 299.823 371.346 300.449 371.981 300.935C372.636 301.422 373.487 301.665 374.534 301.665C375.507 301.665 376.273 301.45 376.834 301.02C377.395 300.589 377.676 300.047 377.676 299.392C377.676 298.719 377.377 298.224 376.778 297.906C376.18 297.569 375.254 297.242 374.001 296.924C372.86 296.625 371.925 296.325 371.196 296.026C370.485 295.708 369.868 295.25 369.344 294.652C368.839 294.034 368.587 293.23 368.587 292.239C368.587 291.454 368.821 290.734 369.288 290.079C369.756 289.425 370.42 288.91 371.28 288.536C372.14 288.144 373.122 287.947 374.226 287.947C375.927 287.947 377.302 288.377 378.349 289.238C379.397 290.098 379.958 291.276 380.032 292.772H377.48C377.423 291.968 377.096 291.323 376.498 290.837C375.918 290.35 375.133 290.107 374.141 290.107C373.225 290.107 372.496 290.304 371.953 290.696C371.411 291.089 371.14 291.603 371.14 292.239C371.14 292.744 371.299 293.165 371.617 293.501C371.953 293.819 372.365 294.081 372.851 294.287C373.356 294.474 374.048 294.689 374.927 294.932C376.03 295.231 376.928 295.531 377.62 295.83C378.312 296.11 378.901 296.54 379.387 297.12C379.892 297.7 380.154 298.457 380.173 299.392C380.173 300.234 379.939 300.991 379.471 301.665C379.004 302.338 378.34 302.871 377.48 303.264C376.638 303.638 375.666 303.825 374.562 303.825Z" fill="white"/>
<path d="M778.887 303.572L774.231 295.577H771.145V303.572H768.592V284.02H774.904C776.381 284.02 777.625 284.272 778.635 284.777C779.663 285.282 780.43 285.965 780.935 286.825C781.44 287.685 781.693 288.667 781.693 289.771C781.693 291.117 781.3 292.305 780.514 293.333C779.748 294.362 778.588 295.044 777.036 295.381L781.945 303.572H778.887ZM771.145 293.53H774.904C776.288 293.53 777.326 293.193 778.018 292.52C778.71 291.828 779.056 290.911 779.056 289.771C779.056 288.611 778.71 287.713 778.018 287.078C777.344 286.442 776.307 286.124 774.904 286.124H771.145V293.53ZM786.557 285.703C786.071 285.703 785.659 285.535 785.323 285.198C784.986 284.861 784.818 284.45 784.818 283.964C784.818 283.477 784.986 283.066 785.323 282.729C785.659 282.393 786.071 282.224 786.557 282.224C787.024 282.224 787.417 282.393 787.735 282.729C788.072 283.066 788.24 283.477 788.24 283.964C788.24 284.45 788.072 284.861 787.735 285.198C787.417 285.535 787.024 285.703 786.557 285.703ZM787.791 288.2V303.572H785.238V288.2H787.791ZM794.274 291.033C794.779 290.154 795.527 289.425 796.518 288.845C797.528 288.246 798.697 287.947 800.025 287.947C801.39 287.947 802.624 288.274 803.727 288.929C804.85 289.584 805.729 290.509 806.364 291.706C807 292.884 807.318 294.259 807.318 295.83C807.318 297.382 807 298.766 806.364 299.982C805.729 301.197 804.85 302.142 803.727 302.815C802.624 303.488 801.39 303.825 800.025 303.825C798.715 303.825 797.556 303.535 796.546 302.955C795.555 302.357 794.797 301.618 794.274 300.739V310.866H791.721V288.2H794.274V291.033ZM804.709 295.83C804.709 294.67 804.476 293.66 804.008 292.8C803.54 291.94 802.905 291.285 802.1 290.837C801.315 290.388 800.445 290.163 799.492 290.163C798.556 290.163 797.687 290.397 796.883 290.865C796.097 291.313 795.461 291.977 794.975 292.856C794.508 293.717 794.274 294.717 794.274 295.858C794.274 297.017 794.508 298.037 794.975 298.916C795.461 299.776 796.097 300.44 796.883 300.907C797.687 301.356 798.556 301.581 799.492 301.581C800.445 301.581 801.315 301.356 802.1 300.907C802.905 300.44 803.54 299.776 804.008 298.916C804.476 298.037 804.709 297.008 804.709 295.83ZM812.81 291.033C813.315 290.154 814.063 289.425 815.054 288.845C816.064 288.246 817.233 287.947 818.561 287.947C819.926 287.947 821.16 288.274 822.264 288.929C823.386 289.584 824.265 290.509 824.901 291.706C825.537 292.884 825.855 294.259 825.855 295.83C825.855 297.382 825.537 298.766 824.901 299.982C824.265 301.197 823.386 302.142 822.264 302.815C821.16 303.488 819.926 303.825 818.561 303.825C817.252 303.825 816.092 303.535 815.082 302.955C814.091 302.357 813.334 301.618 812.81 300.739V310.866H810.257V288.2H812.81V291.033ZM823.246 295.83C823.246 294.67 823.012 293.66 822.544 292.8C822.077 291.94 821.441 291.285 820.637 290.837C819.851 290.388 818.982 290.163 818.028 290.163C817.093 290.163 816.223 290.397 815.419 290.865C814.634 291.313 813.998 291.977 813.512 292.856C813.044 293.717 812.81 294.717 812.81 295.858C812.81 297.017 813.044 298.037 813.512 298.916C813.998 299.776 814.634 300.44 815.419 300.907C816.223 301.356 817.093 301.581 818.028 301.581C818.982 301.581 819.851 301.356 820.637 300.907C821.441 300.44 822.077 299.776 822.544 298.916C823.012 298.037 823.246 297.008 823.246 295.83ZM831.347 282.814V303.572H828.794V282.814H831.347ZM849.303 295.297C849.303 295.783 849.275 296.297 849.219 296.84H836.932C837.025 298.355 837.54 299.542 838.475 300.402C839.428 301.244 840.579 301.665 841.925 301.665C843.028 301.665 843.945 301.412 844.674 300.907C845.422 300.384 845.946 299.692 846.245 298.831H848.994C848.583 300.309 847.76 301.515 846.526 302.45C845.291 303.367 843.758 303.825 841.925 303.825C840.466 303.825 839.157 303.497 837.998 302.843C836.857 302.188 835.959 301.263 835.305 300.066C834.65 298.85 834.323 297.448 834.323 295.858C834.323 294.268 834.641 292.875 835.277 291.678C835.912 290.481 836.801 289.565 837.942 288.929C839.101 288.274 840.429 287.947 841.925 287.947C843.384 287.947 844.674 288.265 845.796 288.901C846.918 289.537 847.779 290.416 848.377 291.538C848.994 292.641 849.303 293.894 849.303 295.297ZM846.666 294.764C846.666 293.791 846.451 292.959 846.021 292.267C845.591 291.557 845.001 291.024 844.253 290.668C843.524 290.294 842.71 290.107 841.813 290.107C840.522 290.107 839.419 290.519 838.503 291.341C837.605 292.164 837.091 293.305 836.96 294.764H846.666ZM861.862 286.096V292.632H868.988V294.736H861.862V301.468H869.829V303.572H859.31V283.992H869.829V286.096H861.862ZM879.527 290.304H876.301V303.572H873.748V290.304H871.756V288.2H873.748V287.106C873.748 285.385 874.187 284.132 875.066 283.347C875.964 282.542 877.395 282.14 879.358 282.14V284.272C878.236 284.272 877.442 284.497 876.974 284.946C876.525 285.376 876.301 286.096 876.301 287.106V288.2H879.527V290.304ZM888.338 290.304H885.112V303.572H882.559V290.304H880.568V288.2H882.559V287.106C882.559 285.385 882.999 284.132 883.878 283.347C884.775 282.542 886.206 282.14 888.17 282.14V284.272C887.048 284.272 886.253 284.497 885.785 284.946C885.336 285.376 885.112 286.096 885.112 287.106V288.2H888.338V290.304ZM904.92 295.297C904.92 295.783 904.892 296.297 904.836 296.84H892.549C892.642 298.355 893.156 299.542 894.092 300.402C895.045 301.244 896.195 301.665 897.542 301.665C898.645 301.665 899.562 301.412 900.291 300.907C901.039 300.384 901.563 299.692 901.862 298.831H904.611C904.2 300.309 903.377 301.515 902.143 302.45C900.908 303.367 899.375 303.825 897.542 303.825C896.083 303.825 894.774 303.497 893.615 302.843C892.474 302.188 891.576 301.263 890.922 300.066C890.267 298.85 889.94 297.448 889.94 295.858C889.94 294.268 890.258 292.875 890.894 291.678C891.529 290.481 892.418 289.565 893.559 288.929C894.718 288.274 896.046 287.947 897.542 287.947C899.001 287.947 900.291 288.265 901.413 288.901C902.535 289.537 903.396 290.416 903.994 291.538C904.611 292.641 904.92 293.894 904.92 295.297ZM902.283 294.764C902.283 293.791 902.068 292.959 901.638 292.267C901.208 291.557 900.618 291.024 899.87 290.668C899.141 290.294 898.327 290.107 897.43 290.107C896.139 290.107 895.036 290.519 894.12 291.341C893.222 292.164 892.708 293.305 892.577 294.764H902.283ZM906.915 295.858C906.915 294.268 907.233 292.884 907.869 291.706C908.504 290.509 909.383 289.584 910.505 288.929C911.646 288.274 912.946 287.947 914.405 287.947C916.294 287.947 917.846 288.405 919.061 289.322C920.296 290.238 921.109 291.51 921.502 293.137H918.753C918.491 292.202 917.977 291.463 917.21 290.921C916.462 290.378 915.527 290.107 914.405 290.107C912.946 290.107 911.768 290.612 910.87 291.622C909.972 292.613 909.524 294.025 909.524 295.858C909.524 297.709 909.972 299.14 910.87 300.15C911.768 301.16 912.946 301.665 914.405 301.665C915.527 301.665 916.462 301.403 917.21 300.879C917.958 300.356 918.472 299.608 918.753 298.635H921.502C921.091 300.206 920.268 301.468 919.033 302.422C917.799 303.357 916.256 303.825 914.405 303.825C912.946 303.825 911.646 303.497 910.505 302.843C909.383 302.188 908.504 301.263 907.869 300.066C907.233 298.869 906.915 297.466 906.915 295.858ZM927.601 290.304V299.364C927.601 300.112 927.76 300.645 928.078 300.963C928.396 301.263 928.948 301.412 929.733 301.412H931.613V303.572H929.312C927.891 303.572 926.825 303.245 926.114 302.59C925.404 301.936 925.048 300.861 925.048 299.364V290.304H923.057V288.2H925.048V284.328H927.601V288.2H931.613V290.304H927.601Z" fill="white"/>
<path d="M89.0185 355.951H95.8632V358.027H86.4657V338.474H89.0185V355.951ZM112.18 349.751C112.18 350.238 112.152 350.752 112.095 351.294H99.8085C99.902 352.809 100.416 353.997 101.351 354.857C102.305 355.699 103.455 356.119 104.802 356.119C105.905 356.119 106.822 355.867 107.551 355.362C108.299 354.838 108.823 354.146 109.122 353.286H111.871C111.46 354.763 110.637 355.97 109.402 356.905C108.168 357.821 106.635 358.279 104.802 358.279C103.343 358.279 102.034 357.952 100.874 357.297C99.7337 356.643 98.836 355.717 98.1815 354.52C97.5269 353.305 97.1996 351.902 97.1996 350.312C97.1996 348.723 97.5176 347.33 98.1534 346.133C98.7893 344.936 99.6776 344.019 100.818 343.384C101.978 342.729 103.306 342.402 104.802 342.402C106.261 342.402 107.551 342.72 108.673 343.356C109.795 343.991 110.655 344.87 111.254 345.992C111.871 347.096 112.18 348.349 112.18 349.751ZM109.543 349.218C109.543 348.246 109.328 347.414 108.897 346.722C108.467 346.011 107.878 345.478 107.13 345.123C106.401 344.749 105.587 344.562 104.69 344.562C103.399 344.562 102.296 344.973 101.379 345.796C100.482 346.619 99.9675 347.76 99.8366 349.218H109.543ZM114.175 350.312C114.175 348.723 114.492 347.339 115.128 346.161C115.764 344.964 116.643 344.038 117.765 343.384C118.906 342.729 120.206 342.402 121.665 342.402C123.553 342.402 125.106 342.86 126.321 343.776C127.556 344.693 128.369 345.964 128.762 347.591H126.013C125.751 346.656 125.237 345.918 124.47 345.375C123.722 344.833 122.787 344.562 121.665 344.562C120.206 344.562 119.028 345.067 118.13 346.077C117.232 347.068 116.783 348.48 116.783 350.312C116.783 352.164 117.232 353.595 118.13 354.604C119.028 355.614 120.206 356.119 121.665 356.119C122.787 356.119 123.722 355.857 124.47 355.334C125.218 354.81 125.732 354.062 126.013 353.09H128.762C128.35 354.661 127.527 355.923 126.293 356.877C125.059 357.812 123.516 358.279 121.665 358.279C120.206 358.279 118.906 357.952 117.765 357.297C116.643 356.643 115.764 355.717 115.128 354.52C114.492 353.323 114.175 351.921 114.175 350.312ZM134.861 344.758V353.819C134.861 354.567 135.02 355.1 135.338 355.418C135.656 355.717 136.207 355.867 136.993 355.867H138.872V358.027H136.572C135.151 358.027 134.085 357.7 133.374 357.045C132.664 356.39 132.308 355.315 132.308 353.819V344.758H130.316V342.654H132.308V338.783H134.861V342.654H138.872V344.758H134.861ZM155.178 342.654V358.027H152.625V355.755C152.139 356.54 151.456 357.157 150.577 357.606C149.717 358.036 148.763 358.251 147.716 358.251C146.519 358.251 145.444 358.008 144.49 357.522C143.536 357.017 142.779 356.269 142.218 355.278C141.676 354.287 141.404 353.08 141.404 351.659V342.654H143.929V351.322C143.929 352.837 144.312 354.006 145.079 354.829C145.846 355.633 146.893 356.035 148.221 356.035C149.586 356.035 150.662 355.614 151.447 354.773C152.233 353.931 152.625 352.706 152.625 351.098V342.654H155.178ZM161.62 345.151C162.069 344.272 162.705 343.589 163.528 343.103C164.369 342.617 165.389 342.374 166.585 342.374V345.011H165.912C163.051 345.011 161.62 346.563 161.62 349.667V358.027H159.067V342.654H161.62V345.151ZM183.138 349.751C183.138 350.238 183.11 350.752 183.053 351.294H170.767C170.86 352.809 171.374 353.997 172.309 354.857C173.263 355.699 174.413 356.119 175.76 356.119C176.863 356.119 177.78 355.867 178.509 355.362C179.257 354.838 179.781 354.146 180.08 353.286H182.829C182.418 354.763 181.595 355.97 180.36 356.905C179.126 357.821 177.593 358.279 175.76 358.279C174.301 358.279 172.992 357.952 171.833 357.297C170.692 356.643 169.794 355.717 169.14 354.52C168.485 353.305 168.158 351.902 168.158 350.312C168.158 348.723 168.476 347.33 169.111 346.133C169.747 344.936 170.636 344.019 171.776 343.384C172.936 342.729 174.264 342.402 175.76 342.402C177.219 342.402 178.509 342.72 179.631 343.356C180.753 343.991 181.613 344.87 182.212 345.992C182.829 347.096 183.138 348.349 183.138 349.751ZM180.501 349.218C180.501 348.246 180.286 347.414 179.856 346.722C179.425 346.011 178.836 345.478 178.088 345.123C177.359 344.749 176.545 344.562 175.648 344.562C174.357 344.562 173.254 344.973 172.338 345.796C171.44 346.619 170.926 347.76 170.795 349.218H180.501ZM205.179 338.474V340.55H199.849V358.027H197.296V340.55H191.938V338.474H205.179ZM206.947 350.284C206.947 348.713 207.265 347.339 207.9 346.161C208.536 344.964 209.406 344.038 210.509 343.384C211.631 342.729 212.875 342.402 214.24 342.402C215.587 342.402 216.756 342.692 217.747 343.271C218.738 343.851 219.477 344.58 219.963 345.459V342.654H222.544V358.027H219.963V355.166C219.458 356.063 218.701 356.811 217.691 357.41C216.699 357.989 215.54 358.279 214.212 358.279C212.847 358.279 211.613 357.943 210.509 357.269C209.406 356.596 208.536 355.652 207.9 354.436C207.265 353.221 206.947 351.837 206.947 350.284ZM219.963 350.312C219.963 349.153 219.729 348.143 219.262 347.283C218.794 346.423 218.158 345.768 217.354 345.319C216.569 344.852 215.699 344.618 214.745 344.618C213.791 344.618 212.922 344.842 212.136 345.291C211.351 345.74 210.724 346.395 210.257 347.255C209.789 348.115 209.555 349.125 209.555 350.284C209.555 351.463 209.789 352.491 210.257 353.37C210.724 354.23 211.351 354.894 212.136 355.362C212.922 355.811 213.791 356.035 214.745 356.035C215.699 356.035 216.569 355.811 217.354 355.362C218.158 354.894 218.794 354.23 219.262 353.37C219.729 352.491 219.963 351.472 219.963 350.312ZM228.99 337.268V358.027H226.437V337.268H228.99ZM241.504 358.027L235.472 351.238V358.027H232.92V337.268H235.472V349.471L241.391 342.654H244.954L237.716 350.312L244.982 358.027H241.504Z" fill="white"/>
<path d="M771.145 355.951H777.99V358.027H768.592V338.474H771.145V355.951ZM794.306 349.751C794.306 350.238 794.278 350.752 794.222 351.294H781.935C782.028 352.809 782.543 353.997 783.478 354.857C784.432 355.699 785.582 356.119 786.928 356.119C788.032 356.119 788.948 355.867 789.677 355.362C790.425 354.838 790.949 354.146 791.248 353.286H793.997C793.586 354.763 792.763 355.97 791.529 356.905C790.295 357.821 788.761 358.279 786.928 358.279C785.47 358.279 784.16 357.952 783.001 357.297C781.86 356.643 780.962 355.717 780.308 354.52C779.653 353.305 779.326 351.902 779.326 350.312C779.326 348.723 779.644 347.33 780.28 346.133C780.916 344.936 781.804 344.019 782.945 343.384C784.104 342.729 785.432 342.402 786.928 342.402C788.387 342.402 789.677 342.72 790.799 343.356C791.922 343.991 792.782 344.87 793.38 345.992C793.997 347.096 794.306 348.349 794.306 349.751ZM791.669 349.218C791.669 348.246 791.454 347.414 791.024 346.722C790.594 346.011 790.005 345.478 789.257 345.123C788.527 344.749 787.714 344.562 786.816 344.562C785.526 344.562 784.422 344.973 783.506 345.796C782.608 346.619 782.094 347.76 781.963 349.218H791.669ZM796.301 350.312C796.301 348.723 796.619 347.339 797.255 346.161C797.891 344.964 798.77 344.038 799.892 343.384C801.033 342.729 802.332 342.402 803.791 342.402C805.68 342.402 807.232 342.86 808.448 343.776C809.682 344.693 810.495 345.964 810.888 347.591H808.139C807.877 346.656 807.363 345.918 806.596 345.375C805.848 344.833 804.913 344.562 803.791 344.562C802.332 344.562 801.154 345.067 800.256 346.077C799.359 347.068 798.91 348.48 798.91 350.312C798.91 352.164 799.359 353.595 800.256 354.604C801.154 355.614 802.332 356.119 803.791 356.119C804.913 356.119 805.848 355.857 806.596 355.334C807.344 354.81 807.859 354.062 808.139 353.09H810.888C810.477 354.661 809.654 355.923 808.42 356.877C807.185 357.812 805.642 358.279 803.791 358.279C802.332 358.279 801.033 357.952 799.892 357.297C798.77 356.643 797.891 355.717 797.255 354.52C796.619 353.323 796.301 351.921 796.301 350.312ZM816.987 344.758V353.819C816.987 354.567 817.146 355.1 817.464 355.418C817.782 355.717 818.334 355.867 819.119 355.867H820.999V358.027H818.699C817.277 358.027 816.211 357.7 815.501 357.045C814.79 356.39 814.435 355.315 814.435 353.819V344.758H812.443V342.654H814.435V338.783H816.987V342.654H820.999V344.758H816.987ZM837.305 342.654V358.027H834.752V355.755C834.266 356.54 833.583 357.157 832.704 357.606C831.844 358.036 830.89 358.251 829.843 358.251C828.646 358.251 827.57 358.008 826.617 357.522C825.663 357.017 824.905 356.269 824.344 355.278C823.802 354.287 823.531 353.08 823.531 351.659V342.654H826.056V351.322C826.056 352.837 826.439 354.006 827.206 354.829C827.972 355.633 829.02 356.035 830.348 356.035C831.713 356.035 832.788 355.614 833.574 354.773C834.359 353.931 834.752 352.706 834.752 351.098V342.654H837.305ZM843.747 345.151C844.196 344.272 844.831 343.589 845.654 343.103C846.496 342.617 847.515 342.374 848.712 342.374V345.011H848.039C845.177 345.011 843.747 346.563 843.747 349.667V358.027H841.194V342.654H843.747V345.151ZM865.264 349.751C865.264 350.238 865.236 350.752 865.18 351.294H852.893C852.987 352.809 853.501 353.997 854.436 354.857C855.39 355.699 856.54 356.119 857.886 356.119C858.99 356.119 859.906 355.867 860.635 355.362C861.384 354.838 861.907 354.146 862.206 353.286H864.956C864.544 354.763 863.721 355.97 862.487 356.905C861.253 357.821 859.719 358.279 857.886 358.279C856.428 358.279 855.119 357.952 853.959 357.297C852.818 356.643 851.921 355.717 851.266 354.52C850.611 353.305 850.284 351.902 850.284 350.312C850.284 348.723 850.602 347.33 851.238 346.133C851.874 344.936 852.762 344.019 853.903 343.384C855.062 342.729 856.39 342.402 857.886 342.402C859.345 342.402 860.635 342.72 861.758 343.356C862.88 343.991 863.74 344.87 864.338 345.992C864.956 347.096 865.264 348.349 865.264 349.751ZM862.627 349.218C862.627 348.246 862.412 347.414 861.982 346.722C861.552 346.011 860.963 345.478 860.215 345.123C859.485 344.749 858.672 344.562 857.774 344.562C856.484 344.562 855.38 344.973 854.464 345.796C853.566 346.619 853.052 347.76 852.921 349.218H862.627ZM873.655 358.279C872.477 358.279 871.42 358.083 870.485 357.69C869.55 357.279 868.811 356.718 868.269 356.007C867.727 355.278 867.427 354.446 867.371 353.51H870.008C870.083 354.277 870.438 354.904 871.074 355.39C871.729 355.876 872.58 356.119 873.627 356.119C874.599 356.119 875.366 355.904 875.927 355.474C876.488 355.044 876.769 354.502 876.769 353.847C876.769 353.174 876.47 352.678 875.871 352.36C875.273 352.024 874.347 351.696 873.094 351.378C871.953 351.079 871.018 350.78 870.289 350.481C869.578 350.163 868.961 349.705 868.437 349.106C867.932 348.489 867.68 347.685 867.68 346.694C867.68 345.908 867.914 345.188 868.381 344.534C868.849 343.879 869.513 343.365 870.373 342.991C871.233 342.598 872.215 342.402 873.318 342.402C875.02 342.402 876.395 342.832 877.442 343.692C878.489 344.552 879.05 345.731 879.125 347.227H876.572C876.516 346.423 876.189 345.777 875.591 345.291C875.011 344.805 874.225 344.562 873.234 344.562C872.318 344.562 871.589 344.758 871.046 345.151C870.504 345.544 870.233 346.058 870.233 346.694C870.233 347.199 870.392 347.619 870.71 347.956C871.046 348.274 871.458 348.536 871.944 348.742C872.449 348.929 873.141 349.144 874.02 349.387C875.123 349.686 876.021 349.985 876.713 350.284C877.405 350.565 877.994 350.995 878.48 351.575C878.985 352.155 879.247 352.912 879.265 353.847C879.265 354.689 879.032 355.446 878.564 356.119C878.097 356.793 877.433 357.326 876.572 357.718C875.731 358.092 874.758 358.279 873.655 358.279Z" fill="white"/>
<path d="M96.7609 412.481L92.1042 404.487H89.0185V412.481H86.4657V392.929H92.7775C94.2549 392.929 95.4985 393.181 96.5084 393.686C97.537 394.191 98.3038 394.874 98.8087 395.734C99.3136 396.594 99.5661 397.576 99.5661 398.68C99.5661 400.026 99.1734 401.214 98.3879 402.242C97.6212 403.271 96.4617 403.954 94.9094 404.29L99.8186 412.481H96.7609ZM89.0185 402.439H92.7775C94.1614 402.439 95.1993 402.102 95.8913 401.429C96.5832 400.737 96.9292 399.821 96.9292 398.68C96.9292 397.52 96.5832 396.623 95.8913 395.987C95.218 395.351 94.1801 395.033 92.7775 395.033H89.0185V402.439ZM111.976 412.678C110.162 412.678 108.507 412.257 107.011 411.415C105.515 410.555 104.327 409.368 103.449 407.853C102.588 406.319 102.158 404.599 102.158 402.691C102.158 400.784 102.588 399.072 103.449 397.558C104.327 396.024 105.515 394.837 107.011 393.995C108.507 393.135 110.162 392.705 111.976 392.705C113.809 392.705 115.474 393.135 116.97 393.995C118.466 394.837 119.644 396.015 120.504 397.53C121.365 399.044 121.795 400.765 121.795 402.691C121.795 404.617 121.365 406.338 120.504 407.853C119.644 409.368 118.466 410.555 116.97 411.415C115.474 412.257 113.809 412.678 111.976 412.678ZM111.976 410.462C113.342 410.462 114.567 410.144 115.651 409.508C116.755 408.872 117.615 407.965 118.232 406.787C118.868 405.609 119.186 404.243 119.186 402.691C119.186 401.12 118.868 399.755 118.232 398.596C117.615 397.417 116.764 396.51 115.679 395.874C114.595 395.239 113.36 394.921 111.976 394.921C110.592 394.921 109.358 395.239 108.274 395.874C107.189 396.51 106.329 397.417 105.693 398.596C105.076 399.755 104.767 401.12 104.767 402.691C104.767 404.243 105.076 405.609 105.693 406.787C106.329 407.965 107.189 408.872 108.274 409.508C109.377 410.144 110.611 410.462 111.976 410.462ZM140.902 392.929L133.524 412.481H130.579L123.201 392.929H125.922L132.066 409.788L138.209 392.929H140.902ZM163.113 393.069V412.481H160.561V398.006L154.109 412.481H152.313L145.833 397.978V412.481H143.28V393.069H146.029L153.211 409.115L160.392 393.069H163.113ZM166.068 404.739C166.068 403.168 166.386 401.794 167.022 400.615C167.658 399.418 168.527 398.493 169.631 397.838C170.753 397.184 171.996 396.856 173.362 396.856C174.708 396.856 175.877 397.146 176.868 397.726C177.859 398.306 178.598 399.035 179.084 399.914V397.109H181.665V412.481H179.084V409.62C178.579 410.518 177.822 411.266 176.812 411.864C175.821 412.444 174.661 412.734 173.334 412.734C171.968 412.734 170.734 412.397 169.631 411.724C168.527 411.051 167.658 410.106 167.022 408.891C166.386 407.675 166.068 406.291 166.068 404.739ZM179.084 404.767C179.084 403.608 178.851 402.598 178.383 401.737C177.915 400.877 177.28 400.223 176.475 399.774C175.69 399.306 174.82 399.072 173.867 399.072C172.913 399.072 172.043 399.297 171.258 399.746C170.472 400.195 169.846 400.849 169.378 401.709C168.911 402.57 168.677 403.58 168.677 404.739C168.677 405.917 168.911 406.946 169.378 407.825C169.846 408.685 170.472 409.349 171.258 409.816C172.043 410.265 172.913 410.49 173.867 410.49C174.82 410.49 175.69 410.265 176.475 409.816C177.28 409.349 177.915 408.685 178.383 407.825C178.851 406.946 179.084 405.927 179.084 404.767ZM193.048 396.828C194.918 396.828 196.433 397.399 197.593 398.539C198.752 399.662 199.332 401.289 199.332 403.421V412.481H196.807V403.785C196.807 402.252 196.424 401.083 195.657 400.279C194.89 399.456 193.843 399.044 192.515 399.044C191.169 399.044 190.093 399.465 189.289 400.307C188.504 401.148 188.111 402.373 188.111 403.982V412.481H185.558V397.109H188.111V399.297C188.616 398.511 189.299 397.904 190.159 397.473C191.038 397.043 192.001 396.828 193.048 396.828ZM204.4 394.612C203.913 394.612 203.502 394.444 203.165 394.107C202.829 393.771 202.66 393.359 202.66 392.873C202.66 392.387 202.829 391.975 203.165 391.639C203.502 391.302 203.913 391.134 204.4 391.134C204.867 391.134 205.26 391.302 205.578 391.639C205.914 391.975 206.083 392.387 206.083 392.873C206.083 393.359 205.914 393.771 205.578 394.107C205.26 394.444 204.867 394.612 204.4 394.612ZM205.634 397.109V412.481H203.081V397.109H205.634ZM208.61 404.739C208.61 403.168 208.928 401.794 209.564 400.615C210.2 399.418 211.069 398.493 212.173 397.838C213.295 397.184 214.538 396.856 215.904 396.856C217.25 396.856 218.419 397.146 219.41 397.726C220.401 398.306 221.14 399.035 221.626 399.914V397.109H224.207V412.481H221.626V409.62C221.121 410.518 220.364 411.266 219.354 411.864C218.363 412.444 217.203 412.734 215.876 412.734C214.51 412.734 213.276 412.397 212.173 411.724C211.069 411.051 210.2 410.106 209.564 408.891C208.928 407.675 208.61 406.291 208.61 404.739ZM221.626 404.767C221.626 403.608 221.393 402.598 220.925 401.737C220.457 400.877 219.822 400.223 219.017 399.774C218.232 399.306 217.362 399.072 216.409 399.072C215.455 399.072 214.585 399.297 213.8 399.746C213.014 400.195 212.388 400.849 211.92 401.709C211.453 402.57 211.219 403.58 211.219 404.739C211.219 405.917 211.453 406.946 211.92 407.825C212.388 408.685 213.014 409.349 213.8 409.816C214.585 410.265 215.455 410.49 216.409 410.49C217.362 410.49 218.232 410.265 219.017 409.816C219.822 409.349 220.457 408.685 220.925 407.825C221.393 406.946 221.626 405.927 221.626 404.767Z" fill="white"/>
<path d="M767.638 457.146C767.638 455.238 768.069 453.527 768.929 452.012C769.789 450.479 770.958 449.282 772.435 448.422C773.931 447.561 775.587 447.131 777.401 447.131C779.533 447.131 781.393 447.645 782.983 448.674C784.573 449.703 785.732 451.161 786.461 453.05H783.404C782.861 451.872 782.076 450.965 781.047 450.329C780.037 449.693 778.822 449.375 777.401 449.375C776.035 449.375 774.81 449.693 773.726 450.329C772.641 450.965 771.79 451.872 771.173 453.05C770.556 454.21 770.247 455.575 770.247 457.146C770.247 458.698 770.556 460.063 771.173 461.241C771.79 462.401 772.641 463.299 773.726 463.934C774.81 464.57 776.035 464.888 777.401 464.888C778.822 464.888 780.037 464.58 781.047 463.962C782.076 463.327 782.861 462.42 783.404 461.241H786.461C785.732 463.112 784.573 464.561 782.983 465.59C781.393 466.599 779.533 467.104 777.401 467.104C775.587 467.104 773.931 466.684 772.435 465.842C770.958 464.982 769.789 463.794 768.929 462.279C768.069 460.765 767.638 459.053 767.638 457.146ZM792.393 446.177V466.936H789.841V446.177H792.393ZM803.028 467.189C801.588 467.189 800.279 466.861 799.101 466.207C797.941 465.552 797.025 464.626 796.351 463.429C795.697 462.214 795.37 460.811 795.37 459.222C795.37 457.651 795.706 456.267 796.379 455.07C797.071 453.854 798.007 452.929 799.185 452.293C800.363 451.638 801.681 451.311 803.14 451.311C804.599 451.311 805.917 451.638 807.095 452.293C808.274 452.929 809.199 453.845 809.873 455.042C810.565 456.239 810.911 457.632 810.911 459.222C810.911 460.811 810.555 462.214 809.845 463.429C809.153 464.626 808.208 465.552 807.011 466.207C805.814 466.861 804.487 467.189 803.028 467.189ZM803.028 464.944C803.944 464.944 804.805 464.729 805.609 464.299C806.413 463.869 807.058 463.224 807.544 462.364C808.049 461.503 808.302 460.456 808.302 459.222C808.302 457.987 808.059 456.94 807.572 456.08C807.086 455.22 806.45 454.584 805.665 454.172C804.879 453.742 804.028 453.527 803.112 453.527C802.177 453.527 801.317 453.742 800.531 454.172C799.764 454.584 799.147 455.22 798.68 456.08C798.212 456.94 797.978 457.987 797.978 459.222C797.978 460.475 798.203 461.531 798.652 462.392C799.119 463.252 799.736 463.897 800.503 464.327C801.27 464.739 802.112 464.944 803.028 464.944ZM819.288 467.189C818.11 467.189 817.054 466.992 816.118 466.599C815.183 466.188 814.445 465.627 813.902 464.916C813.36 464.187 813.061 463.355 813.005 462.42H815.642C815.716 463.186 816.072 463.813 816.708 464.299C817.362 464.785 818.213 465.028 819.26 465.028C820.233 465.028 821 464.813 821.561 464.383C822.122 463.953 822.402 463.411 822.402 462.756C822.402 462.083 822.103 461.587 821.504 461.269C820.906 460.933 819.98 460.606 818.727 460.288C817.587 459.988 816.651 459.689 815.922 459.39C815.211 459.072 814.594 458.614 814.071 458.015C813.566 457.398 813.313 456.594 813.313 455.603C813.313 454.817 813.547 454.097 814.015 453.443C814.482 452.788 815.146 452.274 816.006 451.9C816.867 451.507 817.848 451.311 818.952 451.311C820.654 451.311 822.028 451.741 823.075 452.601C824.123 453.462 824.684 454.64 824.759 456.136H822.206C822.15 455.332 821.822 454.687 821.224 454.2C820.644 453.714 819.859 453.471 818.868 453.471C817.951 453.471 817.222 453.667 816.679 454.06C816.137 454.453 815.866 454.967 815.866 455.603C815.866 456.108 816.025 456.529 816.343 456.865C816.679 457.183 817.091 457.445 817.577 457.651C818.082 457.838 818.774 458.053 819.653 458.296C820.756 458.595 821.654 458.894 822.346 459.194C823.038 459.474 823.627 459.904 824.113 460.484C824.618 461.064 824.88 461.821 824.899 462.756C824.899 463.598 824.665 464.355 824.198 465.028C823.73 465.702 823.066 466.235 822.206 466.627C821.364 467.001 820.392 467.189 819.288 467.189ZM829.4 449.067C828.914 449.067 828.502 448.898 828.166 448.562C827.829 448.225 827.661 447.814 827.661 447.327C827.661 446.841 827.829 446.43 828.166 446.093C828.502 445.757 828.914 445.588 829.4 445.588C829.868 445.588 830.26 445.757 830.578 446.093C830.915 446.43 831.083 446.841 831.083 447.327C831.083 447.814 830.915 448.225 830.578 448.562C830.26 448.898 829.868 449.067 829.4 449.067ZM830.634 451.563V466.936H828.082V451.563H830.634ZM842.054 451.283C843.924 451.283 845.439 451.853 846.599 452.994C847.758 454.116 848.338 455.743 848.338 457.875V466.936H845.813V458.24C845.813 456.706 845.43 455.537 844.663 454.733C843.896 453.91 842.849 453.499 841.521 453.499C840.175 453.499 839.099 453.92 838.295 454.761C837.51 455.603 837.117 456.828 837.117 458.436V466.936H834.564V451.563H837.117V453.751C837.622 452.966 838.305 452.358 839.165 451.928C840.044 451.498 841.007 451.283 842.054 451.283ZM858.427 451.311C859.755 451.311 860.914 451.601 861.906 452.181C862.915 452.76 863.663 453.49 864.15 454.369V451.563H866.73V467.273C866.73 468.675 866.431 469.919 865.833 471.004C865.234 472.107 864.374 472.967 863.252 473.584C862.149 474.202 860.858 474.51 859.381 474.51C857.361 474.51 855.678 474.033 854.331 473.079C852.985 472.126 852.19 470.826 851.947 469.18H854.472C854.752 470.115 855.332 470.863 856.211 471.424C857.09 472.004 858.146 472.294 859.381 472.294C860.783 472.294 861.924 471.855 862.803 470.976C863.701 470.097 864.15 468.862 864.15 467.273V464.047C863.645 464.944 862.897 465.692 861.906 466.291C860.914 466.889 859.755 467.189 858.427 467.189C857.062 467.189 855.818 466.852 854.696 466.179C853.593 465.505 852.723 464.561 852.087 463.345C851.451 462.13 851.133 460.746 851.133 459.194C851.133 457.623 851.451 456.248 852.087 455.07C852.723 453.873 853.593 452.947 854.696 452.293C855.818 451.638 857.062 451.311 858.427 451.311ZM864.15 459.222C864.15 458.062 863.916 457.052 863.448 456.192C862.981 455.332 862.345 454.677 861.541 454.228C860.755 453.761 859.886 453.527 858.932 453.527C857.978 453.527 857.109 453.751 856.323 454.2C855.538 454.649 854.911 455.304 854.444 456.164C853.976 457.024 853.742 458.034 853.742 459.194C853.742 460.372 853.976 461.4 854.444 462.279C854.911 463.14 855.538 463.804 856.323 464.271C857.109 464.72 857.978 464.944 858.932 464.944C859.886 464.944 860.755 464.72 861.541 464.271C862.345 463.804 862.981 463.14 863.448 462.279C863.916 461.4 864.15 460.381 864.15 459.222ZM876.728 457.146C876.728 455.238 877.158 453.527 878.018 452.012C878.879 450.479 880.047 449.282 881.525 448.422C883.021 447.561 884.676 447.131 886.49 447.131C888.622 447.131 890.483 447.645 892.072 448.674C893.662 449.703 894.822 451.161 895.551 453.05H892.493C891.951 451.872 891.165 450.965 890.137 450.329C889.127 449.693 887.911 449.375 886.49 449.375C885.125 449.375 883.9 449.693 882.815 450.329C881.731 450.965 880.88 451.872 880.262 453.05C879.645 454.21 879.337 455.575 879.337 457.146C879.337 458.698 879.645 460.063 880.262 461.241C880.88 462.401 881.731 463.299 882.815 463.934C883.9 464.57 885.125 464.888 886.49 464.888C887.911 464.888 889.127 464.58 890.137 463.962C891.165 463.327 891.951 462.42 892.493 461.241H895.551C894.822 463.112 893.662 464.561 892.072 465.59C890.483 466.599 888.622 467.104 886.49 467.104C884.676 467.104 883.021 466.684 881.525 465.842C880.047 464.982 878.879 463.794 878.018 462.279C877.158 460.765 876.728 459.053 876.728 457.146ZM912.956 458.661C912.956 459.147 912.928 459.661 912.872 460.203H900.585C900.679 461.718 901.193 462.906 902.128 463.766C903.082 464.608 904.232 465.028 905.579 465.028C906.682 465.028 907.598 464.776 908.328 464.271C909.076 463.747 909.599 463.055 909.899 462.195H912.648C912.236 463.673 911.413 464.879 910.179 465.814C908.945 466.73 907.411 467.189 905.579 467.189C904.12 467.189 902.811 466.861 901.651 466.207C900.51 465.552 899.613 464.626 898.958 463.429C898.304 462.214 897.976 460.811 897.976 459.222C897.976 457.632 898.294 456.239 898.93 455.042C899.566 453.845 900.454 452.929 901.595 452.293C902.755 451.638 904.082 451.311 905.579 451.311C907.037 451.311 908.328 451.629 909.45 452.265C910.572 452.901 911.432 453.78 912.031 454.902C912.648 456.005 912.956 457.258 912.956 458.661ZM910.319 458.128C910.319 457.155 910.104 456.323 909.674 455.631C909.244 454.92 908.655 454.387 907.907 454.032C907.178 453.658 906.364 453.471 905.466 453.471C904.176 453.471 903.073 453.882 902.156 454.705C901.258 455.528 900.744 456.669 900.613 458.128H910.319ZM918.458 454.06C918.907 453.181 919.543 452.498 920.365 452.012C921.207 451.526 922.226 451.283 923.423 451.283V453.92H922.75C919.889 453.92 918.458 455.472 918.458 458.576V466.936H915.905V451.563H918.458V454.06ZM939.975 458.661C939.975 459.147 939.947 459.661 939.891 460.203H927.604C927.698 461.718 928.212 462.906 929.147 463.766C930.101 464.608 931.251 465.028 932.598 465.028C933.701 465.028 934.617 464.776 935.347 464.271C936.095 463.747 936.618 463.055 936.918 462.195H939.667C939.255 463.673 938.432 464.879 937.198 465.814C935.964 466.73 934.43 467.189 932.598 467.189C931.139 467.189 929.83 466.861 928.67 466.207C927.529 465.552 926.632 464.626 925.977 463.429C925.323 462.214 924.995 460.811 924.995 459.222C924.995 457.632 925.313 456.239 925.949 455.042C926.585 453.845 927.473 452.929 928.614 452.293C929.774 451.638 931.101 451.311 932.598 451.311C934.056 451.311 935.347 451.629 936.469 452.265C937.591 452.901 938.451 453.78 939.05 454.902C939.667 456.005 939.975 457.258 939.975 458.661ZM937.338 458.128C937.338 457.155 937.123 456.323 936.693 455.631C936.263 454.92 935.674 454.387 934.926 454.032C934.196 453.658 933.383 453.471 932.485 453.471C931.195 453.471 930.092 453.882 929.175 454.705C928.277 455.528 927.763 456.669 927.632 458.128H937.338ZM961.411 451.283C962.607 451.283 963.673 451.535 964.608 452.04C965.544 452.527 966.282 453.265 966.825 454.256C967.367 455.248 967.638 456.454 967.638 457.875V466.936H965.113V458.24C965.113 456.706 964.73 455.537 963.963 454.733C963.215 453.91 962.196 453.499 960.906 453.499C959.578 453.499 958.521 453.929 957.736 454.789C956.95 455.631 956.557 456.856 956.557 458.464V466.936H954.033V458.24C954.033 456.706 953.649 455.537 952.883 454.733C952.135 453.91 951.115 453.499 949.825 453.499C948.497 453.499 947.44 453.929 946.655 454.789C945.87 455.631 945.477 456.856 945.477 458.464V466.936H942.924V451.563H945.477V453.78C945.982 452.975 946.655 452.358 947.497 451.928C948.357 451.498 949.301 451.283 950.33 451.283C951.62 451.283 952.761 451.573 953.752 452.152C954.743 452.732 955.482 453.583 955.968 454.705C956.399 453.621 957.109 452.779 958.1 452.181C959.092 451.582 960.195 451.283 961.411 451.283ZM978.109 467.189C976.669 467.189 975.36 466.861 974.182 466.207C973.022 465.552 972.106 464.626 971.433 463.429C970.778 462.214 970.451 460.811 970.451 459.222C970.451 457.651 970.788 456.267 971.461 455.07C972.153 453.854 973.088 452.929 974.266 452.293C975.444 451.638 976.763 451.311 978.222 451.311C979.68 451.311 980.999 451.638 982.177 452.293C983.355 452.929 984.281 453.845 984.954 455.042C985.646 456.239 985.992 457.632 985.992 459.222C985.992 460.811 985.637 462.214 984.926 463.429C984.234 464.626 983.29 465.552 982.093 466.207C980.896 466.861 979.568 467.189 978.109 467.189ZM978.109 464.944C979.026 464.944 979.886 464.729 980.69 464.299C981.494 463.869 982.139 463.224 982.626 462.364C983.131 461.503 983.383 460.456 983.383 459.222C983.383 457.987 983.14 456.94 982.654 456.08C982.168 455.22 981.532 454.584 980.746 454.172C979.961 453.742 979.11 453.527 978.193 453.527C977.258 453.527 976.398 453.742 975.613 454.172C974.846 454.584 974.229 455.22 973.761 456.08C973.294 456.94 973.06 457.987 973.06 459.222C973.06 460.475 973.284 461.531 973.733 462.392C974.201 463.252 974.818 463.897 975.585 464.327C976.351 464.739 977.193 464.944 978.109 464.944ZM996.418 451.283C998.288 451.283 999.803 451.853 1000.96 452.994C1002.12 454.116 1002.7 455.743 1002.7 457.875V466.936H1000.18V458.24C1000.18 456.706 999.793 455.537 999.026 454.733C998.26 453.91 997.212 453.499 995.885 453.499C994.538 453.499 993.463 453.92 992.659 454.761C991.873 455.603 991.48 456.828 991.48 458.436V466.936H988.928V451.563H991.48V453.751C991.985 452.966 992.668 452.358 993.528 451.928C994.407 451.498 995.37 451.283 996.418 451.283ZM1019.69 451.563L1010.43 474.174H1007.8L1010.83 466.768L1004.63 451.563H1007.46L1012.29 464.019L1017.05 451.563H1019.69Z" fill="white"/>
<path d="M777.457 412.678C775.643 412.678 773.988 412.257 772.491 411.415C770.995 410.555 769.808 409.368 768.929 407.853C768.069 406.319 767.638 404.599 767.638 402.691C767.638 400.784 768.069 399.072 768.929 397.558C769.808 396.024 770.995 394.837 772.491 393.995C773.988 393.135 775.643 392.705 777.457 392.705C779.289 392.705 780.954 393.135 782.45 393.995C783.946 394.837 785.124 396.015 785.985 397.53C786.845 399.044 787.275 400.765 787.275 402.691C787.275 404.617 786.845 406.338 785.985 407.853C785.124 409.368 783.946 410.555 782.45 411.415C780.954 412.257 779.289 412.678 777.457 412.678ZM777.457 410.462C778.822 410.462 780.047 410.144 781.132 409.508C782.235 408.872 783.095 407.965 783.712 406.787C784.348 405.609 784.666 404.243 784.666 402.691C784.666 401.12 784.348 399.755 783.712 398.596C783.095 397.417 782.244 396.51 781.16 395.874C780.075 395.239 778.841 394.921 777.457 394.921C776.073 394.921 774.838 395.239 773.754 395.874C772.669 396.51 771.809 397.417 771.173 398.596C770.556 399.755 770.247 401.12 770.247 402.691C770.247 404.243 770.556 405.609 771.173 406.787C771.809 407.965 772.669 408.872 773.754 409.508C774.857 410.144 776.091 410.462 777.457 410.462ZM792.777 395.005V401.541H799.902V403.645H792.777V410.378H800.744V412.481H790.224V392.901H800.744V395.005H792.777ZM817.499 399.213H814.273V412.481H811.721V399.213H809.729V397.109H811.721V396.015C811.721 394.294 812.16 393.041 813.039 392.256C813.937 391.452 815.367 391.049 817.331 391.049V393.181C816.209 393.181 815.414 393.406 814.947 393.855C814.498 394.285 814.273 395.005 814.273 396.015V397.109H817.499V399.213ZM826.759 412.734C825.319 412.734 824.01 412.407 822.832 411.752C821.673 411.098 820.756 410.172 820.083 408.975C819.428 407.759 819.101 406.357 819.101 404.767C819.101 403.196 819.438 401.812 820.111 400.615C820.803 399.4 821.738 398.474 822.916 397.838C824.095 397.184 825.413 396.856 826.872 396.856C828.33 396.856 829.649 397.184 830.827 397.838C832.005 398.474 832.931 399.39 833.604 400.587C834.296 401.784 834.642 403.177 834.642 404.767C834.642 406.357 834.287 407.759 833.576 408.975C832.884 410.172 831.94 411.098 830.743 411.752C829.546 412.407 828.218 412.734 826.759 412.734ZM826.759 410.49C827.676 410.49 828.536 410.275 829.34 409.845C830.144 409.414 830.79 408.769 831.276 407.909C831.781 407.049 832.033 406.001 832.033 404.767C832.033 403.533 831.79 402.485 831.304 401.625C830.818 400.765 830.182 400.129 829.396 399.718C828.611 399.288 827.76 399.072 826.844 399.072C825.909 399.072 825.048 399.288 824.263 399.718C823.496 400.129 822.879 400.765 822.411 401.625C821.944 402.485 821.71 403.533 821.71 404.767C821.71 406.02 821.934 407.077 822.383 407.937C822.851 408.797 823.468 409.442 824.235 409.873C825.002 410.284 825.843 410.49 826.759 410.49ZM840.131 399.605C840.579 398.726 841.215 398.044 842.038 397.558C842.88 397.071 843.899 396.828 845.096 396.828V399.465H844.423C841.561 399.465 840.131 401.017 840.131 404.122V412.481H837.578V397.109H840.131V399.605ZM865.284 412.481L857.233 403.561V412.481H854.68V392.929H857.233V401.99L865.312 392.929H868.538L859.673 402.719L868.622 412.481H865.284ZM872.371 394.612C871.884 394.612 871.473 394.444 871.136 394.107C870.8 393.771 870.631 393.359 870.631 392.873C870.631 392.387 870.8 391.975 871.136 391.639C871.473 391.302 871.884 391.134 872.371 391.134C872.838 391.134 873.231 391.302 873.549 391.639C873.885 391.975 874.054 392.387 874.054 392.873C874.054 393.359 873.885 393.771 873.549 394.107C873.231 394.444 872.838 394.612 872.371 394.612ZM873.605 397.109V412.481H871.052V397.109H873.605ZM876.581 404.739C876.581 403.168 876.899 401.794 877.535 400.615C878.171 399.418 879.04 398.493 880.144 397.838C881.266 397.184 882.519 396.856 883.903 396.856C885.1 396.856 886.212 397.137 887.241 397.698C888.269 398.24 889.055 398.96 889.597 399.858V391.723H892.178V412.481H889.597V409.592C889.092 410.508 888.344 411.266 887.353 411.864C886.362 412.444 885.202 412.734 883.875 412.734C882.509 412.734 881.266 412.397 880.144 411.724C879.04 411.051 878.171 410.106 877.535 408.891C876.899 407.675 876.581 406.291 876.581 404.739ZM889.597 404.767C889.597 403.608 889.364 402.598 888.896 401.737C888.428 400.877 887.793 400.223 886.988 399.774C886.203 399.306 885.333 399.072 884.38 399.072C883.426 399.072 882.556 399.297 881.771 399.746C880.985 400.195 880.359 400.849 879.891 401.709C879.424 402.57 879.19 403.58 879.19 404.739C879.19 405.917 879.424 406.946 879.891 407.825C880.359 408.685 880.985 409.349 881.771 409.816C882.556 410.265 883.426 410.49 884.38 410.49C885.333 410.49 886.203 410.265 886.988 409.816C887.793 409.349 888.428 408.685 888.896 407.825C889.364 406.946 889.597 405.927 889.597 404.767ZM901.513 412.734C900.335 412.734 899.279 412.538 898.343 412.145C897.408 411.733 896.67 411.172 896.127 410.462C895.585 409.732 895.286 408.9 895.23 407.965H897.867C897.941 408.732 898.297 409.358 898.933 409.845C899.587 410.331 900.438 410.574 901.485 410.574C902.458 410.574 903.225 410.359 903.786 409.929C904.347 409.499 904.627 408.956 904.627 408.302C904.627 407.628 904.328 407.133 903.73 406.815C903.131 406.478 902.205 406.151 900.952 405.833C899.812 405.534 898.876 405.235 898.147 404.935C897.436 404.617 896.819 404.159 896.296 403.561C895.791 402.944 895.538 402.139 895.538 401.148C895.538 400.363 895.772 399.643 896.24 398.988C896.707 398.334 897.371 397.819 898.231 397.445C899.092 397.053 900.073 396.856 901.177 396.856C902.879 396.856 904.253 397.286 905.3 398.147C906.348 399.007 906.909 400.185 906.984 401.681H904.431C904.375 400.877 904.047 400.232 903.449 399.746C902.869 399.259 902.084 399.016 901.093 399.016C900.176 399.016 899.447 399.213 898.905 399.605C898.362 399.998 898.091 400.512 898.091 401.148C898.091 401.653 898.25 402.074 898.568 402.411C898.905 402.729 899.316 402.99 899.802 403.196C900.307 403.383 900.999 403.598 901.878 403.841C902.981 404.141 903.879 404.44 904.571 404.739C905.263 405.02 905.852 405.45 906.338 406.029C906.843 406.609 907.105 407.367 907.124 408.302C907.124 409.143 906.89 409.901 906.423 410.574C905.955 411.247 905.291 411.78 904.431 412.173C903.589 412.547 902.617 412.734 901.513 412.734Z" fill="white"/>
<circle cx="59.9663" cy="183.578" r="6.18801" fill="#D9D9D9"/>
<circle cx="742.092" cy="183.578" r="6.18801" fill="#D9D9D9"/>
<circle cx="59.9663" cy="239.682" r="6.18801" fill="#D9D9D9"/>
<circle cx="742.092" cy="239.682" r="6.18801" fill="#D9D9D9"/>
<circle cx="59.9663" cy="294.137" r="6.18801" fill="#D9D9D9"/>
<circle cx="742.092" cy="294.137" r="6.18801" fill="#D9D9D9"/>
<circle cx="59.9663" cy="348.591" r="6.18801" fill="#D9D9D9"/>
<circle cx="742.092" cy="348.591" r="6.18801" fill="#D9D9D9"/>
<circle cx="59.9663" cy="404.696" r="6.18801" fill="#D9D9D9"/>
<circle cx="742.092" cy="404.696" r="6.18801" fill="#D9D9D9"/>
<circle cx="742.092" cy="457.5" r="6.18801" fill="#D9D9D9"/>
<path d="M60.3789 183.99V405.108" stroke="#D9D9D9" stroke-width="2.06267"/>
<path d="M742.505 183.99V457.087" stroke="#D9D9D9" stroke-width="2.06267"/>
<defs>
<filter id="filter0_d_118_254" x="0.148783" y="60.23" width="429.035" height="433.161" filterUnits="userSpaceOnUse" color-interpolation-filters="sRGB">
<feFlood flood-opacity="0" result="BackgroundImageFix"/>
<feColorMatrix in="SourceAlpha" type="matrix" values="0 0 0 0 0 0 0 0 0 0 0 0 0 0 0 0 0 0 127 0" result="hardAlpha"/>
<feOffset dy="14.8512"/>
<feGaussianBlur stdDeviation="7.42561"/>
<feComposite in2="hardAlpha" operator="out"/>
<feColorMatrix type="matrix" values="0 0 0 0 0 0 0 0 0 0 0 0 0 0 0 0 0 0 0.25 0"/>
<feBlend mode="normal" in2="BackgroundImageFix" result="effect1_dropShadow_118_254"/>
<feBlend mode="normal" in="SourceGraphic" in2="effect1_dropShadow_118_254" result="shape"/>
</filter>
<filter id="filter1_d_118_254" x="673.2" y="60.23" width="429.035" height="495.866" filterUnits="userSpaceOnUse" color-interpolation-filters="sRGB">
<feFlood flood-opacity="0" result="BackgroundImageFix"/>
<feColorMatrix in="SourceAlpha" type="matrix" values="0 0 0 0 0 0 0 0 0 0 0 0 0 0 0 0 0 0 127 0" result="hardAlpha"/>
<feOffset dy="14.8512"/>
<feGaussianBlur stdDeviation="7.42561"/>
<feComposite in2="hardAlpha" operator="out"/>
<feColorMatrix type="matrix" values="0 0 0 0 0 0 0 0 0 0 0 0 0 0 0 0 0 0 0.25 0"/>
<feBlend mode="normal" in2="BackgroundImageFix" result="effect1_dropShadow_118_254"/>
<feBlend mode="normal" in="SourceGraphic" in2="effect1_dropShadow_118_254" result="shape"/>
</filter>
<linearGradient id="paint0_linear_118_254" x1="887.717" y1="60.23" x2="887.717" y2="526.393" gradientUnits="userSpaceOnUse">
<stop stop-color="#27285A"/>
<stop offset="1" stop-color="#27285A"/>
</linearGradient>
</defs>
</svg>
