<svg width="1471" height="679" viewBox="0 0 1471 679" fill="none" xmlns="http://www.w3.org/2000/svg">
<path opacity="0.35" d="M1400 679L1117.4 0H916L1060.55 679H1400Z" fill="url(#paint0_linear_101_226)"/>
<path opacity="0.35" d="M96 679L414.221 7H641L478.232 679H96Z" fill="url(#paint1_linear_101_226)"/>
<path opacity="0.35" d="M1897 679L1341.96 0H1229L1492.1 679H1897Z" fill="url(#paint2_linear_101_226)"/>
<path opacity="0.35" d="M-463 679L161.006 7H288L-7.78635 679H-463Z" fill="url(#paint3_linear_101_226)"/>
<path opacity="0.35" d="M-39 658L349.5 4H385.5L27 658H-39Z" fill="url(#paint4_linear_101_226)"/>
<circle opacity="0.25" cx="284" cy="73" r="5" fill="white"/>
<circle opacity="0.25" cx="969" cy="165" r="5" fill="white"/>
<circle opacity="0.25" cx="504" cy="114" r="5" fill="white"/>
<circle opacity="0.25" cx="802" cy="226" r="5" fill="white"/>
<circle opacity="0.25" cx="1405" cy="94" r="5" fill="white"/>
<circle opacity="0.25" cx="921" cy="366" r="5" fill="white"/>
<circle opacity="0.25" cx="742" cy="130" r="5" fill="white"/>
<circle opacity="0.25" cx="62" cy="209" r="5" fill="white"/>
<defs>
<linearGradient id="paint0_linear_101_226" x1="962.021" y1="-198.695" x2="1328.68" y2="554.323" gradientUnits="userSpaceOnUse">
<stop stop-color="#D9D9D9" stop-opacity="0.14"/>
<stop offset="1" stop-color="#D9D9D9" stop-opacity="0"/>
</linearGradient>
<linearGradient id="paint1_linear_101_226" x1="589.179" y1="-189.646" x2="255.694" y2="589.584" gradientUnits="userSpaceOnUse">
<stop stop-color="#D9D9D9" stop-opacity="0.14"/>
<stop offset="1" stop-color="#D9D9D9" stop-opacity="0"/>
</linearGradient>
<linearGradient id="paint2_linear_101_226" x1="1275.05" y1="-198.695" x2="1641.56" y2="554.526" gradientUnits="userSpaceOnUse">
<stop stop-color="#D9D9D9" stop-opacity="0.14"/>
<stop offset="1" stop-color="#D9D9D9" stop-opacity="0"/>
</linearGradient>
<linearGradient id="paint3_linear_101_226" x1="236.225" y1="-189.646" x2="-97.4628" y2="589.372" gradientUnits="userSpaceOnUse">
<stop stop-color="#D9D9D9" stop-opacity="0.14"/>
<stop offset="1" stop-color="#D9D9D9" stop-opacity="0"/>
</linearGradient>
<linearGradient id="paint4_linear_101_226" x1="419.724" y1="-189.646" x2="86.0371" y2="589.372" gradientUnits="userSpaceOnUse">
<stop stop-color="#D9D9D9" stop-opacity="0.14"/>
<stop offset="1" stop-color="#D9D9D9" stop-opacity="0"/>
</linearGradient>
</defs>
</svg>
