<svg width="630" height="475" viewBox="0 0 630 475" fill="none" xmlns="http://www.w3.org/2000/svg">
<rect x="18.2817" y="17.9974" width="611" height="442" fill="#27285A"/>
<path d="M18.1731 92.7576L178.282 18.9972L260.282 18.9966L18.1729 136.771L18.1731 92.7576Z" fill="url(#paint0_linear_117_233)"/>
<rect x="18" y="305" width="611" height="170" fill="white"/>
<path d="M64.4029 358.997L58.7989 348.826H57.2252V358.997H50.6615V332.052H61.6777C63.8016 332.052 65.6056 332.423 67.0898 333.165C68.5995 333.907 69.7255 334.931 70.4676 336.236C71.2096 337.515 71.5807 338.948 71.5807 340.535C71.5807 342.326 71.0689 343.925 70.0453 345.333C69.0474 346.74 67.5632 347.738 65.5928 348.327L71.811 358.997H64.4029ZM57.2252 344.181H61.2938C62.4965 344.181 63.3921 343.887 63.9807 343.298C64.5948 342.71 64.9019 341.878 64.9019 340.804C64.9019 339.78 64.5948 338.974 63.9807 338.385C63.3921 337.797 62.4965 337.503 61.2938 337.503H57.2252V344.181ZM87.8686 359.266C85.3353 359.266 83.0066 358.678 80.8827 357.5C78.7844 356.323 77.1083 354.686 75.8545 352.587C74.6262 350.463 74.0121 348.084 74.0121 345.448C74.0121 342.812 74.6262 340.445 75.8545 338.347C77.1083 336.249 78.7844 334.611 80.8827 333.434C83.0066 332.257 85.3353 331.668 87.8686 331.668C90.4019 331.668 92.7177 332.257 94.8161 333.434C96.94 334.611 98.6032 336.249 99.8059 338.347C101.034 340.445 101.648 342.812 101.648 345.448C101.648 348.084 101.034 350.463 99.8059 352.587C98.5777 354.686 96.9144 356.323 94.8161 357.5C92.7177 358.678 90.4019 359.266 87.8686 359.266ZM87.8686 353.278C90.0181 353.278 91.7326 352.562 93.012 351.129C94.3171 349.696 94.9696 347.802 94.9696 345.448C94.9696 343.068 94.3171 341.175 93.012 339.767C91.7326 338.334 90.0181 337.618 87.8686 337.618C85.6935 337.618 83.9534 338.321 82.6484 339.729C81.3689 341.136 80.7292 343.043 80.7292 345.448C80.7292 347.828 81.3689 349.734 82.6484 351.167C83.9534 352.575 85.6935 353.278 87.8686 353.278ZM130.019 332.052L120.461 358.997H112.247L102.69 332.052H109.676L116.354 352.395L123.072 332.052H130.019ZM170.26 332.052V358.997H163.696V342.838L157.67 358.997H152.373L146.308 342.799V358.997H139.745V332.052H147.498L155.06 350.707L162.545 332.052H170.26ZM173.099 348.25C173.099 346.049 173.509 344.117 174.327 342.454C175.172 340.791 176.311 339.511 177.744 338.616C179.177 337.72 180.776 337.272 182.542 337.272C184.051 337.272 185.369 337.579 186.495 338.193C187.647 338.808 188.529 339.614 189.144 340.612V337.579H195.707V358.997H189.144V355.965C188.504 356.963 187.608 357.769 186.457 358.383C185.331 358.997 184.013 359.305 182.503 359.305C180.763 359.305 179.177 358.857 177.744 357.961C176.311 357.04 175.172 355.748 174.327 354.084C173.509 352.395 173.099 350.451 173.099 348.25ZM189.144 348.288C189.144 346.651 188.683 345.358 187.762 344.412C186.866 343.465 185.766 342.991 184.461 342.991C183.156 342.991 182.043 343.465 181.121 344.412C180.226 345.333 179.778 346.612 179.778 348.25C179.778 349.888 180.226 351.193 181.121 352.165C182.043 353.112 183.156 353.585 184.461 353.585C185.766 353.585 186.866 353.112 187.762 352.165C188.683 351.218 189.144 349.926 189.144 348.288ZM212.93 337.349C215.438 337.349 217.434 338.168 218.918 339.806C220.428 341.418 221.183 343.644 221.183 346.484V358.997H214.658V347.367C214.658 345.934 214.287 344.821 213.545 344.028C212.802 343.235 211.804 342.838 210.551 342.838C209.297 342.838 208.299 343.235 207.557 344.028C206.815 344.821 206.444 345.934 206.444 347.367V358.997H199.88V337.579H206.444V340.42C207.109 339.473 208.004 338.731 209.13 338.193C210.256 337.63 211.523 337.349 212.93 337.349ZM228.469 335.353C227.318 335.353 226.371 335.02 225.629 334.355C224.912 333.664 224.554 332.82 224.554 331.822C224.554 330.798 224.912 329.954 225.629 329.288C226.371 328.597 227.318 328.252 228.469 328.252C229.595 328.252 230.516 328.597 231.233 329.288C231.975 329.954 232.346 330.798 232.346 331.822C232.346 332.82 231.975 333.664 231.233 334.355C230.516 335.02 229.595 335.353 228.469 335.353ZM231.732 337.579V358.997H225.168V337.579H231.732ZM234.608 348.25C234.608 346.049 235.017 344.117 235.836 342.454C236.68 340.791 237.819 339.511 239.252 338.616C240.685 337.72 242.284 337.272 244.05 337.272C245.56 337.272 246.878 337.579 248.004 338.193C249.155 338.808 250.038 339.614 250.652 340.612V337.579H257.216V358.997H250.652V355.965C250.012 356.963 249.117 357.769 247.965 358.383C246.839 358.997 245.521 359.305 244.012 359.305C242.272 359.305 240.685 358.857 239.252 357.961C237.819 357.04 236.68 355.748 235.836 354.084C235.017 352.395 234.608 350.451 234.608 348.25ZM250.652 348.288C250.652 346.651 250.191 345.358 249.27 344.412C248.375 343.465 247.274 342.991 245.969 342.991C244.664 342.991 243.551 343.465 242.63 344.412C241.734 345.333 241.286 346.612 241.286 348.25C241.286 349.888 241.734 351.193 242.63 352.165C243.551 353.112 244.664 353.585 245.969 353.585C247.274 353.585 248.375 353.112 249.27 352.165C250.191 351.218 250.652 349.926 250.652 348.288Z" fill="black"/>
<path d="M51.6417 391.057V404.997H49.8217V391.057H51.6417ZM59.7836 393.837C61.1169 393.837 62.1969 394.244 63.0236 395.057C63.8503 395.857 64.2636 397.017 64.2636 398.537V404.997H62.4636V398.797C62.4636 397.704 62.1903 396.871 61.6436 396.297C61.0969 395.711 60.3503 395.417 59.4036 395.417C58.4436 395.417 57.6769 395.717 57.1036 396.317C56.5436 396.917 56.2636 397.791 56.2636 398.937V404.997H54.4436V394.037H56.2636V395.597C56.6236 395.037 57.1103 394.604 57.7236 394.297C58.3503 393.991 59.0369 393.837 59.7836 393.837ZM74.1886 395.537V401.997C74.1886 402.531 74.3019 402.911 74.5286 403.137C74.7553 403.351 75.1486 403.457 75.7086 403.457H77.0486V404.997H75.4086C74.3953 404.997 73.6353 404.764 73.1286 404.297C72.6219 403.831 72.3686 403.064 72.3686 401.997V395.537H70.9486V394.037H72.3686V391.277H74.1886V394.037H77.0486V395.537H74.1886ZM84.3938 393.837C85.2204 393.837 85.9671 394.017 86.6338 394.377C87.3004 394.724 87.8204 395.251 88.1938 395.957C88.5804 396.664 88.7738 397.524 88.7738 398.537V404.997H86.9738V398.797C86.9738 397.704 86.7004 396.871 86.1538 396.297C85.6071 395.711 84.8604 395.417 83.9138 395.417C82.9538 395.417 82.1871 395.717 81.6138 396.317C81.0538 396.917 80.7738 397.791 80.7738 398.937V404.997H78.9538V390.197H80.7738V395.597C81.1338 395.037 81.6271 394.604 82.2538 394.297C82.8938 393.991 83.6071 393.837 84.3938 393.837ZM92.3867 392.257C92.0401 392.257 91.7467 392.137 91.5067 391.897C91.2667 391.657 91.1467 391.364 91.1467 391.017C91.1467 390.671 91.2667 390.377 91.5067 390.137C91.7467 389.897 92.0401 389.777 92.3867 389.777C92.7201 389.777 93.0001 389.897 93.2267 390.137C93.4667 390.377 93.5867 390.671 93.5867 391.017C93.5867 391.364 93.4667 391.657 93.2267 391.897C93.0001 392.137 92.7201 392.257 92.3867 392.257ZM93.2667 394.037V404.997H91.4467V394.037H93.2667ZM99.9486 405.177C99.1086 405.177 98.3553 405.037 97.6886 404.757C97.0219 404.464 96.4953 404.064 96.1086 403.557C95.7219 403.037 95.5086 402.444 95.4686 401.777H97.3486C97.4019 402.324 97.6553 402.771 98.1086 403.117C98.5753 403.464 99.1819 403.637 99.9286 403.637C100.622 403.637 101.169 403.484 101.569 403.177C101.969 402.871 102.169 402.484 102.169 402.017C102.169 401.537 101.955 401.184 101.529 400.957C101.102 400.717 100.442 400.484 99.5486 400.257C98.7353 400.044 98.0686 399.831 97.5486 399.617C97.0419 399.391 96.6019 399.064 96.2286 398.637C95.8686 398.197 95.6886 397.624 95.6886 396.917C95.6886 396.357 95.8553 395.844 96.1886 395.377C96.5219 394.911 96.9953 394.544 97.6086 394.277C98.2219 393.997 98.9219 393.857 99.7086 393.857C100.922 393.857 101.902 394.164 102.649 394.777C103.395 395.391 103.795 396.231 103.849 397.297H102.029C101.989 396.724 101.755 396.264 101.329 395.917C100.915 395.571 100.355 395.397 99.6486 395.397C98.9953 395.397 98.4753 395.537 98.0886 395.817C97.7019 396.097 97.5086 396.464 97.5086 396.917C97.5086 397.277 97.6219 397.577 97.8486 397.817C98.0886 398.044 98.3819 398.231 98.7286 398.377C99.0886 398.511 99.5819 398.664 100.209 398.837C100.995 399.051 101.635 399.264 102.129 399.477C102.622 399.677 103.042 399.984 103.389 400.397C103.749 400.811 103.935 401.351 103.949 402.017C103.949 402.617 103.782 403.157 103.449 403.637C103.115 404.117 102.642 404.497 102.029 404.777C101.429 405.044 100.735 405.177 99.9486 405.177ZM110.57 399.497C110.57 398.364 110.797 397.377 111.25 396.537C111.703 395.684 112.33 395.024 113.13 394.557C113.943 394.091 114.87 393.857 115.91 393.857C117.257 393.857 118.363 394.184 119.23 394.837C120.11 395.491 120.69 396.397 120.97 397.557H119.01C118.823 396.891 118.457 396.364 117.91 395.977C117.377 395.591 116.71 395.397 115.91 395.397C114.87 395.397 114.03 395.757 113.39 396.477C112.75 397.184 112.43 398.191 112.43 399.497C112.43 400.817 112.75 401.837 113.39 402.557C114.03 403.277 114.87 403.637 115.91 403.637C116.71 403.637 117.377 403.451 117.91 403.077C118.443 402.704 118.81 402.171 119.01 401.477H120.97C120.677 402.597 120.09 403.497 119.21 404.177C118.33 404.844 117.23 405.177 115.91 405.177C114.87 405.177 113.943 404.944 113.13 404.477C112.33 404.011 111.703 403.351 111.25 402.497C110.797 401.644 110.57 400.644 110.57 399.497ZM127.878 405.177C126.852 405.177 125.918 404.944 125.078 404.477C124.252 404.011 123.598 403.351 123.118 402.497C122.652 401.631 122.418 400.631 122.418 399.497C122.418 398.377 122.658 397.391 123.138 396.537C123.632 395.671 124.298 395.011 125.138 394.557C125.978 394.091 126.918 393.857 127.958 393.857C128.998 393.857 129.938 394.091 130.778 394.557C131.618 395.011 132.278 395.664 132.758 396.517C133.252 397.371 133.498 398.364 133.498 399.497C133.498 400.631 133.245 401.631 132.738 402.497C132.245 403.351 131.572 404.011 130.718 404.477C129.865 404.944 128.918 405.177 127.878 405.177ZM127.878 403.577C128.532 403.577 129.145 403.424 129.718 403.117C130.292 402.811 130.752 402.351 131.098 401.737C131.458 401.124 131.638 400.377 131.638 399.497C131.638 398.617 131.465 397.871 131.118 397.257C130.772 396.644 130.318 396.191 129.758 395.897C129.198 395.591 128.592 395.437 127.938 395.437C127.272 395.437 126.658 395.591 126.098 395.897C125.552 396.191 125.112 396.644 124.778 397.257C124.445 397.871 124.278 398.617 124.278 399.497C124.278 400.391 124.438 401.144 124.758 401.757C125.092 402.371 125.532 402.831 126.078 403.137C126.625 403.431 127.225 403.577 127.878 403.577ZM148.771 393.837C149.625 393.837 150.385 394.017 151.051 394.377C151.718 394.724 152.245 395.251 152.631 395.957C153.018 396.664 153.211 397.524 153.211 398.537V404.997H151.411V398.797C151.411 397.704 151.138 396.871 150.591 396.297C150.058 395.711 149.331 395.417 148.411 395.417C147.465 395.417 146.711 395.724 146.151 396.337C145.591 396.937 145.311 397.811 145.311 398.957V404.997H143.511V398.797C143.511 397.704 143.238 396.871 142.691 396.297C142.158 395.711 141.431 395.417 140.511 395.417C139.565 395.417 138.811 395.724 138.251 396.337C137.691 396.937 137.411 397.811 137.411 398.957V404.997H135.591V394.037H137.411V395.617C137.771 395.044 138.251 394.604 138.851 394.297C139.465 393.991 140.138 393.837 140.871 393.837C141.791 393.837 142.605 394.044 143.311 394.457C144.018 394.871 144.545 395.477 144.891 396.277C145.198 395.504 145.705 394.904 146.411 394.477C147.118 394.051 147.905 393.837 148.771 393.837ZM157.717 396.057C158.077 395.431 158.61 394.911 159.317 394.497C160.037 394.071 160.87 393.857 161.817 393.857C162.79 393.857 163.67 394.091 164.457 394.557C165.257 395.024 165.883 395.684 166.337 396.537C166.79 397.377 167.017 398.357 167.017 399.477C167.017 400.584 166.79 401.571 166.337 402.437C165.883 403.304 165.257 403.977 164.457 404.457C163.67 404.937 162.79 405.177 161.817 405.177C160.883 405.177 160.057 404.971 159.337 404.557C158.63 404.131 158.09 403.604 157.717 402.977V410.197H155.897V394.037H157.717V396.057ZM165.157 399.477C165.157 398.651 164.99 397.931 164.657 397.317C164.323 396.704 163.87 396.237 163.297 395.917C162.737 395.597 162.117 395.437 161.437 395.437C160.77 395.437 160.15 395.604 159.577 395.937C159.017 396.257 158.563 396.731 158.217 397.357C157.883 397.971 157.717 398.684 157.717 399.497C157.717 400.324 157.883 401.051 158.217 401.677C158.563 402.291 159.017 402.764 159.577 403.097C160.15 403.417 160.77 403.577 161.437 403.577C162.117 403.577 162.737 403.417 163.297 403.097C163.87 402.764 164.323 402.291 164.657 401.677C164.99 401.051 165.157 400.317 165.157 399.477ZM179.112 399.097C179.112 399.444 179.092 399.811 179.052 400.197H170.292C170.359 401.277 170.726 402.124 171.392 402.737C172.072 403.337 172.892 403.637 173.852 403.637C174.639 403.637 175.292 403.457 175.812 403.097C176.346 402.724 176.719 402.231 176.932 401.617H178.892C178.599 402.671 178.012 403.531 177.132 404.197C176.252 404.851 175.159 405.177 173.852 405.177C172.812 405.177 171.879 404.944 171.052 404.477C170.239 404.011 169.599 403.351 169.132 402.497C168.666 401.631 168.432 400.631 168.432 399.497C168.432 398.364 168.659 397.371 169.112 396.517C169.566 395.664 170.199 395.011 171.012 394.557C171.839 394.091 172.786 393.857 173.852 393.857C174.892 393.857 175.812 394.084 176.612 394.537C177.412 394.991 178.026 395.617 178.452 396.417C178.892 397.204 179.112 398.097 179.112 399.097ZM177.232 398.717C177.232 398.024 177.079 397.431 176.772 396.937C176.466 396.431 176.046 396.051 175.512 395.797C174.992 395.531 174.412 395.397 173.772 395.397C172.852 395.397 172.066 395.691 171.412 396.277C170.772 396.864 170.406 397.677 170.312 398.717H177.232ZM183.435 395.537V401.997C183.435 402.531 183.548 402.911 183.775 403.137C184.001 403.351 184.395 403.457 184.955 403.457H186.295V404.997H184.655C183.641 404.997 182.881 404.764 182.375 404.297C181.868 403.831 181.615 403.064 181.615 401.997V395.537H180.195V394.037H181.615V391.277H183.435V394.037H186.295V395.537H183.435ZM189.14 392.257C188.793 392.257 188.5 392.137 188.26 391.897C188.02 391.657 187.9 391.364 187.9 391.017C187.9 390.671 188.02 390.377 188.26 390.137C188.5 389.897 188.793 389.777 189.14 389.777C189.473 389.777 189.753 389.897 189.98 390.137C190.22 390.377 190.34 390.671 190.34 391.017C190.34 391.364 190.22 391.657 189.98 391.897C189.753 392.137 189.473 392.257 189.14 392.257ZM190.02 394.037V404.997H188.2V394.037H190.02ZM195.042 395.537V401.997C195.042 402.531 195.155 402.911 195.382 403.137C195.608 403.351 196.002 403.457 196.562 403.457H197.902V404.997H196.262C195.248 404.997 194.488 404.764 193.982 404.297C193.475 403.831 193.222 403.064 193.222 401.997V395.537H191.802V394.037H193.222V391.277H195.042V394.037H197.902V395.537H195.042ZM200.747 392.257C200.4 392.257 200.107 392.137 199.867 391.897C199.627 391.657 199.507 391.364 199.507 391.017C199.507 390.671 199.627 390.377 199.867 390.137C200.107 389.897 200.4 389.777 200.747 389.777C201.08 389.777 201.36 389.897 201.587 390.137C201.827 390.377 201.947 390.671 201.947 391.017C201.947 391.364 201.827 391.657 201.587 391.897C201.36 392.137 201.08 392.257 200.747 392.257ZM201.627 394.037V404.997H199.807V394.037H201.627ZM209.209 405.177C208.182 405.177 207.249 404.944 206.409 404.477C205.582 404.011 204.929 403.351 204.449 402.497C203.982 401.631 203.749 400.631 203.749 399.497C203.749 398.377 203.989 397.391 204.469 396.537C204.962 395.671 205.629 395.011 206.469 394.557C207.309 394.091 208.249 393.857 209.289 393.857C210.329 393.857 211.269 394.091 212.109 394.557C212.949 395.011 213.609 395.664 214.089 396.517C214.582 397.371 214.829 398.364 214.829 399.497C214.829 400.631 214.575 401.631 214.069 402.497C213.575 403.351 212.902 404.011 212.049 404.477C211.195 404.944 210.249 405.177 209.209 405.177ZM209.209 403.577C209.862 403.577 210.475 403.424 211.049 403.117C211.622 402.811 212.082 402.351 212.429 401.737C212.789 401.124 212.969 400.377 212.969 399.497C212.969 398.617 212.795 397.871 212.449 397.257C212.102 396.644 211.649 396.191 211.089 395.897C210.529 395.591 209.922 395.437 209.269 395.437C208.602 395.437 207.989 395.591 207.429 395.897C206.882 396.191 206.442 396.644 206.109 397.257C205.775 397.871 205.609 398.617 205.609 399.497C205.609 400.391 205.769 401.144 206.089 401.757C206.422 402.371 206.862 402.831 207.409 403.137C207.955 403.431 208.555 403.577 209.209 403.577ZM222.262 393.837C223.595 393.837 224.675 394.244 225.502 395.057C226.328 395.857 226.742 397.017 226.742 398.537V404.997H224.942V398.797C224.942 397.704 224.668 396.871 224.122 396.297C223.575 395.711 222.828 395.417 221.882 395.417C220.922 395.417 220.155 395.717 219.582 396.317C219.022 396.917 218.742 397.791 218.742 398.937V404.997H216.922V394.037H218.742V395.597C219.102 395.037 219.588 394.604 220.202 394.297C220.828 393.991 221.515 393.837 222.262 393.837ZM231.295 402.477L229.055 407.857H227.835L229.295 402.477H231.295ZM240.332 395.537V401.997C240.332 402.531 240.445 402.911 240.672 403.137C240.898 403.351 241.292 403.457 241.852 403.457H243.192V404.997H241.552C240.538 404.997 239.778 404.764 239.272 404.297C238.765 403.831 238.512 403.064 238.512 401.997V395.537H237.092V394.037H238.512V391.277H240.332V394.037H243.192V395.537H240.332ZM255.097 399.097C255.097 399.444 255.077 399.811 255.037 400.197H246.277C246.343 401.277 246.71 402.124 247.377 402.737C248.057 403.337 248.877 403.637 249.837 403.637C250.623 403.637 251.277 403.457 251.797 403.097C252.33 402.724 252.703 402.231 252.917 401.617H254.877C254.583 402.671 253.997 403.531 253.117 404.197C252.237 404.851 251.143 405.177 249.837 405.177C248.797 405.177 247.863 404.944 247.037 404.477C246.223 404.011 245.583 403.351 245.117 402.497C244.65 401.631 244.417 400.631 244.417 399.497C244.417 398.364 244.643 397.371 245.097 396.517C245.55 395.664 246.183 395.011 246.997 394.557C247.823 394.091 248.77 393.857 249.837 393.857C250.877 393.857 251.797 394.084 252.597 394.537C253.397 394.991 254.01 395.617 254.437 396.417C254.877 397.204 255.097 398.097 255.097 399.097ZM253.217 398.717C253.217 398.024 253.063 397.431 252.757 396.937C252.45 396.431 252.03 396.051 251.497 395.797C250.977 395.531 250.397 395.397 249.757 395.397C248.837 395.397 248.05 395.691 247.397 396.277C246.757 396.864 246.39 397.677 246.297 398.717H253.217ZM256.519 399.477C256.519 398.357 256.746 397.377 257.199 396.537C257.652 395.684 258.272 395.024 259.059 394.557C259.859 394.091 260.746 393.857 261.719 393.857C262.679 393.857 263.512 394.064 264.219 394.477C264.926 394.891 265.452 395.411 265.799 396.037V394.037H267.639V404.997H265.799V402.957C265.439 403.597 264.899 404.131 264.179 404.557C263.472 404.971 262.646 405.177 261.699 405.177C260.726 405.177 259.846 404.937 259.059 404.457C258.272 403.977 257.652 403.304 257.199 402.437C256.746 401.571 256.519 400.584 256.519 399.477ZM265.799 399.497C265.799 398.671 265.632 397.951 265.299 397.337C264.966 396.724 264.512 396.257 263.939 395.937C263.379 395.604 262.759 395.437 262.079 395.437C261.399 395.437 260.779 395.597 260.219 395.917C259.659 396.237 259.212 396.704 258.879 397.317C258.546 397.931 258.379 398.651 258.379 399.477C258.379 400.317 258.546 401.051 258.879 401.677C259.212 402.291 259.659 402.764 260.219 403.097C260.779 403.417 261.399 403.577 262.079 403.577C262.759 403.577 263.379 403.417 263.939 403.097C264.512 402.764 264.966 402.291 265.299 401.677C265.632 401.051 265.799 400.324 265.799 399.497ZM283.595 393.837C284.448 393.837 285.208 394.017 285.875 394.377C286.541 394.724 287.068 395.251 287.455 395.957C287.841 396.664 288.035 397.524 288.035 398.537V404.997H286.235V398.797C286.235 397.704 285.961 396.871 285.415 396.297C284.881 395.711 284.155 395.417 283.235 395.417C282.288 395.417 281.535 395.724 280.975 396.337C280.415 396.937 280.135 397.811 280.135 398.957V404.997H278.335V398.797C278.335 397.704 278.061 396.871 277.515 396.297C276.981 395.711 276.255 395.417 275.335 395.417C274.388 395.417 273.635 395.724 273.075 396.337C272.515 396.937 272.235 397.811 272.235 398.957V404.997H270.415V394.037H272.235V395.617C272.595 395.044 273.075 394.604 273.675 394.297C274.288 393.991 274.961 393.837 275.695 393.837C276.615 393.837 277.428 394.044 278.135 394.457C278.841 394.871 279.368 395.477 279.715 396.277C280.021 395.504 280.528 394.904 281.235 394.477C281.941 394.051 282.728 393.837 283.595 393.837ZM294.6 405.177C293.76 405.177 293.007 405.037 292.34 404.757C291.674 404.464 291.147 404.064 290.76 403.557C290.374 403.037 290.16 402.444 290.12 401.777H292C292.054 402.324 292.307 402.771 292.76 403.117C293.227 403.464 293.834 403.637 294.58 403.637C295.274 403.637 295.82 403.484 296.22 403.177C296.62 402.871 296.82 402.484 296.82 402.017C296.82 401.537 296.607 401.184 296.18 400.957C295.754 400.717 295.094 400.484 294.2 400.257C293.387 400.044 292.72 399.831 292.2 399.617C291.694 399.391 291.254 399.064 290.88 398.637C290.52 398.197 290.34 397.624 290.34 396.917C290.34 396.357 290.507 395.844 290.84 395.377C291.174 394.911 291.647 394.544 292.26 394.277C292.874 393.997 293.574 393.857 294.36 393.857C295.574 393.857 296.554 394.164 297.3 394.777C298.047 395.391 298.447 396.231 298.5 397.297H296.68C296.64 396.724 296.407 396.264 295.98 395.917C295.567 395.571 295.007 395.397 294.3 395.397C293.647 395.397 293.127 395.537 292.74 395.817C292.354 396.097 292.16 396.464 292.16 396.917C292.16 397.277 292.274 397.577 292.5 397.817C292.74 398.044 293.034 398.231 293.38 398.377C293.74 398.511 294.234 398.664 294.86 398.837C295.647 399.051 296.287 399.264 296.78 399.477C297.274 399.677 297.694 399.984 298.04 400.397C298.4 400.811 298.587 401.351 298.6 402.017C298.6 402.617 298.434 403.157 298.1 403.637C297.767 404.117 297.294 404.497 296.68 404.777C296.08 405.044 295.387 405.177 294.6 405.177ZM320.501 394.037L317.081 404.997H315.201L312.561 396.297L309.921 404.997H308.041L304.601 394.037H306.461L308.981 403.237L311.701 394.037H313.561L316.221 403.257L318.701 394.037H320.501ZM322.948 392.257C322.601 392.257 322.308 392.137 322.068 391.897C321.828 391.657 321.708 391.364 321.708 391.017C321.708 390.671 321.828 390.377 322.068 390.137C322.308 389.897 322.601 389.777 322.948 389.777C323.281 389.777 323.561 389.897 323.788 390.137C324.028 390.377 324.148 390.671 324.148 391.017C324.148 391.364 324.028 391.657 323.788 391.897C323.561 392.137 323.281 392.257 322.948 392.257ZM323.828 394.037V404.997H322.008V394.037H323.828ZM328.45 390.197V404.997H326.63V390.197H328.45ZM333.071 390.197V404.997H331.251V390.197H333.071ZM340.225 399.477C340.225 398.357 340.452 397.377 340.905 396.537C341.359 395.684 341.979 395.024 342.765 394.557C343.565 394.091 344.459 393.857 345.445 393.857C346.299 393.857 347.092 394.057 347.825 394.457C348.559 394.844 349.119 395.357 349.505 395.997V390.197H351.345V404.997H349.505V402.937C349.145 403.591 348.612 404.131 347.905 404.557C347.199 404.971 346.372 405.177 345.425 405.177C344.452 405.177 343.565 404.937 342.765 404.457C341.979 403.977 341.359 403.304 340.905 402.437C340.452 401.571 340.225 400.584 340.225 399.477ZM349.505 399.497C349.505 398.671 349.339 397.951 349.005 397.337C348.672 396.724 348.219 396.257 347.645 395.937C347.085 395.604 346.465 395.437 345.785 395.437C345.105 395.437 344.485 395.597 343.925 395.917C343.365 396.237 342.919 396.704 342.585 397.317C342.252 397.931 342.085 398.651 342.085 399.477C342.085 400.317 342.252 401.051 342.585 401.677C342.919 402.291 343.365 402.764 343.925 403.097C344.485 403.417 345.105 403.577 345.785 403.577C346.465 403.577 347.085 403.417 347.645 403.097C348.219 402.764 348.672 402.291 349.005 401.677C349.339 401.051 349.505 400.324 349.505 399.497ZM364.121 399.097C364.121 399.444 364.101 399.811 364.061 400.197H355.301C355.368 401.277 355.734 402.124 356.401 402.737C357.081 403.337 357.901 403.637 358.861 403.637C359.648 403.637 360.301 403.457 360.821 403.097C361.354 402.724 361.728 402.231 361.941 401.617H363.901C363.608 402.671 363.021 403.531 362.141 404.197C361.261 404.851 360.168 405.177 358.861 405.177C357.821 405.177 356.888 404.944 356.061 404.477C355.248 404.011 354.608 403.351 354.141 402.497C353.674 401.631 353.441 400.631 353.441 399.497C353.441 398.364 353.668 397.371 354.121 396.517C354.574 395.664 355.208 395.011 356.021 394.557C356.848 394.091 357.794 393.857 358.861 393.857C359.901 393.857 360.821 394.084 361.621 394.537C362.421 394.991 363.034 395.617 363.461 396.417C363.901 397.204 364.121 398.097 364.121 399.097ZM362.241 398.717C362.241 398.024 362.088 397.431 361.781 396.937C361.474 396.431 361.054 396.051 360.521 395.797C360.001 395.531 359.421 395.397 358.781 395.397C357.861 395.397 357.074 395.691 356.421 396.277C355.781 396.864 355.414 397.677 355.321 398.717H362.241ZM370.103 405.177C369.263 405.177 368.51 405.037 367.843 404.757C367.177 404.464 366.65 404.064 366.263 403.557C365.877 403.037 365.663 402.444 365.623 401.777H367.503C367.557 402.324 367.81 402.771 368.263 403.117C368.73 403.464 369.337 403.637 370.083 403.637C370.777 403.637 371.323 403.484 371.723 403.177C372.123 402.871 372.323 402.484 372.323 402.017C372.323 401.537 372.11 401.184 371.683 400.957C371.257 400.717 370.597 400.484 369.703 400.257C368.89 400.044 368.223 399.831 367.703 399.617C367.197 399.391 366.757 399.064 366.383 398.637C366.023 398.197 365.843 397.624 365.843 396.917C365.843 396.357 366.01 395.844 366.343 395.377C366.677 394.911 367.15 394.544 367.763 394.277C368.377 393.997 369.077 393.857 369.863 393.857C371.077 393.857 372.057 394.164 372.803 394.777C373.55 395.391 373.95 396.231 374.003 397.297H372.183C372.143 396.724 371.91 396.264 371.483 395.917C371.07 395.571 370.51 395.397 369.803 395.397C369.15 395.397 368.63 395.537 368.243 395.817C367.857 396.097 367.663 396.464 367.663 396.917C367.663 397.277 367.777 397.577 368.003 397.817C368.243 398.044 368.537 398.231 368.883 398.377C369.243 398.511 369.737 398.664 370.363 398.837C371.15 399.051 371.79 399.264 372.283 399.477C372.777 399.677 373.197 399.984 373.543 400.397C373.903 400.811 374.09 401.351 374.103 402.017C374.103 402.617 373.937 403.157 373.603 403.637C373.27 404.117 372.797 404.497 372.183 404.777C371.583 405.044 370.89 405.177 370.103 405.177ZM377.313 392.257C376.966 392.257 376.673 392.137 376.433 391.897C376.193 391.657 376.073 391.364 376.073 391.017C376.073 390.671 376.193 390.377 376.433 390.137C376.673 389.897 376.966 389.777 377.313 389.777C377.646 389.777 377.926 389.897 378.153 390.137C378.393 390.377 378.513 390.671 378.513 391.017C378.513 391.364 378.393 391.657 378.153 391.897C377.926 392.137 377.646 392.257 377.313 392.257ZM378.193 394.037V404.997H376.373V394.037H378.193ZM385.514 393.857C386.461 393.857 387.288 394.064 387.994 394.477C388.714 394.891 389.248 395.411 389.594 396.037V394.037H391.434V405.237C391.434 406.237 391.221 407.124 390.794 407.897C390.368 408.684 389.754 409.297 388.954 409.737C388.168 410.177 387.248 410.397 386.194 410.397C384.754 410.397 383.554 410.057 382.594 409.377C381.634 408.697 381.068 407.771 380.894 406.597H382.694C382.894 407.264 383.308 407.797 383.934 408.197C384.561 408.611 385.314 408.817 386.194 408.817C387.194 408.817 388.008 408.504 388.634 407.877C389.274 407.251 389.594 406.371 389.594 405.237V402.937C389.234 403.577 388.701 404.111 387.994 404.537C387.288 404.964 386.461 405.177 385.514 405.177C384.541 405.177 383.654 404.937 382.854 404.457C382.068 403.977 381.448 403.304 380.994 402.437C380.541 401.571 380.314 400.584 380.314 399.477C380.314 398.357 380.541 397.377 380.994 396.537C381.448 395.684 382.068 395.024 382.854 394.557C383.654 394.091 384.541 393.857 385.514 393.857ZM389.594 399.497C389.594 398.671 389.428 397.951 389.094 397.337C388.761 396.724 388.308 396.257 387.734 395.937C387.174 395.604 386.554 395.437 385.874 395.437C385.194 395.437 384.574 395.597 384.014 395.917C383.454 396.237 383.008 396.704 382.674 397.317C382.341 397.931 382.174 398.651 382.174 399.477C382.174 400.317 382.341 401.051 382.674 401.677C383.008 402.291 383.454 402.764 384.014 403.097C384.574 403.417 385.194 403.577 385.874 403.577C386.554 403.577 387.174 403.417 387.734 403.097C388.308 402.764 388.761 402.291 389.094 401.677C389.428 401.051 389.594 400.324 389.594 399.497ZM399.55 393.837C400.883 393.837 401.963 394.244 402.79 395.057C403.617 395.857 404.03 397.017 404.03 398.537V404.997H402.23V398.797C402.23 397.704 401.957 396.871 401.41 396.297C400.863 395.711 400.117 395.417 399.17 395.417C398.21 395.417 397.443 395.717 396.87 396.317C396.31 396.917 396.03 397.791 396.03 398.937V404.997H394.21V394.037H396.03V395.597C396.39 395.037 396.877 394.604 397.49 394.297C398.117 393.991 398.803 393.837 399.55 393.837ZM408.583 402.477L406.343 407.857H405.123L406.583 402.477H408.583ZM417.22 396.077C417.593 395.424 418.14 394.891 418.86 394.477C419.58 394.064 420.4 393.857 421.32 393.857C422.307 393.857 423.193 394.091 423.98 394.557C424.767 395.024 425.387 395.684 425.84 396.537C426.293 397.377 426.52 398.357 426.52 399.477C426.52 400.584 426.293 401.571 425.84 402.437C425.387 403.304 424.76 403.977 423.96 404.457C423.173 404.937 422.293 405.177 421.32 405.177C420.373 405.177 419.54 404.971 418.82 404.557C418.113 404.144 417.58 403.617 417.22 402.977V404.997H415.4V390.197H417.22V396.077ZM424.66 399.477C424.66 398.651 424.493 397.931 424.16 397.317C423.827 396.704 423.373 396.237 422.8 395.917C422.24 395.597 421.62 395.437 420.94 395.437C420.273 395.437 419.653 395.604 419.08 395.937C418.52 396.257 418.067 396.731 417.72 397.357C417.387 397.971 417.22 398.684 417.22 399.497C417.22 400.324 417.387 401.051 417.72 401.677C418.067 402.291 418.52 402.764 419.08 403.097C419.653 403.417 420.273 403.577 420.94 403.577C421.62 403.577 422.24 403.417 422.8 403.097C423.373 402.764 423.827 402.291 424.16 401.677C424.493 401.051 424.66 400.317 424.66 399.477ZM438.336 394.037V404.997H436.516V403.377C436.169 403.937 435.682 404.377 435.056 404.697C434.442 405.004 433.762 405.157 433.016 405.157C432.162 405.157 431.396 404.984 430.716 404.637C430.036 404.277 429.496 403.744 429.096 403.037C428.709 402.331 428.516 401.471 428.516 400.457V394.037H430.316V400.217C430.316 401.297 430.589 402.131 431.136 402.717C431.682 403.291 432.429 403.577 433.376 403.577C434.349 403.577 435.116 403.277 435.676 402.677C436.236 402.077 436.516 401.204 436.516 400.057V394.037H438.336ZM442.048 392.257C441.702 392.257 441.408 392.137 441.168 391.897C440.928 391.657 440.808 391.364 440.808 391.017C440.808 390.671 440.928 390.377 441.168 390.137C441.408 389.897 441.702 389.777 442.048 389.777C442.382 389.777 442.662 389.897 442.888 390.137C443.128 390.377 443.248 390.671 443.248 391.017C443.248 391.364 443.128 391.657 442.888 391.897C442.662 392.137 442.382 392.257 442.048 392.257ZM442.928 394.037V404.997H441.108V394.037H442.928ZM447.55 390.197V404.997H445.73V390.197H447.55ZM449.672 399.477C449.672 398.357 449.899 397.377 450.352 396.537C450.806 395.684 451.426 395.024 452.212 394.557C453.012 394.091 453.906 393.857 454.892 393.857C455.746 393.857 456.539 394.057 457.272 394.457C458.006 394.844 458.566 395.357 458.952 395.997V390.197H460.792V404.997H458.952V402.937C458.592 403.591 458.059 404.131 457.352 404.557C456.646 404.971 455.819 405.177 454.872 405.177C453.899 405.177 453.012 404.937 452.212 404.457C451.426 403.977 450.806 403.304 450.352 402.437C449.899 401.571 449.672 400.584 449.672 399.477ZM458.952 399.497C458.952 398.671 458.786 397.951 458.452 397.337C458.119 396.724 457.666 396.257 457.092 395.937C456.532 395.604 455.912 395.437 455.232 395.437C454.552 395.437 453.932 395.597 453.372 395.917C452.812 396.237 452.366 396.704 452.032 397.317C451.699 397.931 451.532 398.651 451.532 399.477C451.532 400.317 451.699 401.051 452.032 401.677C452.366 402.291 452.812 402.764 453.372 403.097C453.932 403.417 454.552 403.577 455.232 403.577C455.912 403.577 456.532 403.417 457.092 403.097C457.666 402.764 458.119 402.291 458.452 401.677C458.786 401.051 458.952 400.324 458.952 399.497ZM465.448 402.477L463.208 407.857H461.988L463.448 402.477H465.448ZM471.585 399.477C471.585 398.357 471.811 397.377 472.265 396.537C472.718 395.684 473.338 395.024 474.125 394.557C474.925 394.091 475.811 393.857 476.785 393.857C477.745 393.857 478.578 394.064 479.285 394.477C479.991 394.891 480.518 395.411 480.865 396.037V394.037H482.705V404.997H480.865V402.957C480.505 403.597 479.965 404.131 479.245 404.557C478.538 404.971 477.711 405.177 476.765 405.177C475.791 405.177 474.911 404.937 474.125 404.457C473.338 403.977 472.718 403.304 472.265 402.437C471.811 401.571 471.585 400.584 471.585 399.477ZM480.865 399.497C480.865 398.671 480.698 397.951 480.365 397.337C480.031 396.724 479.578 396.257 479.005 395.937C478.445 395.604 477.825 395.437 477.145 395.437C476.465 395.437 475.845 395.597 475.285 395.917C474.725 396.237 474.278 396.704 473.945 397.317C473.611 397.931 473.445 398.651 473.445 399.477C473.445 400.317 473.611 401.051 473.945 401.677C474.278 402.291 474.725 402.764 475.285 403.097C475.845 403.417 476.465 403.577 477.145 403.577C477.825 403.577 478.445 403.417 479.005 403.097C479.578 402.764 480.031 402.291 480.365 401.677C480.698 401.051 480.865 400.324 480.865 399.497ZM490.82 393.837C492.154 393.837 493.234 394.244 494.06 395.057C494.887 395.857 495.3 397.017 495.3 398.537V404.997H493.5V398.797C493.5 397.704 493.227 396.871 492.68 396.297C492.134 395.711 491.387 395.417 490.44 395.417C489.48 395.417 488.714 395.717 488.14 396.317C487.58 396.917 487.3 397.791 487.3 398.937V404.997H485.48V394.037H487.3V395.597C487.66 395.037 488.147 394.604 488.76 394.297C489.387 393.991 490.074 393.837 490.82 393.837ZM497.293 399.477C497.293 398.357 497.52 397.377 497.973 396.537C498.427 395.684 499.047 395.024 499.833 394.557C500.633 394.091 501.527 393.857 502.513 393.857C503.367 393.857 504.16 394.057 504.893 394.457C505.627 394.844 506.187 395.357 506.573 395.997V390.197H508.413V404.997H506.573V402.937C506.213 403.591 505.68 404.131 504.973 404.557C504.267 404.971 503.44 405.177 502.493 405.177C501.52 405.177 500.633 404.937 499.833 404.457C499.047 403.977 498.427 403.304 497.973 402.437C497.52 401.571 497.293 400.584 497.293 399.477ZM506.573 399.497C506.573 398.671 506.407 397.951 506.073 397.337C505.74 396.724 505.287 396.257 504.713 395.937C504.153 395.604 503.533 395.437 502.853 395.437C502.173 395.437 501.553 395.597 500.993 395.917C500.433 396.237 499.987 396.704 499.653 397.317C499.32 397.931 499.153 398.651 499.153 399.477C499.153 400.317 499.32 401.051 499.653 401.677C499.987 402.291 500.433 402.764 500.993 403.097C501.553 403.417 502.173 403.577 502.853 403.577C503.533 403.577 504.153 403.417 504.713 403.097C505.287 402.764 505.74 402.291 506.073 401.677C506.407 401.051 506.573 400.324 506.573 399.497ZM54.6017 435.177C53.5751 435.177 52.6417 434.944 51.8017 434.477C50.9751 434.011 50.3217 433.351 49.8417 432.497C49.3751 431.631 49.1417 430.631 49.1417 429.497C49.1417 428.377 49.3817 427.391 49.8617 426.537C50.3551 425.671 51.0217 425.011 51.8617 424.557C52.7017 424.091 53.6417 423.857 54.6817 423.857C55.7217 423.857 56.6617 424.091 57.5017 424.557C58.3417 425.011 59.0017 425.664 59.4817 426.517C59.9751 427.371 60.2217 428.364 60.2217 429.497C60.2217 430.631 59.9684 431.631 59.4617 432.497C58.9684 433.351 58.2951 434.011 57.4417 434.477C56.5884 434.944 55.6417 435.177 54.6017 435.177ZM54.6017 433.577C55.2551 433.577 55.8684 433.424 56.4417 433.117C57.0151 432.811 57.4751 432.351 57.8217 431.737C58.1817 431.124 58.3617 430.377 58.3617 429.497C58.3617 428.617 58.1884 427.871 57.8417 427.257C57.4951 426.644 57.0417 426.191 56.4817 425.897C55.9217 425.591 55.3151 425.437 54.6617 425.437C53.9951 425.437 53.3817 425.591 52.8217 425.897C52.2751 426.191 51.8351 426.644 51.5017 427.257C51.1684 427.871 51.0017 428.617 51.0017 429.497C51.0017 430.391 51.1617 431.144 51.4817 431.757C51.8151 432.371 52.2551 432.831 52.8017 433.137C53.3484 433.431 53.9484 433.577 54.6017 433.577ZM64.1347 426.057C64.4947 425.431 65.028 424.911 65.7347 424.497C66.4547 424.071 67.288 423.857 68.2347 423.857C69.208 423.857 70.088 424.091 70.8747 424.557C71.6747 425.024 72.3014 425.684 72.7547 426.537C73.208 427.377 73.4347 428.357 73.4347 429.477C73.4347 430.584 73.208 431.571 72.7547 432.437C72.3014 433.304 71.6747 433.977 70.8747 434.457C70.088 434.937 69.208 435.177 68.2347 435.177C67.3014 435.177 66.4747 434.971 65.7547 434.557C65.048 434.131 64.508 433.604 64.1347 432.977V440.197H62.3147V424.037H64.1347V426.057ZM71.5747 429.477C71.5747 428.651 71.408 427.931 71.0747 427.317C70.7414 426.704 70.288 426.237 69.7147 425.917C69.1547 425.597 68.5347 425.437 67.8547 425.437C67.188 425.437 66.568 425.604 65.9947 425.937C65.4347 426.257 64.9814 426.731 64.6347 427.357C64.3014 427.971 64.1347 428.684 64.1347 429.497C64.1347 430.324 64.3014 431.051 64.6347 431.677C64.9814 432.291 65.4347 432.764 65.9947 433.097C66.568 433.417 67.188 433.577 67.8547 433.577C68.5347 433.577 69.1547 433.417 69.7147 433.097C70.288 432.764 70.7414 432.291 71.0747 431.677C71.408 431.051 71.5747 430.317 71.5747 429.477ZM85.5303 429.097C85.5303 429.444 85.5103 429.811 85.4703 430.197H76.7103C76.777 431.277 77.1437 432.124 77.8103 432.737C78.4903 433.337 79.3103 433.637 80.2703 433.637C81.057 433.637 81.7103 433.457 82.2303 433.097C82.7637 432.724 83.137 432.231 83.3503 431.617H85.3103C85.017 432.671 84.4303 433.531 83.5503 434.197C82.6703 434.851 81.577 435.177 80.2703 435.177C79.2303 435.177 78.297 434.944 77.4703 434.477C76.657 434.011 76.017 433.351 75.5503 432.497C75.0837 431.631 74.8503 430.631 74.8503 429.497C74.8503 428.364 75.077 427.371 75.5303 426.517C75.9837 425.664 76.617 425.011 77.4303 424.557C78.257 424.091 79.2037 423.857 80.2703 423.857C81.3103 423.857 82.2303 424.084 83.0303 424.537C83.8303 424.991 84.4437 425.617 84.8703 426.417C85.3103 427.204 85.5303 428.097 85.5303 429.097ZM83.6503 428.717C83.6503 428.024 83.497 427.431 83.1903 426.937C82.8837 426.431 82.4637 426.051 81.9303 425.797C81.4103 425.531 80.8303 425.397 80.1903 425.397C79.2703 425.397 78.4837 425.691 77.8303 426.277C77.1903 426.864 76.8237 427.677 76.7303 428.717H83.6503ZM89.4527 425.817C89.7727 425.191 90.226 424.704 90.8127 424.357C91.4127 424.011 92.1393 423.837 92.9927 423.837V425.717H92.5127C90.4727 425.717 89.4527 426.824 89.4527 429.037V434.997H87.6327V424.037H89.4527V425.817ZM94.1136 429.477C94.1136 428.357 94.3403 427.377 94.7936 426.537C95.2469 425.684 95.8669 425.024 96.6536 424.557C97.4536 424.091 98.3403 423.857 99.3136 423.857C100.274 423.857 101.107 424.064 101.814 424.477C102.52 424.891 103.047 425.411 103.394 426.037V424.037H105.234V434.997H103.394V432.957C103.034 433.597 102.494 434.131 101.774 434.557C101.067 434.971 100.24 435.177 99.2936 435.177C98.3203 435.177 97.4403 434.937 96.6536 434.457C95.8669 433.977 95.2469 433.304 94.7936 432.437C94.3403 431.571 94.1136 430.584 94.1136 429.477ZM103.394 429.497C103.394 428.671 103.227 427.951 102.894 427.337C102.56 426.724 102.107 426.257 101.534 425.937C100.974 425.604 100.354 425.437 99.6736 425.437C98.9936 425.437 98.3736 425.597 97.8136 425.917C97.2536 426.237 96.8069 426.704 96.4736 427.317C96.1403 427.931 95.9736 428.651 95.9736 429.477C95.9736 430.317 96.1403 431.051 96.4736 431.677C96.8069 432.291 97.2536 432.764 97.8136 433.097C98.3736 433.417 98.9936 433.577 99.6736 433.577C100.354 433.577 100.974 433.417 101.534 433.097C102.107 432.764 102.56 432.291 102.894 431.677C103.227 431.051 103.394 430.324 103.394 429.497ZM110.229 425.537V431.997C110.229 432.531 110.343 432.911 110.569 433.137C110.796 433.351 111.189 433.457 111.749 433.457H113.089V434.997H111.449C110.436 434.997 109.676 434.764 109.169 434.297C108.663 433.831 108.409 433.064 108.409 431.997V425.537H106.989V424.037H108.409V421.277H110.229V424.037H113.089V425.537H110.229ZM124.994 429.097C124.994 429.444 124.974 429.811 124.934 430.197H116.174C116.241 431.277 116.608 432.124 117.274 432.737C117.954 433.337 118.774 433.637 119.734 433.637C120.521 433.637 121.174 433.457 121.694 433.097C122.228 432.724 122.601 432.231 122.814 431.617H124.774C124.481 432.671 123.894 433.531 123.014 434.197C122.134 434.851 121.041 435.177 119.734 435.177C118.694 435.177 117.761 434.944 116.934 434.477C116.121 434.011 115.481 433.351 115.014 432.497C114.548 431.631 114.314 430.631 114.314 429.497C114.314 428.364 114.541 427.371 114.994 426.517C115.448 425.664 116.081 425.011 116.894 424.557C117.721 424.091 118.668 423.857 119.734 423.857C120.774 423.857 121.694 424.084 122.494 424.537C123.294 424.991 123.908 425.617 124.334 426.417C124.774 427.204 124.994 428.097 124.994 429.097ZM123.114 428.717C123.114 428.024 122.961 427.431 122.654 426.937C122.348 426.431 121.928 426.051 121.394 425.797C120.874 425.531 120.294 425.397 119.654 425.397C118.734 425.397 117.948 425.691 117.294 426.277C116.654 426.864 116.288 427.677 116.194 428.717H123.114ZM139.469 434.997L136.149 429.297H133.949V434.997H132.129V421.057H136.629C137.682 421.057 138.569 421.237 139.289 421.597C140.022 421.957 140.569 422.444 140.929 423.057C141.289 423.671 141.469 424.371 141.469 425.157C141.469 426.117 141.189 426.964 140.629 427.697C140.082 428.431 139.255 428.917 138.149 429.157L141.649 434.997H139.469ZM133.949 427.837H136.629C137.615 427.837 138.355 427.597 138.849 427.117C139.342 426.624 139.589 425.971 139.589 425.157C139.589 424.331 139.342 423.691 138.849 423.237C138.369 422.784 137.629 422.557 136.629 422.557H133.949V427.837ZM150.317 435.137C149.023 435.137 147.843 434.837 146.777 434.237C145.71 433.624 144.863 432.777 144.237 431.697C143.623 430.604 143.317 429.377 143.317 428.017C143.317 426.657 143.623 425.437 144.237 424.357C144.863 423.264 145.71 422.417 146.777 421.817C147.843 421.204 149.023 420.897 150.317 420.897C151.623 420.897 152.81 421.204 153.877 421.817C154.943 422.417 155.783 423.257 156.397 424.337C157.01 425.417 157.317 426.644 157.317 428.017C157.317 429.391 157.01 430.617 156.397 431.697C155.783 432.777 154.943 433.624 153.877 434.237C152.81 434.837 151.623 435.137 150.317 435.137ZM150.317 433.557C151.29 433.557 152.163 433.331 152.937 432.877C153.723 432.424 154.337 431.777 154.777 430.937C155.23 430.097 155.457 429.124 155.457 428.017C155.457 426.897 155.23 425.924 154.777 425.097C154.337 424.257 153.73 423.611 152.957 423.157C152.183 422.704 151.303 422.477 150.317 422.477C149.33 422.477 148.45 422.704 147.677 423.157C146.903 423.611 146.29 424.257 145.837 425.097C145.397 425.924 145.177 426.897 145.177 428.017C145.177 429.124 145.397 430.097 145.837 430.937C146.29 431.777 146.903 432.424 147.677 432.877C148.463 433.331 149.343 433.557 150.317 433.557ZM170.939 421.057L165.679 434.997H163.579L158.319 421.057H160.259L164.639 433.077L169.019 421.057H170.939ZM176.515 435.177C175.675 435.177 174.922 435.037 174.255 434.757C173.588 434.464 173.062 434.064 172.675 433.557C172.288 433.037 172.075 432.444 172.035 431.777H173.915C173.968 432.324 174.222 432.771 174.675 433.117C175.142 433.464 175.748 433.637 176.495 433.637C177.188 433.637 177.735 433.484 178.135 433.177C178.535 432.871 178.735 432.484 178.735 432.017C178.735 431.537 178.522 431.184 178.095 430.957C177.668 430.717 177.008 430.484 176.115 430.257C175.302 430.044 174.635 429.831 174.115 429.617C173.608 429.391 173.168 429.064 172.795 428.637C172.435 428.197 172.255 427.624 172.255 426.917C172.255 426.357 172.422 425.844 172.755 425.377C173.088 424.911 173.562 424.544 174.175 424.277C174.788 423.997 175.488 423.857 176.275 423.857C177.488 423.857 178.468 424.164 179.215 424.777C179.962 425.391 180.362 426.231 180.415 427.297H178.595C178.555 426.724 178.322 426.264 177.895 425.917C177.482 425.571 176.922 425.397 176.215 425.397C175.562 425.397 175.042 425.537 174.655 425.817C174.268 426.097 174.075 426.464 174.075 426.917C174.075 427.277 174.188 427.577 174.415 427.817C174.655 428.044 174.948 428.231 175.295 428.377C175.655 428.511 176.148 428.664 176.775 428.837C177.562 429.051 178.202 429.264 178.695 429.477C179.188 429.677 179.608 429.984 179.955 430.397C180.315 430.811 180.502 431.351 180.515 432.017C180.515 432.617 180.348 433.157 180.015 433.637C179.682 434.117 179.208 434.497 178.595 434.777C177.995 435.044 177.302 435.177 176.515 435.177ZM192.496 438.717C191.216 437.464 190.216 435.871 189.496 433.937C188.79 432.004 188.436 429.917 188.436 427.677C188.436 425.384 188.81 423.244 189.556 421.257C190.316 419.257 191.396 417.611 192.796 416.317H194.696V416.497C193.203 417.897 192.076 419.584 191.316 421.557C190.57 423.517 190.196 425.557 190.196 427.677C190.196 429.744 190.55 431.717 191.256 433.597C191.976 435.477 193.023 437.124 194.396 438.537V438.717H192.496ZM203.938 434.997L200.618 429.297H198.418V434.997H196.598V421.057H201.098C202.152 421.057 203.038 421.237 203.758 421.597C204.492 421.957 205.038 422.444 205.398 423.057C205.758 423.671 205.938 424.371 205.938 425.157C205.938 426.117 205.658 426.964 205.098 427.697C204.552 428.431 203.725 428.917 202.618 429.157L206.118 434.997H203.938ZM198.418 427.837H201.098C202.085 427.837 202.825 427.597 203.318 427.117C203.812 426.624 204.058 425.971 204.058 425.157C204.058 424.331 203.812 423.691 203.318 423.237C202.838 422.784 202.098 422.557 201.098 422.557H198.418V427.837ZM218.466 429.097C218.466 429.444 218.446 429.811 218.406 430.197H209.646C209.713 431.277 210.08 432.124 210.746 432.737C211.426 433.337 212.246 433.637 213.206 433.637C213.993 433.637 214.646 433.457 215.166 433.097C215.7 432.724 216.073 432.231 216.286 431.617H218.246C217.953 432.671 217.366 433.531 216.486 434.197C215.606 434.851 214.513 435.177 213.206 435.177C212.166 435.177 211.233 434.944 210.406 434.477C209.593 434.011 208.953 433.351 208.486 432.497C208.02 431.631 207.786 430.631 207.786 429.497C207.786 428.364 208.013 427.371 208.466 426.517C208.92 425.664 209.553 425.011 210.366 424.557C211.193 424.091 212.14 423.857 213.206 423.857C214.246 423.857 215.166 424.084 215.966 424.537C216.766 424.991 217.38 425.617 217.806 426.417C218.246 427.204 218.466 428.097 218.466 429.097ZM216.586 428.717C216.586 428.024 216.433 427.431 216.126 426.937C215.82 426.431 215.4 426.051 214.866 425.797C214.346 425.531 213.766 425.397 213.126 425.397C212.206 425.397 211.42 425.691 210.766 426.277C210.126 426.864 209.76 427.677 209.666 428.717H216.586ZM233.749 423.837C234.602 423.837 235.362 424.017 236.029 424.377C236.695 424.724 237.222 425.251 237.609 425.957C237.995 426.664 238.189 427.524 238.189 428.537V434.997H236.389V428.797C236.389 427.704 236.115 426.871 235.569 426.297C235.035 425.711 234.309 425.417 233.389 425.417C232.442 425.417 231.689 425.724 231.129 426.337C230.569 426.937 230.289 427.811 230.289 428.957V434.997H228.489V428.797C228.489 427.704 228.215 426.871 227.669 426.297C227.135 425.711 226.409 425.417 225.489 425.417C224.542 425.417 223.789 425.724 223.229 426.337C222.669 426.937 222.389 427.811 222.389 428.957V434.997H220.569V424.037H222.389V425.617C222.749 425.044 223.229 424.604 223.829 424.297C224.442 423.991 225.115 423.837 225.849 423.837C226.769 423.837 227.582 424.044 228.289 424.457C228.995 424.871 229.522 425.477 229.869 426.277C230.175 425.504 230.682 424.904 231.389 424.477C232.095 424.051 232.882 423.837 233.749 423.837ZM245.654 435.177C244.627 435.177 243.694 434.944 242.854 434.477C242.027 434.011 241.374 433.351 240.894 432.497C240.427 431.631 240.194 430.631 240.194 429.497C240.194 428.377 240.434 427.391 240.914 426.537C241.407 425.671 242.074 425.011 242.914 424.557C243.754 424.091 244.694 423.857 245.734 423.857C246.774 423.857 247.714 424.091 248.554 424.557C249.394 425.011 250.054 425.664 250.534 426.517C251.027 427.371 251.274 428.364 251.274 429.497C251.274 430.631 251.021 431.631 250.514 432.497C250.021 433.351 249.347 434.011 248.494 434.477C247.641 434.944 246.694 435.177 245.654 435.177ZM245.654 433.577C246.307 433.577 246.921 433.424 247.494 433.117C248.067 432.811 248.527 432.351 248.874 431.737C249.234 431.124 249.414 430.377 249.414 429.497C249.414 428.617 249.241 427.871 248.894 427.257C248.547 426.644 248.094 426.191 247.534 425.897C246.974 425.591 246.367 425.437 245.714 425.437C245.047 425.437 244.434 425.591 243.874 425.897C243.327 426.191 242.887 426.644 242.554 427.257C242.221 427.871 242.054 428.617 242.054 429.497C242.054 430.391 242.214 431.144 242.534 431.757C242.867 432.371 243.307 432.831 243.854 433.137C244.401 433.431 245.001 433.577 245.654 433.577ZM255.587 425.537V431.997C255.587 432.531 255.7 432.911 255.927 433.137C256.154 433.351 256.547 433.457 257.107 433.457H258.447V434.997H256.807C255.794 434.997 255.034 434.764 254.527 434.297C254.02 433.831 253.767 433.064 253.767 431.997V425.537H252.347V424.037H253.767V421.277H255.587V424.037H258.447V425.537H255.587ZM270.352 429.097C270.352 429.444 270.332 429.811 270.292 430.197H261.532C261.599 431.277 261.966 432.124 262.632 432.737C263.312 433.337 264.132 433.637 265.092 433.637C265.879 433.637 266.532 433.457 267.052 433.097C267.586 432.724 267.959 432.231 268.172 431.617H270.132C269.839 432.671 269.252 433.531 268.372 434.197C267.492 434.851 266.399 435.177 265.092 435.177C264.052 435.177 263.119 434.944 262.292 434.477C261.479 434.011 260.839 433.351 260.372 432.497C259.906 431.631 259.672 430.631 259.672 429.497C259.672 428.364 259.899 427.371 260.352 426.517C260.806 425.664 261.439 425.011 262.252 424.557C263.079 424.091 264.026 423.857 265.092 423.857C266.132 423.857 267.052 424.084 267.852 424.537C268.652 424.991 269.266 425.617 269.692 426.417C270.132 427.204 270.352 428.097 270.352 429.097ZM268.472 428.717C268.472 428.024 268.319 427.431 268.012 426.937C267.706 426.431 267.286 426.051 266.752 425.797C266.232 425.531 265.652 425.397 265.012 425.397C264.092 425.397 263.306 425.691 262.652 426.277C262.012 426.864 261.646 427.677 261.552 428.717H268.472ZM274.275 420.197V434.997H272.455V420.197H274.275ZM286.516 424.037L279.916 440.157H278.036L280.196 434.877L275.776 424.037H277.796L281.236 432.917L284.636 424.037H286.516ZM299.398 435.137C298.105 435.137 296.925 434.837 295.858 434.237C294.791 433.624 293.945 432.777 293.318 431.697C292.705 430.604 292.398 429.377 292.398 428.017C292.398 426.657 292.705 425.437 293.318 424.357C293.945 423.264 294.791 422.417 295.858 421.817C296.925 421.204 298.105 420.897 299.398 420.897C300.705 420.897 301.891 421.204 302.958 421.817C304.025 422.417 304.865 423.257 305.478 424.337C306.091 425.417 306.398 426.644 306.398 428.017C306.398 429.391 306.091 430.617 305.478 431.697C304.865 432.777 304.025 433.624 302.958 434.237C301.891 434.837 300.705 435.137 299.398 435.137ZM299.398 433.557C300.371 433.557 301.245 433.331 302.018 432.877C302.805 432.424 303.418 431.777 303.858 430.937C304.311 430.097 304.538 429.124 304.538 428.017C304.538 426.897 304.311 425.924 303.858 425.097C303.418 424.257 302.811 423.611 302.038 423.157C301.265 422.704 300.385 422.477 299.398 422.477C298.411 422.477 297.531 422.704 296.758 423.157C295.985 423.611 295.371 424.257 294.918 425.097C294.478 425.924 294.258 426.897 294.258 428.017C294.258 429.124 294.478 430.097 294.918 430.937C295.371 431.777 295.985 432.424 296.758 432.877C297.545 433.331 298.425 433.557 299.398 433.557ZM310.321 426.057C310.681 425.431 311.214 424.911 311.921 424.497C312.641 424.071 313.474 423.857 314.421 423.857C315.394 423.857 316.274 424.091 317.061 424.557C317.861 425.024 318.487 425.684 318.941 426.537C319.394 427.377 319.621 428.357 319.621 429.477C319.621 430.584 319.394 431.571 318.941 432.437C318.487 433.304 317.861 433.977 317.061 434.457C316.274 434.937 315.394 435.177 314.421 435.177C313.487 435.177 312.661 434.971 311.941 434.557C311.234 434.131 310.694 433.604 310.321 432.977V440.197H308.501V424.037H310.321V426.057ZM317.761 429.477C317.761 428.651 317.594 427.931 317.261 427.317C316.927 426.704 316.474 426.237 315.901 425.917C315.341 425.597 314.721 425.437 314.041 425.437C313.374 425.437 312.754 425.604 312.181 425.937C311.621 426.257 311.167 426.731 310.821 427.357C310.487 427.971 310.321 428.684 310.321 429.497C310.321 430.324 310.487 431.051 310.821 431.677C311.167 432.291 311.621 432.764 312.181 433.097C312.754 433.417 313.374 433.577 314.041 433.577C314.721 433.577 315.341 433.417 315.901 433.097C316.474 432.764 316.927 432.291 317.261 431.677C317.594 431.051 317.761 430.317 317.761 429.477ZM331.716 429.097C331.716 429.444 331.696 429.811 331.656 430.197H322.896C322.963 431.277 323.33 432.124 323.996 432.737C324.676 433.337 325.496 433.637 326.456 433.637C327.243 433.637 327.896 433.457 328.416 433.097C328.95 432.724 329.323 432.231 329.536 431.617H331.496C331.203 432.671 330.616 433.531 329.736 434.197C328.856 434.851 327.763 435.177 326.456 435.177C325.416 435.177 324.483 434.944 323.656 434.477C322.843 434.011 322.203 433.351 321.736 432.497C321.27 431.631 321.036 430.631 321.036 429.497C321.036 428.364 321.263 427.371 321.716 426.517C322.17 425.664 322.803 425.011 323.616 424.557C324.443 424.091 325.39 423.857 326.456 423.857C327.496 423.857 328.416 424.084 329.216 424.537C330.016 424.991 330.63 425.617 331.056 426.417C331.496 427.204 331.716 428.097 331.716 429.097ZM329.836 428.717C329.836 428.024 329.683 427.431 329.376 426.937C329.07 426.431 328.65 426.051 328.116 425.797C327.596 425.531 327.016 425.397 326.376 425.397C325.456 425.397 324.67 425.691 324.016 426.277C323.376 426.864 323.01 427.677 322.916 428.717H329.836ZM335.639 425.817C335.959 425.191 336.412 424.704 336.999 424.357C337.599 424.011 338.325 423.837 339.179 423.837V425.717H338.699C336.659 425.717 335.639 426.824 335.639 429.037V434.997H333.819V424.037H335.639V425.817ZM340.3 429.477C340.3 428.357 340.526 427.377 340.98 426.537C341.433 425.684 342.053 425.024 342.84 424.557C343.64 424.091 344.526 423.857 345.5 423.857C346.46 423.857 347.293 424.064 348 424.477C348.706 424.891 349.233 425.411 349.58 426.037V424.037H351.42V434.997H349.58V432.957C349.22 433.597 348.68 434.131 347.96 434.557C347.253 434.971 346.426 435.177 345.48 435.177C344.506 435.177 343.626 434.937 342.84 434.457C342.053 433.977 341.433 433.304 340.98 432.437C340.526 431.571 340.3 430.584 340.3 429.477ZM349.58 429.497C349.58 428.671 349.413 427.951 349.08 427.337C348.746 426.724 348.293 426.257 347.72 425.937C347.16 425.604 346.54 425.437 345.86 425.437C345.18 425.437 344.56 425.597 344 425.917C343.44 426.237 342.993 426.704 342.66 427.317C342.326 427.931 342.16 428.651 342.16 429.477C342.16 430.317 342.326 431.051 342.66 431.677C342.993 432.291 343.44 432.764 344 433.097C344.56 433.417 345.18 433.577 345.86 433.577C346.54 433.577 347.16 433.417 347.72 433.097C348.293 432.764 348.746 432.291 349.08 431.677C349.413 431.051 349.58 430.324 349.58 429.497ZM356.415 425.537V431.997C356.415 432.531 356.529 432.911 356.755 433.137C356.982 433.351 357.375 433.457 357.935 433.457H359.275V434.997H357.635C356.622 434.997 355.862 434.764 355.355 434.297C354.849 433.831 354.595 433.064 354.595 431.997V425.537H353.175V424.037H354.595V421.277H356.415V424.037H359.275V425.537H356.415ZM371.18 429.097C371.18 429.444 371.16 429.811 371.12 430.197H362.36C362.427 431.277 362.794 432.124 363.46 432.737C364.14 433.337 364.96 433.637 365.92 433.637C366.707 433.637 367.36 433.457 367.88 433.097C368.414 432.724 368.787 432.231 369 431.617H370.96C370.667 432.671 370.08 433.531 369.2 434.197C368.32 434.851 367.227 435.177 365.92 435.177C364.88 435.177 363.947 434.944 363.12 434.477C362.307 434.011 361.667 433.351 361.2 432.497C360.734 431.631 360.5 430.631 360.5 429.497C360.5 428.364 360.727 427.371 361.18 426.517C361.634 425.664 362.267 425.011 363.08 424.557C363.907 424.091 364.854 423.857 365.92 423.857C366.96 423.857 367.88 424.084 368.68 424.537C369.48 424.991 370.094 425.617 370.52 426.417C370.96 427.204 371.18 428.097 371.18 429.097ZM369.3 428.717C369.3 428.024 369.147 427.431 368.84 426.937C368.534 426.431 368.114 426.051 367.58 425.797C367.06 425.531 366.48 425.397 365.84 425.397C364.92 425.397 364.134 425.691 363.48 426.277C362.84 426.864 362.474 427.677 362.38 428.717H369.3ZM372.603 429.477C372.603 428.357 372.829 427.377 373.283 426.537C373.736 425.684 374.356 425.024 375.143 424.557C375.943 424.091 376.836 423.857 377.823 423.857C378.676 423.857 379.469 424.057 380.203 424.457C380.936 424.844 381.496 425.357 381.883 425.997V420.197H383.723V434.997H381.883V432.937C381.523 433.591 380.989 434.131 380.283 434.557C379.576 434.971 378.749 435.177 377.803 435.177C376.829 435.177 375.943 434.937 375.143 434.457C374.356 433.977 373.736 433.304 373.283 432.437C372.829 431.571 372.603 430.584 372.603 429.477ZM381.883 429.497C381.883 428.671 381.716 427.951 381.383 427.337C381.049 426.724 380.596 426.257 380.023 425.937C379.463 425.604 378.843 425.437 378.163 425.437C377.483 425.437 376.863 425.597 376.303 425.917C375.743 426.237 375.296 426.704 374.963 427.317C374.629 427.931 374.463 428.651 374.463 429.477C374.463 430.317 374.629 431.051 374.963 431.677C375.296 432.291 375.743 432.764 376.303 433.097C376.863 433.417 377.483 433.577 378.163 433.577C378.843 433.577 379.463 433.417 380.023 433.097C380.596 432.764 381.049 432.291 381.383 431.677C381.716 431.051 381.883 430.324 381.883 429.497ZM403.05 421.057L397.79 434.997H395.69L390.43 421.057H392.37L396.75 433.077L401.13 421.057H403.05ZM414.746 429.097C414.746 429.444 414.726 429.811 414.686 430.197H405.926C405.993 431.277 406.359 432.124 407.026 432.737C407.706 433.337 408.526 433.637 409.486 433.637C410.273 433.637 410.926 433.457 411.446 433.097C411.979 432.724 412.353 432.231 412.566 431.617H414.526C414.233 432.671 413.646 433.531 412.766 434.197C411.886 434.851 410.793 435.177 409.486 435.177C408.446 435.177 407.513 434.944 406.686 434.477C405.873 434.011 405.233 433.351 404.766 432.497C404.299 431.631 404.066 430.631 404.066 429.497C404.066 428.364 404.293 427.371 404.746 426.517C405.199 425.664 405.833 425.011 406.646 424.557C407.473 424.091 408.419 423.857 409.486 423.857C410.526 423.857 411.446 424.084 412.246 424.537C413.046 424.991 413.659 425.617 414.086 426.417C414.526 427.204 414.746 428.097 414.746 429.097ZM412.866 428.717C412.866 428.024 412.713 427.431 412.406 426.937C412.099 426.431 411.679 426.051 411.146 425.797C410.626 425.531 410.046 425.397 409.406 425.397C408.486 425.397 407.699 425.691 407.046 426.277C406.406 426.864 406.039 427.677 405.946 428.717H412.866ZM422.288 423.837C423.115 423.837 423.862 424.017 424.528 424.377C425.195 424.724 425.715 425.251 426.088 425.957C426.475 426.664 426.668 427.524 426.668 428.537V434.997H424.868V428.797C424.868 427.704 424.595 426.871 424.048 426.297C423.502 425.711 422.755 425.417 421.808 425.417C420.848 425.417 420.082 425.717 419.508 426.317C418.948 426.917 418.668 427.791 418.668 428.937V434.997H416.848V420.197H418.668V425.597C419.028 425.037 419.522 424.604 420.148 424.297C420.788 423.991 421.502 423.837 422.288 423.837ZM430.281 422.257C429.935 422.257 429.641 422.137 429.401 421.897C429.161 421.657 429.041 421.364 429.041 421.017C429.041 420.671 429.161 420.377 429.401 420.137C429.641 419.897 429.935 419.777 430.281 419.777C430.615 419.777 430.895 419.897 431.121 420.137C431.361 420.377 431.481 420.671 431.481 421.017C431.481 421.364 431.361 421.657 431.121 421.897C430.895 422.137 430.615 422.257 430.281 422.257ZM431.161 424.037V434.997H429.341V424.037H431.161ZM433.283 429.497C433.283 428.364 433.51 427.377 433.963 426.537C434.416 425.684 435.043 425.024 435.843 424.557C436.656 424.091 437.583 423.857 438.623 423.857C439.97 423.857 441.076 424.184 441.943 424.837C442.823 425.491 443.403 426.397 443.683 427.557H441.723C441.536 426.891 441.17 426.364 440.623 425.977C440.09 425.591 439.423 425.397 438.623 425.397C437.583 425.397 436.743 425.757 436.103 426.477C435.463 427.184 435.143 428.191 435.143 429.497C435.143 430.817 435.463 431.837 436.103 432.557C436.743 433.277 437.583 433.637 438.623 433.637C439.423 433.637 440.09 433.451 440.623 433.077C441.156 432.704 441.523 432.171 441.723 431.477H443.683C443.39 432.597 442.803 433.497 441.923 434.177C441.043 434.844 439.943 435.177 438.623 435.177C437.583 435.177 436.656 434.944 435.843 434.477C435.043 434.011 434.416 433.351 433.963 432.497C433.51 431.644 433.283 430.644 433.283 429.497ZM447.632 420.197V434.997H445.812V420.197H447.632ZM460.433 429.097C460.433 429.444 460.413 429.811 460.373 430.197H451.613C451.68 431.277 452.047 432.124 452.713 432.737C453.393 433.337 454.213 433.637 455.173 433.637C455.96 433.637 456.613 433.457 457.133 433.097C457.667 432.724 458.04 432.231 458.253 431.617H460.213C459.92 432.671 459.333 433.531 458.453 434.197C457.573 434.851 456.48 435.177 455.173 435.177C454.133 435.177 453.2 434.944 452.373 434.477C451.56 434.011 450.92 433.351 450.453 432.497C449.987 431.631 449.753 430.631 449.753 429.497C449.753 428.364 449.98 427.371 450.433 426.517C450.887 425.664 451.52 425.011 452.333 424.557C453.16 424.091 454.107 423.857 455.173 423.857C456.213 423.857 457.133 424.084 457.933 424.537C458.733 424.991 459.347 425.617 459.773 426.417C460.213 427.204 460.433 428.097 460.433 429.097ZM458.553 428.717C458.553 428.024 458.4 427.431 458.093 426.937C457.787 426.431 457.367 426.051 456.833 425.797C456.313 425.531 455.733 425.397 455.093 425.397C454.173 425.397 453.387 425.691 452.733 426.277C452.093 426.864 451.727 427.677 451.633 428.717H458.553ZM461.956 438.717V438.537C463.329 437.124 464.369 435.477 465.076 433.597C465.796 431.717 466.156 429.744 466.156 427.677C466.156 425.557 465.776 423.517 465.016 421.557C464.269 419.584 463.149 417.897 461.656 416.497V416.317H463.556C464.956 417.611 466.029 419.257 466.776 421.257C467.536 423.244 467.916 425.384 467.916 427.677C467.916 429.917 467.556 432.004 466.836 433.937C466.129 435.871 465.136 437.464 463.856 438.717H461.956ZM475.67 429.497C475.67 428.364 475.897 427.377 476.35 426.537C476.803 425.684 477.43 425.024 478.23 424.557C479.043 424.091 479.97 423.857 481.01 423.857C482.357 423.857 483.463 424.184 484.33 424.837C485.21 425.491 485.79 426.397 486.07 427.557H484.11C483.923 426.891 483.557 426.364 483.01 425.977C482.477 425.591 481.81 425.397 481.01 425.397C479.97 425.397 479.13 425.757 478.49 426.477C477.85 427.184 477.53 428.191 477.53 429.497C477.53 430.817 477.85 431.837 478.49 432.557C479.13 433.277 479.97 433.637 481.01 433.637C481.81 433.637 482.477 433.451 483.01 433.077C483.543 432.704 483.91 432.171 484.11 431.477H486.07C485.777 432.597 485.19 433.497 484.31 434.177C483.43 434.844 482.33 435.177 481.01 435.177C479.97 435.177 479.043 434.944 478.23 434.477C477.43 434.011 476.803 433.351 476.35 432.497C475.897 431.644 475.67 430.644 475.67 429.497ZM487.518 429.477C487.518 428.357 487.745 427.377 488.198 426.537C488.652 425.684 489.272 425.024 490.058 424.557C490.858 424.091 491.745 423.857 492.718 423.857C493.678 423.857 494.512 424.064 495.218 424.477C495.925 424.891 496.452 425.411 496.798 426.037V424.037H498.638V434.997H496.798V432.957C496.438 433.597 495.898 434.131 495.178 434.557C494.472 434.971 493.645 435.177 492.698 435.177C491.725 435.177 490.845 434.937 490.058 434.457C489.272 433.977 488.652 433.304 488.198 432.437C487.745 431.571 487.518 430.584 487.518 429.477ZM496.798 429.497C496.798 428.671 496.632 427.951 496.298 427.337C495.965 426.724 495.512 426.257 494.938 425.937C494.378 425.604 493.758 425.437 493.078 425.437C492.398 425.437 491.778 425.597 491.218 425.917C490.658 426.237 490.212 426.704 489.878 427.317C489.545 427.931 489.378 428.651 489.378 429.477C489.378 430.317 489.545 431.051 489.878 431.677C490.212 432.291 490.658 432.764 491.218 433.097C491.778 433.417 492.398 433.577 493.078 433.577C493.758 433.577 494.378 433.417 494.938 433.097C495.512 432.764 495.965 432.291 496.298 431.677C496.632 431.051 496.798 430.324 496.798 429.497ZM503.234 426.057C503.594 425.431 504.127 424.911 504.834 424.497C505.554 424.071 506.387 423.857 507.334 423.857C508.307 423.857 509.187 424.091 509.974 424.557C510.774 425.024 511.401 425.684 511.854 426.537C512.307 427.377 512.534 428.357 512.534 429.477C512.534 430.584 512.307 431.571 511.854 432.437C511.401 433.304 510.774 433.977 509.974 434.457C509.187 434.937 508.307 435.177 507.334 435.177C506.401 435.177 505.574 434.971 504.854 434.557C504.147 434.131 503.607 433.604 503.234 432.977V440.197H501.414V424.037H503.234V426.057ZM510.674 429.477C510.674 428.651 510.507 427.931 510.174 427.317C509.841 426.704 509.387 426.237 508.814 425.917C508.254 425.597 507.634 425.437 506.954 425.437C506.287 425.437 505.667 425.604 505.094 425.937C504.534 426.257 504.081 426.731 503.734 427.357C503.401 427.971 503.234 428.684 503.234 429.497C503.234 430.324 503.401 431.051 503.734 431.677C504.081 432.291 504.534 432.764 505.094 433.097C505.667 433.417 506.287 433.577 506.954 433.577C507.634 433.577 508.254 433.417 508.814 433.097C509.387 432.764 509.841 432.291 510.174 431.677C510.507 431.051 510.674 430.317 510.674 429.477ZM513.95 429.477C513.95 428.357 514.176 427.377 514.63 426.537C515.083 425.684 515.703 425.024 516.49 424.557C517.29 424.091 518.176 423.857 519.15 423.857C520.11 423.857 520.943 424.064 521.65 424.477C522.356 424.891 522.883 425.411 523.23 426.037V424.037H525.07V434.997H523.23V432.957C522.87 433.597 522.33 434.131 521.61 434.557C520.903 434.971 520.076 435.177 519.13 435.177C518.156 435.177 517.276 434.937 516.49 434.457C515.703 433.977 515.083 433.304 514.63 432.437C514.176 431.571 513.95 430.584 513.95 429.477ZM523.23 429.497C523.23 428.671 523.063 427.951 522.73 427.337C522.396 426.724 521.943 426.257 521.37 425.937C520.81 425.604 520.19 425.437 519.51 425.437C518.83 425.437 518.21 425.597 517.65 425.917C517.09 426.237 516.643 426.704 516.31 427.317C515.976 427.931 515.81 428.651 515.81 429.477C515.81 430.317 515.976 431.051 516.31 431.677C516.643 432.291 517.09 432.764 517.65 433.097C518.21 433.417 518.83 433.577 519.51 433.577C520.19 433.577 520.81 433.417 521.37 433.097C521.943 432.764 522.396 432.291 522.73 431.677C523.063 431.051 523.23 430.324 523.23 429.497ZM529.665 426.077C530.039 425.424 530.585 424.891 531.305 424.477C532.025 424.064 532.845 423.857 533.765 423.857C534.752 423.857 535.639 424.091 536.425 424.557C537.212 425.024 537.832 425.684 538.285 426.537C538.739 427.377 538.965 428.357 538.965 429.477C538.965 430.584 538.739 431.571 538.285 432.437C537.832 433.304 537.205 433.977 536.405 434.457C535.619 434.937 534.739 435.177 533.765 435.177C532.819 435.177 531.985 434.971 531.265 434.557C530.559 434.144 530.025 433.617 529.665 432.977V434.997H527.845V420.197H529.665V426.077ZM537.105 429.477C537.105 428.651 536.939 427.931 536.605 427.317C536.272 426.704 535.819 426.237 535.245 425.917C534.685 425.597 534.065 425.437 533.385 425.437C532.719 425.437 532.099 425.604 531.525 425.937C530.965 426.257 530.512 426.731 530.165 427.357C529.832 427.971 529.665 428.684 529.665 429.497C529.665 430.324 529.832 431.051 530.165 431.677C530.512 432.291 530.965 432.764 531.525 433.097C532.099 433.417 532.719 433.577 533.385 433.577C534.065 433.577 534.685 433.417 535.245 433.097C535.819 432.764 536.272 432.291 536.605 431.677C536.939 431.051 537.105 430.317 537.105 429.477ZM542.881 420.197V434.997H541.061V420.197H542.881ZM555.683 429.097C555.683 429.444 555.663 429.811 555.623 430.197H546.863C546.929 431.277 547.296 432.124 547.963 432.737C548.643 433.337 549.463 433.637 550.423 433.637C551.209 433.637 551.863 433.457 552.383 433.097C552.916 432.724 553.289 432.231 553.503 431.617H555.463C555.169 432.671 554.583 433.531 553.703 434.197C552.823 434.851 551.729 435.177 550.423 435.177C549.383 435.177 548.449 434.944 547.623 434.477C546.809 434.011 546.169 433.351 545.703 432.497C545.236 431.631 545.003 430.631 545.003 429.497C545.003 428.364 545.229 427.371 545.683 426.517C546.136 425.664 546.769 425.011 547.583 424.557C548.409 424.091 549.356 423.857 550.423 423.857C551.463 423.857 552.383 424.084 553.183 424.537C553.983 424.991 554.596 425.617 555.023 426.417C555.463 427.204 555.683 428.097 555.683 429.097ZM553.803 428.717C553.803 428.024 553.649 427.431 553.343 426.937C553.036 426.431 552.616 426.051 552.083 425.797C551.563 425.531 550.983 425.397 550.343 425.397C549.423 425.397 548.636 425.691 547.983 426.277C547.343 426.864 546.976 427.677 546.883 428.717H553.803ZM558.365 435.117C558.018 435.117 557.725 434.997 557.485 434.757C557.245 434.517 557.125 434.224 557.125 433.877C557.125 433.531 557.245 433.237 557.485 432.997C557.725 432.757 558.018 432.637 558.365 432.637C558.698 432.637 558.978 432.757 559.205 432.997C559.445 433.237 559.565 433.531 559.565 433.877C559.565 434.224 559.445 434.517 559.205 434.757C558.978 434.997 558.698 435.117 558.365 435.117ZM562.264 435.117C561.918 435.117 561.624 434.997 561.384 434.757C561.144 434.517 561.024 434.224 561.024 433.877C561.024 433.531 561.144 433.237 561.384 432.997C561.624 432.757 561.918 432.637 562.264 432.637C562.598 432.637 562.878 432.757 563.104 432.997C563.344 433.237 563.464 433.531 563.464 433.877C563.464 434.224 563.344 434.517 563.104 434.757C562.878 434.997 562.598 435.117 562.264 435.117ZM566.163 435.117C565.817 435.117 565.523 434.997 565.283 434.757C565.043 434.517 564.923 434.224 564.923 433.877C564.923 433.531 565.043 433.237 565.283 432.997C565.523 432.757 565.817 432.637 566.163 432.637C566.497 432.637 566.777 432.757 567.003 432.997C567.243 433.237 567.363 433.531 567.363 433.877C567.363 434.224 567.243 434.517 567.003 434.757C566.777 434.997 566.497 435.117 566.163 435.117Z" fill="black"/>
<path d="M73.2823 81.5336L74.0166 83.0572L67.778 86.0641L70.1101 90.9026L75.1751 88.4614L75.9094 89.985L70.8444 92.4262L73.9604 98.8912L72.0868 99.7943L65.1701 85.4435L73.2823 81.5336ZM86.4837 90.9777L91.5075 88.5564L92.2419 90.08L85.3444 93.4044L78.4277 79.0536L80.3013 78.1506L86.4837 90.9777ZM104.059 80.4518L97.7996 83.4686L98.1848 87.2156L96.2082 88.1683L94.5197 71.3991L96.6815 70.3572L108.727 82.1348L106.75 83.0874L104.059 80.4518ZM102.789 79.1862L96.7018 73.1891L97.6006 81.6869L102.789 79.1862ZM119.829 64.2242C119.028 63.5787 118.14 63.2115 117.167 63.1224C116.187 63.0195 115.196 63.2096 114.194 63.6925C113.192 64.1755 112.399 64.8455 111.814 65.7025C111.236 66.5392 110.922 67.5024 110.872 68.592C110.829 69.6614 111.079 70.7588 111.622 71.8844C112.164 73.0099 112.867 73.8891 113.73 74.5218C114.607 75.1479 115.556 75.5024 116.577 75.5854C117.605 75.648 118.62 75.4379 119.622 74.9549C121.022 74.2801 121.974 73.3057 122.476 72.0318C122.978 70.7579 122.961 69.3707 122.424 67.8704L116.7 70.6292L115.966 69.1056L123.687 65.3842L124.382 66.8255C124.841 68.0589 124.993 69.3219 124.838 70.6145C124.676 71.8934 124.219 73.0692 123.468 74.1418C122.709 75.2008 121.699 76.0346 120.436 76.6432C119.105 77.285 117.741 77.5616 116.345 77.4732C114.943 77.3711 113.651 76.9195 112.47 76.1186C111.303 75.3111 110.382 74.2074 109.707 72.8073C109.032 71.4072 108.743 69.9991 108.838 68.5829C108.941 67.1465 109.392 65.8547 110.193 64.7078C110.986 63.5471 112.049 62.6459 113.38 62.0042C114.904 61.2699 116.431 60.999 117.962 61.1916C119.506 61.3776 120.877 62.0279 122.074 63.1425L119.829 64.2242ZM137.398 68.4935C136.451 68.95 135.52 69.1955 134.606 69.2299C133.7 69.244 132.892 69.0585 132.182 68.6733C131.465 68.2745 130.911 67.6871 130.52 66.9114L132.518 65.9488C132.91 66.5883 133.459 67.0256 134.165 67.2608C134.877 67.4756 135.7 67.358 136.634 66.9081C137.526 66.4781 138.12 65.9211 138.416 65.2371C138.719 64.5327 138.702 63.8305 138.365 63.1305C138.1 62.5814 137.734 62.2081 137.267 62.0105C136.8 61.8129 136.296 61.734 135.757 61.7739C135.218 61.8138 134.515 61.916 133.647 62.0806C132.581 62.29 131.7 62.4101 131.004 62.4409C130.323 62.4651 129.65 62.3156 128.987 61.9925C128.331 61.649 127.788 61.0312 127.358 60.139C126.981 59.3566 126.846 58.5675 126.953 57.7716C127.059 56.9758 127.39 56.2412 127.945 55.5678C128.514 54.8877 129.265 54.3227 130.199 53.8729C131.544 53.2245 132.804 53.0315 133.979 53.294C135.168 53.5498 136.085 54.2071 136.731 55.266L134.672 56.2584C134.339 55.7424 133.819 55.4009 133.113 55.2339C132.4 55.0532 131.625 55.1646 130.787 55.5681C130.005 55.9452 129.466 56.4588 129.17 57.1087C128.868 57.7449 128.892 58.4268 129.243 59.1543C129.494 59.6759 129.843 60.0319 130.29 60.2224C130.751 60.4063 131.237 60.4849 131.749 60.4583C132.267 60.4113 132.971 60.3091 133.859 60.1516C134.932 59.9559 135.819 59.8495 136.522 59.8325C137.217 59.8017 137.9 59.9547 138.57 60.2916C139.233 60.6147 139.783 61.2292 140.219 62.1351C140.557 62.8352 140.689 63.5834 140.616 64.3797C140.543 65.176 140.236 65.9416 139.693 66.6766C139.151 67.4115 138.386 68.0172 137.398 68.4935ZM151.884 43.6492L158.801 57.9999L156.928 58.903L153.792 52.3967L146.482 55.9196L149.618 62.4259L147.745 63.3289L140.828 48.9781L142.702 48.0751L145.738 54.3754L153.047 50.8525L150.011 44.5522L151.884 43.6492ZM159.84 39.8148L166.757 54.1656L164.883 55.0687L157.966 40.7179L159.84 39.8148ZM177.535 36.4623C178.11 37.6565 178.178 38.8501 177.738 40.0432C177.305 41.2159 176.252 42.2058 174.577 43.0129L171.818 44.3427L174.706 50.3342L172.832 51.2372L165.916 36.8865L170.548 34.6536C172.168 33.873 173.585 33.6721 174.799 34.0509C176.027 34.4231 176.939 35.2269 177.535 36.4623ZM173.833 41.4687C174.876 40.9659 175.536 40.369 175.811 39.6778C176.087 38.9867 176.023 38.2225 175.62 37.3852C174.766 35.6145 173.324 35.2187 171.292 36.1978L168.533 37.5276L171.074 42.7985L173.833 41.4687Z" fill="black"/>
<defs>
<linearGradient id="paint0_linear_117_233" x1="241.782" y1="5.49738" x2="44.2817" y2="110.497" gradientUnits="userSpaceOnUse">
<stop stop-color="#FFE352"/>
<stop offset="1" stop-color="#F5C568"/>
</linearGradient>
</defs>
</svg>
