<svg width="611" height="442" viewBox="0 0 611 442" fill="none" xmlns="http://www.w3.org/2000/svg">
<rect width="611" height="442" fill="#030929"/>
<rect y="287" width="611" height="155" fill="white"/>
<path d="M46.5197 316.187L42.8062 329H40.9311L37.9529 318.687L34.8644 329L33.0077 329.018L29.4228 316.187H31.2061L34.0004 327.051L37.0889 316.187H38.964L41.9054 327.015L44.7181 316.187H46.5197ZM53.884 329.129C52.6952 329.129 51.6105 328.853 50.6301 328.301C49.6496 327.738 48.8714 326.959 48.2953 325.967C47.7316 324.962 47.4497 323.834 47.4497 322.584C47.4497 321.334 47.7316 320.213 48.2953 319.22C48.8714 318.215 49.6496 317.437 50.6301 316.885C51.6105 316.321 52.6952 316.039 53.884 316.039C55.0851 316.039 56.1758 316.321 57.1563 316.885C58.1368 317.437 58.9089 318.209 59.4727 319.201C60.0364 320.194 60.3183 321.322 60.3183 322.584C60.3183 323.846 60.0364 324.974 59.4727 325.967C58.9089 326.959 58.1368 327.738 57.1563 328.301C56.1758 328.853 55.0851 329.129 53.884 329.129ZM53.884 327.676C54.7787 327.676 55.5814 327.468 56.2923 327.051C57.0154 326.635 57.5791 326.04 57.9836 325.268C58.4003 324.496 58.6086 323.601 58.6086 322.584C58.6086 321.555 58.4003 320.66 57.9836 319.9C57.5791 319.128 57.0215 318.534 56.3107 318.117C55.5998 317.7 54.7909 317.492 53.884 317.492C52.9771 317.492 52.1682 317.7 51.4573 318.117C50.7465 318.534 50.1827 319.128 49.766 319.9C49.3616 320.66 49.1594 321.555 49.1594 322.584C49.1594 323.601 49.3616 324.496 49.766 325.268C50.1827 326.04 50.7465 326.635 51.4573 327.051C52.1804 327.468 52.9893 327.676 53.884 327.676ZM68.9979 329L65.9462 323.761H63.924V329H62.251V316.187H66.3874C67.3556 316.187 68.1706 316.352 68.8324 316.683C69.5065 317.014 70.009 317.461 70.3399 318.025C70.6708 318.589 70.8363 319.232 70.8363 319.955C70.8363 320.838 70.5789 321.616 70.0641 322.29C69.5617 322.964 68.8018 323.411 67.7846 323.632L71.0017 329H68.9979ZM63.924 322.419H66.3874C67.2943 322.419 67.9745 322.198 68.428 321.757C68.8815 321.303 69.1082 320.703 69.1082 319.955C69.1082 319.195 68.8815 318.607 68.428 318.19C67.9868 317.774 67.3066 317.565 66.3874 317.565H63.924V322.419ZM80.109 329L74.8329 323.154V329H73.1599V316.187H74.8329V322.124L80.1274 316.187H82.2415L76.4323 322.602L82.2967 329H80.109ZM87.9521 329.129C87.1065 329.129 86.3466 328.982 85.6725 328.687C85.0107 328.381 84.4898 327.964 84.1099 327.437C83.73 326.898 83.5339 326.279 83.5216 325.581H85.3049C85.3661 326.181 85.6113 326.69 86.0402 327.106C86.4814 327.511 87.1187 327.713 87.9521 327.713C88.7487 327.713 89.3738 327.517 89.8273 327.125C90.293 326.72 90.5258 326.206 90.5258 325.581C90.5258 325.09 90.391 324.692 90.1214 324.386C89.8518 324.079 89.5147 323.846 89.1103 323.687C88.7059 323.528 88.1605 323.356 87.4741 323.172C86.6285 322.952 85.9483 322.731 85.4335 322.511C84.9311 322.29 84.496 321.947 84.1283 321.481C83.7729 321.003 83.5952 320.366 83.5952 319.569C83.5952 318.871 83.7729 318.252 84.1283 317.712C84.4837 317.173 84.9801 316.756 85.6174 316.462C86.2669 316.168 87.0084 316.021 87.8418 316.021C89.0429 316.021 90.0234 316.321 90.7832 316.922C91.5553 317.522 91.9904 318.319 92.0885 319.312H90.2501C90.1888 318.822 89.9314 318.393 89.478 318.025C89.0245 317.645 88.424 317.455 87.6764 317.455C86.9778 317.455 86.4079 317.639 85.9667 318.007C85.5255 318.362 85.3049 318.864 85.3049 319.514C85.3049 319.98 85.4335 320.36 85.6909 320.654C85.9605 320.948 86.2853 321.175 86.6653 321.334C87.0574 321.481 87.6028 321.653 88.3014 321.849C89.1471 322.082 89.8273 322.314 90.342 322.547C90.8568 322.768 91.298 323.117 91.6656 323.595C92.0333 324.061 92.2172 324.698 92.2172 325.507C92.2172 326.132 92.0517 326.72 91.7208 327.272C91.3899 327.823 90.8996 328.271 90.2501 328.614C89.6005 328.957 88.8345 329.129 87.9521 329.129ZM104.275 316.187V329H102.602V323.191H96.0762V329H94.4032V316.187H96.0762V321.812H102.602V316.187H104.275ZM112.665 329.129C111.477 329.129 110.392 328.853 109.411 328.301C108.431 327.738 107.653 326.959 107.077 325.967C106.513 324.962 106.231 323.834 106.231 322.584C106.231 321.334 106.513 320.213 107.077 319.22C107.653 318.215 108.431 317.437 109.411 316.885C110.392 316.321 111.477 316.039 112.665 316.039C113.866 316.039 114.957 316.321 115.938 316.885C116.918 317.437 117.69 318.209 118.254 319.201C118.818 320.194 119.1 321.322 119.1 322.584C119.1 323.846 118.818 324.974 118.254 325.967C117.69 326.959 116.918 327.738 115.938 328.301C114.957 328.853 113.866 329.129 112.665 329.129ZM112.665 327.676C113.56 327.676 114.363 327.468 115.074 327.051C115.797 326.635 116.36 326.04 116.765 325.268C117.182 324.496 117.39 323.601 117.39 322.584C117.39 321.555 117.182 320.66 116.765 319.9C116.36 319.128 115.803 318.534 115.092 318.117C114.381 317.7 113.572 317.492 112.665 317.492C111.758 317.492 110.95 317.7 110.239 318.117C109.528 318.534 108.964 319.128 108.547 319.9C108.143 320.66 107.941 321.555 107.941 322.584C107.941 323.601 108.143 324.496 108.547 325.268C108.964 326.04 109.528 326.635 110.239 327.051C110.962 327.468 111.771 327.676 112.665 327.676ZM129.599 319.937C129.599 321.003 129.232 321.892 128.496 322.602C127.773 323.301 126.664 323.65 125.169 323.65H122.705V329H121.032V316.187H125.169C126.615 316.187 127.712 316.536 128.459 317.234C129.219 317.933 129.599 318.834 129.599 319.937ZM125.169 322.272C126.1 322.272 126.787 322.069 127.228 321.665C127.669 321.26 127.89 320.684 127.89 319.937C127.89 318.356 126.983 317.565 125.169 317.565H122.705V322.272H125.169ZM141.837 329.129C140.649 329.129 139.564 328.853 138.583 328.301C137.603 327.738 136.825 326.959 136.249 325.967C135.685 324.962 135.403 323.834 135.403 322.584C135.403 321.334 135.685 320.213 136.249 319.22C136.825 318.215 137.603 317.437 138.583 316.885C139.564 316.321 140.649 316.039 141.837 316.039C143.038 316.039 144.129 316.321 145.11 316.885C146.09 317.437 146.862 318.209 147.426 319.201C147.99 320.194 148.272 321.322 148.272 322.584C148.272 323.846 147.99 324.974 147.426 325.967C146.862 326.959 146.09 327.738 145.11 328.301C144.129 328.853 143.038 329.129 141.837 329.129ZM141.837 327.676C142.732 327.676 143.535 327.468 144.246 327.051C144.969 326.635 145.532 326.04 145.937 325.268C146.354 324.496 146.562 323.601 146.562 322.584C146.562 321.555 146.354 320.66 145.937 319.9C145.532 319.128 144.975 318.534 144.264 318.117C143.553 317.7 142.744 317.492 141.837 317.492C140.93 317.492 140.122 317.7 139.411 318.117C138.7 318.534 138.136 319.128 137.719 319.9C137.315 320.66 137.113 321.555 137.113 322.584C137.113 323.601 137.315 324.496 137.719 325.268C138.136 326.04 138.7 326.635 139.411 327.051C140.134 327.468 140.943 327.676 141.837 327.676ZM160.279 329H158.606L151.877 318.797V329H150.204V316.168H151.877L158.606 326.353V316.168H160.279V329Z" fill="black"/>
<path d="M46.3616 347.267V351.703H40.3382V370H34.8006V351.703H28.7772V347.267H46.3616ZM59.4064 370.227C57.2691 370.227 55.3045 369.73 53.5126 368.737C51.7423 367.744 50.3282 366.362 49.2703 364.592C48.234 362.8 47.7159 360.792 47.7159 358.569C47.7159 356.345 48.234 354.348 49.2703 352.578C50.3282 350.807 51.7423 349.426 53.5126 348.432C55.3045 347.439 57.2691 346.943 59.4064 346.943C61.5438 346.943 63.4976 347.439 65.2679 348.432C67.0598 349.426 68.4631 350.807 69.4778 352.578C70.5141 354.348 71.0322 356.345 71.0322 358.569C71.0322 360.792 70.5141 362.8 69.4778 364.592C68.4415 366.362 67.0382 367.744 65.2679 368.737C63.4976 369.73 61.5438 370.227 59.4064 370.227ZM59.4064 365.175C61.2199 365.175 62.6664 364.57 63.7459 363.361C64.8469 362.152 65.3974 360.555 65.3974 358.569C65.3974 356.561 64.8469 354.963 63.7459 353.776C62.6664 352.567 61.2199 351.962 59.4064 351.962C57.5713 351.962 56.1033 352.556 55.0022 353.743C53.9228 354.931 53.383 356.539 53.383 358.569C53.383 360.576 53.9228 362.185 55.0022 363.394C56.1033 364.581 57.5713 365.175 59.4064 365.175ZM90.9525 354.585C90.9525 355.902 90.6503 357.111 90.0458 358.212C89.4413 359.292 88.5129 360.166 87.2608 360.835C86.0086 361.505 84.4542 361.839 82.5975 361.839H79.1648V370H73.6272V347.267H82.5975C84.411 347.267 85.9438 347.58 87.196 348.206C88.4482 348.832 89.3873 349.695 90.0134 350.796C90.6395 351.897 90.9525 353.16 90.9525 354.585ZM82.1765 357.435C83.2344 357.435 84.0224 357.187 84.5405 356.69C85.0587 356.194 85.3177 355.492 85.3177 354.585C85.3177 353.679 85.0587 352.977 84.5405 352.48C84.0224 351.984 83.2344 351.736 82.1765 351.736H79.1648V357.435H82.1765ZM98.8873 347.267V370H93.3497V347.267H98.8873ZM101.475 358.601C101.475 356.356 101.961 354.359 102.933 352.61C103.904 350.84 105.254 349.469 106.981 348.497C108.729 347.504 110.705 347.008 112.907 347.008C115.606 347.008 117.916 347.72 119.837 349.145C121.758 350.57 123.043 352.513 123.691 354.974H117.603C117.149 354.024 116.502 353.301 115.66 352.804C114.839 352.308 113.9 352.059 112.842 352.059C111.137 352.059 109.755 352.653 108.697 353.841C107.639 355.028 107.11 356.615 107.11 358.601C107.11 360.587 107.639 362.174 108.697 363.361C109.755 364.549 111.137 365.142 112.842 365.142C113.9 365.142 114.839 364.894 115.66 364.398C116.502 363.901 117.149 363.178 117.603 362.228H123.691C123.043 364.689 121.758 366.632 119.837 368.057C117.916 369.46 115.606 370.162 112.907 370.162C110.705 370.162 108.729 369.676 106.981 368.705C105.254 367.712 103.904 366.341 102.933 364.592C101.961 362.843 101.475 360.846 101.475 358.601ZM143.724 370.227C141.587 370.227 139.622 369.73 137.831 368.737C136.06 367.744 134.646 366.362 133.588 364.592C132.552 362.8 132.034 360.792 132.034 358.569C132.034 356.345 132.552 354.348 133.588 352.578C134.646 350.807 136.06 349.426 137.831 348.432C139.622 347.439 141.587 346.943 143.724 346.943C145.862 346.943 147.816 347.439 149.586 348.432C151.378 349.426 152.781 350.807 153.796 352.578C154.832 354.348 155.35 356.345 155.35 358.569C155.35 360.792 154.832 362.8 153.796 364.592C152.759 366.362 151.356 367.744 149.586 368.737C147.816 369.73 145.862 370.227 143.724 370.227ZM143.724 365.175C145.538 365.175 146.984 364.57 148.064 363.361C149.165 362.152 149.715 360.555 149.715 358.569C149.715 356.561 149.165 354.963 148.064 353.776C146.984 352.567 145.538 351.962 143.724 351.962C141.889 351.962 140.421 352.556 139.32 353.743C138.241 354.931 137.701 356.539 137.701 358.569C137.701 360.576 138.241 362.185 139.32 363.394C140.421 364.581 141.889 365.175 143.724 365.175ZM172.745 347.267V351.703H163.483V356.496H170.413V360.803H163.483V370H157.945V347.267H172.745ZM197.9 347.267V351.703H191.876V370H186.339V351.703H180.315V347.267H197.9ZM219.883 347.267V370H214.345V360.641H205.731V370H200.193V347.267H205.731V356.172H214.345V347.267H219.883ZM228.932 351.703V356.302H236.348V360.576H228.932V365.563H237.32V370H223.394V347.267H237.32V351.703H228.932ZM278.088 347.267L272.162 370H265.459L261.832 355.039L258.075 370H251.372L245.607 347.267H251.534L254.804 363.815L258.852 347.267H264.941L268.827 363.815L272.13 347.267H278.088ZM291.131 370.227C288.994 370.227 287.029 369.73 285.237 368.737C283.467 367.744 282.053 366.362 280.995 364.592C279.959 362.8 279.441 360.792 279.441 358.569C279.441 356.345 279.959 354.348 280.995 352.578C282.053 350.807 283.467 349.426 285.237 348.432C287.029 347.439 288.994 346.943 291.131 346.943C293.269 346.943 295.222 347.439 296.993 348.432C298.785 349.426 300.188 350.807 301.203 352.578C302.239 354.348 302.757 356.345 302.757 358.569C302.757 360.792 302.239 362.8 301.203 364.592C300.166 366.362 298.763 367.744 296.993 368.737C295.222 369.73 293.269 370.227 291.131 370.227ZM291.131 365.175C292.945 365.175 294.391 364.57 295.471 363.361C296.572 362.152 297.122 360.555 297.122 358.569C297.122 356.561 296.572 354.963 295.471 353.776C294.391 352.567 292.945 351.962 291.131 351.962C289.296 351.962 287.828 352.556 286.727 353.743C285.648 354.931 285.108 356.539 285.108 358.569C285.108 360.576 285.648 362.185 286.727 363.394C287.828 364.581 289.296 365.175 291.131 365.175ZM316.945 370L312.217 361.418H310.89V370H305.352V347.267H314.646C316.438 347.267 317.96 347.58 319.212 348.206C320.486 348.832 321.436 349.695 322.062 350.796C322.688 351.876 323.001 353.085 323.001 354.423C323.001 355.935 322.569 357.284 321.706 358.471C320.864 359.659 319.612 360.501 317.949 360.997L323.195 370H316.945ZM310.89 357.5H314.322C315.337 357.5 316.093 357.252 316.589 356.755C317.107 356.258 317.366 355.557 317.366 354.65C317.366 353.787 317.107 353.106 316.589 352.61C316.093 352.113 315.337 351.865 314.322 351.865H310.89V357.5ZM339.172 370L331.529 359.961V370H325.992V347.267H331.529V357.241L339.107 347.267H345.616L336.808 358.407L345.94 370H339.172ZM356.311 370.227C354.649 370.227 353.159 369.957 351.842 369.417C350.525 368.877 349.468 368.079 348.669 367.021C347.892 365.963 347.481 364.689 347.438 363.199H353.332C353.418 364.041 353.71 364.689 354.206 365.142C354.703 365.574 355.351 365.79 356.149 365.79C356.97 365.79 357.618 365.607 358.092 365.24C358.567 364.851 358.805 364.322 358.805 363.653C358.805 363.091 358.611 362.627 358.222 362.26C357.855 361.893 357.391 361.591 356.83 361.354C356.29 361.116 355.513 360.846 354.498 360.544C353.03 360.091 351.832 359.637 350.903 359.184C349.975 358.73 349.176 358.061 348.507 357.176C347.838 356.291 347.503 355.136 347.503 353.711C347.503 351.595 348.269 349.944 349.802 348.756C351.335 347.547 353.332 346.943 355.793 346.943C358.298 346.943 360.316 347.547 361.849 348.756C363.382 349.944 364.202 351.606 364.31 353.743H358.319C358.276 353.009 358.006 352.437 357.51 352.027C357.013 351.595 356.376 351.379 355.599 351.379C354.93 351.379 354.39 351.563 353.98 351.93C353.57 352.275 353.364 352.783 353.364 353.452C353.364 354.186 353.71 354.758 354.401 355.168C355.092 355.578 356.171 356.021 357.639 356.496C359.107 356.993 360.295 357.467 361.201 357.921C362.13 358.374 362.928 359.033 363.598 359.896C364.267 360.76 364.602 361.872 364.602 363.232C364.602 364.527 364.267 365.704 363.598 366.762C362.95 367.819 362 368.661 360.748 369.288C359.496 369.914 358.017 370.227 356.311 370.227ZM387.213 347.267V370H381.675V360.641H373.061V370H367.524V347.267H373.061V356.172H381.675V347.267H387.213ZM401.476 370.227C399.339 370.227 397.374 369.73 395.582 368.737C393.812 367.744 392.398 366.362 391.34 364.592C390.304 362.8 389.786 360.792 389.786 358.569C389.786 356.345 390.304 354.348 391.34 352.578C392.398 350.807 393.812 349.426 395.582 348.432C397.374 347.439 399.339 346.943 401.476 346.943C403.614 346.943 405.567 347.439 407.338 348.432C409.13 349.426 410.533 350.807 411.548 352.578C412.584 354.348 413.102 356.345 413.102 358.569C413.102 360.792 412.584 362.8 411.548 364.592C410.511 366.362 409.108 367.744 407.338 368.737C405.567 369.73 403.614 370.227 401.476 370.227ZM401.476 365.175C403.29 365.175 404.736 364.57 405.816 363.361C406.917 362.152 407.467 360.555 407.467 358.569C407.467 356.561 406.917 354.963 405.816 353.776C404.736 352.567 403.29 351.962 401.476 351.962C399.641 351.962 398.173 352.556 397.072 353.743C395.993 354.931 395.453 356.539 395.453 358.569C395.453 360.576 395.993 362.185 397.072 363.394C398.173 364.581 399.641 365.175 401.476 365.175ZM433.022 354.585C433.022 355.902 432.72 357.111 432.116 358.212C431.511 359.292 430.583 360.166 429.331 360.835C428.078 361.505 426.524 361.839 424.667 361.839H421.235V370H415.697V347.267H424.667C426.481 347.267 428.014 347.58 429.266 348.206C430.518 348.832 431.457 349.695 432.083 350.796C432.709 351.897 433.022 353.16 433.022 354.585ZM424.246 357.435C425.304 357.435 426.092 357.187 426.61 356.69C427.129 356.194 427.388 355.492 427.388 354.585C427.388 353.679 427.129 352.977 426.61 352.48C426.092 351.984 425.304 351.736 424.246 351.736H421.235V357.435H424.246ZM456.887 354.456C456.477 353.7 455.883 353.128 455.106 352.739C454.35 352.329 453.455 352.124 452.418 352.124C450.626 352.124 449.191 352.718 448.111 353.905C447.032 355.071 446.492 356.636 446.492 358.601C446.492 360.695 447.053 362.336 448.176 363.523C449.32 364.689 450.885 365.272 452.872 365.272C454.232 365.272 455.376 364.927 456.304 364.236C457.254 363.545 457.945 362.552 458.377 361.256H451.35V357.176H463.396V362.325C462.986 363.707 462.284 364.991 461.291 366.179C460.32 367.366 459.079 368.327 457.567 369.061C456.056 369.795 454.35 370.162 452.451 370.162C450.205 370.162 448.198 369.676 446.427 368.705C444.679 367.712 443.308 366.341 442.315 364.592C441.343 362.843 440.857 360.846 440.857 358.601C440.857 356.356 441.343 354.359 442.315 352.61C443.308 350.84 444.679 349.469 446.427 348.497C448.176 347.504 450.173 347.008 452.418 347.008C455.138 347.008 457.427 347.666 459.284 348.983C461.162 350.3 462.403 352.124 463.008 354.456H456.887ZM476.729 370.227C474.592 370.227 472.627 369.73 470.836 368.737C469.065 367.744 467.651 366.362 466.593 364.592C465.557 362.8 465.039 360.792 465.039 358.569C465.039 356.345 465.557 354.348 466.593 352.578C467.651 350.807 469.065 349.426 470.836 348.432C472.627 347.439 474.592 346.943 476.729 346.943C478.867 346.943 480.821 347.439 482.591 348.432C484.383 349.426 485.786 350.807 486.801 352.578C487.837 354.348 488.355 356.345 488.355 358.569C488.355 360.792 487.837 362.8 486.801 364.592C485.764 366.362 484.361 367.744 482.591 368.737C480.821 369.73 478.867 370.227 476.729 370.227ZM476.729 365.175C478.543 365.175 479.989 364.57 481.069 363.361C482.17 362.152 482.72 360.555 482.72 358.569C482.72 356.561 482.17 354.963 481.069 353.776C479.989 352.567 478.543 351.962 476.729 351.962C474.894 351.962 473.426 352.556 472.325 353.743C471.246 354.931 470.706 356.539 470.706 358.569C470.706 360.576 471.246 362.185 472.325 363.394C473.426 364.581 474.894 365.175 476.729 365.175ZM496.488 351.703V356.302H503.904V360.576H496.488V365.563H504.875V370H490.95V347.267H504.875V351.703H496.488ZM516.21 370.227C514.548 370.227 513.058 369.957 511.741 369.417C510.424 368.877 509.366 368.079 508.567 367.021C507.79 365.963 507.38 364.689 507.337 363.199H513.231C513.317 364.041 513.608 364.689 514.105 365.142C514.602 365.574 515.249 365.79 516.048 365.79C516.868 365.79 517.516 365.607 517.991 365.24C518.466 364.851 518.704 364.322 518.704 363.653C518.704 363.091 518.509 362.627 518.121 362.26C517.754 361.893 517.289 361.591 516.728 361.354C516.188 361.116 515.411 360.846 514.396 360.544C512.928 360.091 511.73 359.637 510.802 359.184C509.874 358.73 509.075 358.061 508.405 357.176C507.736 356.291 507.402 355.136 507.402 353.711C507.402 351.595 508.168 349.944 509.701 348.756C511.234 347.547 513.231 346.943 515.692 346.943C518.196 346.943 520.215 347.547 521.748 348.756C523.28 349.944 524.101 351.606 524.209 353.743H518.218C518.175 353.009 517.905 352.437 517.408 352.027C516.912 351.595 516.275 351.379 515.498 351.379C514.828 351.379 514.289 351.563 513.878 351.93C513.468 352.275 513.263 352.783 513.263 353.452C513.263 354.186 513.608 354.758 514.299 355.168C514.99 355.578 516.07 356.021 517.538 356.496C519.006 356.993 520.193 357.467 521.1 357.921C522.028 358.374 522.827 359.033 523.496 359.896C524.166 360.76 524.5 361.872 524.5 363.232C524.5 364.527 524.166 365.704 523.496 366.762C522.849 367.819 521.899 368.661 520.647 369.288C519.394 369.914 517.915 370.227 516.21 370.227ZM49.6971 387.267V410H44.1595V400.641H35.5454V410H30.0078V387.267H35.5454V396.172H44.1595V387.267H49.6971ZM58.7466 391.703V396.302H66.1625V400.576H58.7466V405.563H67.134V410H53.209V387.267H67.134V391.703H58.7466ZM81.8367 410L77.1087 401.418H75.781V410H70.2433V387.267H79.5375C81.3294 387.267 82.8514 387.58 84.1036 388.206C85.3774 388.832 86.3273 389.695 86.9534 390.796C87.5795 391.876 87.8925 393.085 87.8925 394.423C87.8925 395.935 87.4607 397.284 86.5971 398.471C85.7552 399.659 84.503 400.501 82.8406 400.997L88.0868 410H81.8367ZM75.781 397.5H79.2136C80.2283 397.5 80.984 397.252 81.4805 396.755C81.9987 396.258 82.2577 395.557 82.2577 394.65C82.2577 393.787 81.9987 393.106 81.4805 392.61C80.984 392.113 80.2283 391.865 79.2136 391.865H75.781V397.5ZM96.4206 391.703V396.302H103.836V400.576H96.4206V405.563H104.808V410H90.8829V387.267H104.808V391.703H96.4206ZM110.508 410.259C109.536 410.259 108.738 409.978 108.112 409.417C107.507 408.834 107.205 408.122 107.205 407.28C107.205 406.416 107.507 405.693 108.112 405.11C108.738 404.527 109.536 404.236 110.508 404.236C111.458 404.236 112.235 404.527 112.84 405.11C113.466 405.693 113.779 406.416 113.779 407.28C113.779 408.122 113.466 408.834 112.84 409.417C112.235 409.978 111.458 410.259 110.508 410.259ZM139.302 387.267V391.703H133.278V410H127.741V391.703H121.717V387.267H139.302ZM152.347 410.227C150.209 410.227 148.245 409.73 146.453 408.737C144.682 407.744 143.268 406.362 142.21 404.592C141.174 402.8 140.656 400.792 140.656 398.569C140.656 396.345 141.174 394.348 142.21 392.578C143.268 390.807 144.682 389.426 146.453 388.432C148.245 387.439 150.209 386.943 152.347 386.943C154.484 386.943 156.438 387.439 158.208 388.432C160 389.426 161.403 390.807 162.418 392.578C163.454 394.348 163.972 396.345 163.972 398.569C163.972 400.792 163.454 402.8 162.418 404.592C161.382 406.362 159.978 407.744 158.208 408.737C156.438 409.73 154.484 410.227 152.347 410.227ZM152.347 405.175C154.16 405.175 155.607 404.57 156.686 403.361C157.787 402.152 158.338 400.555 158.338 398.569C158.338 396.561 157.787 394.963 156.686 393.776C155.607 392.567 154.16 391.962 152.347 391.962C150.511 391.962 149.043 392.556 147.942 393.743C146.863 394.931 146.323 396.539 146.323 398.569C146.323 400.576 146.863 402.185 147.942 403.394C149.043 404.581 150.511 405.175 152.347 405.175ZM183.893 394.585C183.893 395.902 183.59 397.111 182.986 398.212C182.381 399.292 181.453 400.166 180.201 400.835C178.949 401.505 177.394 401.839 175.538 401.839H172.105V410H166.567V387.267H175.538C177.351 387.267 178.884 387.58 180.136 388.206C181.388 388.832 182.327 389.695 182.953 390.796C183.58 391.897 183.893 393.16 183.893 394.585ZM175.117 397.435C176.174 397.435 176.963 397.187 177.481 396.69C177.999 396.194 178.258 395.492 178.258 394.585C178.258 393.679 177.999 392.977 177.481 392.48C176.963 391.984 176.174 391.736 175.117 391.736H172.105V397.435H175.117ZM191.827 387.267V410H186.29V387.267H191.827ZM194.416 398.601C194.416 396.356 194.901 394.359 195.873 392.61C196.844 390.84 198.194 389.469 199.921 388.497C201.67 387.504 203.645 387.008 205.847 387.008C208.546 387.008 210.856 387.72 212.777 389.145C214.699 390.57 215.983 392.513 216.631 394.974H210.543C210.089 394.024 209.442 393.301 208.6 392.804C207.779 392.308 206.84 392.059 205.782 392.059C204.077 392.059 202.695 392.653 201.637 393.841C200.579 395.028 200.05 396.615 200.05 398.601C200.05 400.587 200.579 402.174 201.637 403.361C202.695 404.549 204.077 405.142 205.782 405.142C206.84 405.142 207.779 404.894 208.6 404.398C209.442 403.901 210.089 403.178 210.543 402.228H216.631C215.983 404.689 214.699 406.632 212.777 408.057C210.856 409.46 208.546 410.162 205.847 410.162C203.645 410.162 201.67 409.676 199.921 408.705C198.194 407.712 196.844 406.341 195.873 404.592C194.901 402.843 194.416 400.846 194.416 398.601ZM236.664 410.227C234.527 410.227 232.563 409.73 230.771 408.737C229 407.744 227.586 406.362 226.528 404.592C225.492 402.8 224.974 400.792 224.974 398.569C224.974 396.345 225.492 394.348 226.528 392.578C227.586 390.807 229 389.426 230.771 388.432C232.563 387.439 234.527 386.943 236.664 386.943C238.802 386.943 240.756 387.439 242.526 388.432C244.318 389.426 245.721 390.807 246.736 392.578C247.772 394.348 248.29 396.345 248.29 398.569C248.29 400.792 247.772 402.8 246.736 404.592C245.7 406.362 244.296 407.744 242.526 408.737C240.756 409.73 238.802 410.227 236.664 410.227ZM236.664 405.175C238.478 405.175 239.924 404.57 241.004 403.361C242.105 402.152 242.655 400.555 242.655 398.569C242.655 396.561 242.105 394.963 241.004 393.776C239.924 392.567 238.478 391.962 236.664 391.962C234.829 391.962 233.361 392.556 232.26 393.743C231.181 394.931 230.641 396.539 230.641 398.569C230.641 400.576 231.181 402.185 232.26 403.394C233.361 404.581 234.829 405.175 236.664 405.175ZM265.685 387.267V391.703H256.423V396.496H263.353V400.803H256.423V410H250.885V387.267H265.685ZM305.769 387.267L299.843 410H293.139L289.512 395.039L285.756 410H279.052L273.288 387.267H279.214L282.485 403.815L286.533 387.267H292.621L296.507 403.815L299.81 387.267H305.769ZM318.812 410.227C316.674 410.227 314.71 409.73 312.918 408.737C311.148 407.744 309.733 406.362 308.676 404.592C307.639 402.8 307.121 400.792 307.121 398.569C307.121 396.345 307.639 394.348 308.676 392.578C309.733 390.807 311.148 389.426 312.918 388.432C314.71 387.439 316.674 386.943 318.812 386.943C320.949 386.943 322.903 387.439 324.673 388.432C326.465 389.426 327.868 390.807 328.883 392.578C329.919 394.348 330.437 396.345 330.437 398.569C330.437 400.792 329.919 402.8 328.883 404.592C327.847 406.362 326.443 407.744 324.673 408.737C322.903 409.73 320.949 410.227 318.812 410.227ZM318.812 405.175C320.625 405.175 322.072 404.57 323.151 403.361C324.252 402.152 324.803 400.555 324.803 398.569C324.803 396.561 324.252 394.963 323.151 393.776C322.072 392.567 320.625 391.962 318.812 391.962C316.977 391.962 315.509 392.556 314.408 393.743C313.328 394.931 312.788 396.539 312.788 398.569C312.788 400.576 313.328 402.185 314.408 403.394C315.509 404.581 316.977 405.175 318.812 405.175ZM344.626 410L339.898 401.418H338.57V410H333.032V387.267H342.327C344.119 387.267 345.641 387.58 346.893 388.206C348.166 388.832 349.116 389.695 349.743 390.796C350.369 391.876 350.682 393.085 350.682 394.423C350.682 395.935 350.25 397.284 349.386 398.471C348.544 399.659 347.292 400.501 345.63 400.997L350.876 410H344.626ZM338.57 397.5H342.003C343.017 397.5 343.773 397.252 344.27 396.755C344.788 396.258 345.047 395.557 345.047 394.65C345.047 393.787 344.788 393.106 344.27 392.61C343.773 392.113 343.017 391.865 342.003 391.865H338.57V397.5ZM366.852 410L359.21 399.961V410H353.672V387.267H359.21V397.241L366.787 387.267H373.297L364.488 398.407L373.62 410H366.852ZM383.992 410.227C382.33 410.227 380.84 409.957 379.523 409.417C378.206 408.877 377.148 408.079 376.349 407.021C375.572 405.963 375.162 404.689 375.119 403.199H381.013C381.099 404.041 381.39 404.689 381.887 405.142C382.383 405.574 383.031 405.79 383.83 405.79C384.65 405.79 385.298 405.607 385.773 405.24C386.248 404.851 386.485 404.322 386.485 403.653C386.485 403.091 386.291 402.627 385.903 402.26C385.536 401.893 385.071 401.591 384.51 401.354C383.97 401.116 383.193 400.846 382.178 400.544C380.71 400.091 379.512 399.637 378.584 399.184C377.655 398.73 376.857 398.061 376.187 397.176C375.518 396.291 375.183 395.136 375.183 393.711C375.183 391.595 375.95 389.944 377.483 388.756C379.016 387.547 381.013 386.943 383.474 386.943C385.978 386.943 387.997 387.547 389.529 388.756C391.062 389.944 391.883 391.606 391.991 393.743H386C385.956 393.009 385.687 392.437 385.19 392.027C384.694 391.595 384.057 391.379 383.279 391.379C382.61 391.379 382.07 391.563 381.66 391.93C381.25 392.275 381.045 392.783 381.045 393.452C381.045 394.186 381.39 394.758 382.081 395.168C382.772 395.578 383.852 396.021 385.32 396.496C386.788 396.993 387.975 397.467 388.882 397.921C389.81 398.374 390.609 399.033 391.278 399.896C391.947 400.76 392.282 401.872 392.282 403.232C392.282 404.527 391.947 405.704 391.278 406.762C390.631 407.819 389.681 408.661 388.428 409.288C387.176 409.914 385.697 410.227 383.992 410.227ZM414.894 387.267V410H409.356V400.641H400.742V410H395.204V387.267H400.742V396.172H409.356V387.267H414.894ZM429.157 410.227C427.02 410.227 425.055 409.73 423.263 408.737C421.493 407.744 420.079 406.362 419.021 404.592C417.984 402.8 417.466 400.792 417.466 398.569C417.466 396.345 417.984 394.348 419.021 392.578C420.079 390.807 421.493 389.426 423.263 388.432C425.055 387.439 427.02 386.943 429.157 386.943C431.294 386.943 433.248 387.439 435.018 388.432C436.81 389.426 438.214 390.807 439.228 392.578C440.264 394.348 440.783 396.345 440.783 398.569C440.783 400.792 440.264 402.8 439.228 404.592C438.192 406.362 436.789 407.744 435.018 408.737C433.248 409.73 431.294 410.227 429.157 410.227ZM429.157 405.175C430.97 405.175 432.417 404.57 433.496 403.361C434.597 402.152 435.148 400.555 435.148 398.569C435.148 396.561 434.597 394.963 433.496 393.776C432.417 392.567 430.97 391.962 429.157 391.962C427.322 391.962 425.854 392.556 424.753 393.743C423.673 394.931 423.133 396.539 423.133 398.569C423.133 400.576 423.673 402.185 424.753 403.394C425.854 404.581 427.322 405.175 429.157 405.175ZM460.703 394.585C460.703 395.902 460.401 397.111 459.796 398.212C459.192 399.292 458.263 400.166 457.011 400.835C455.759 401.505 454.205 401.839 452.348 401.839H448.915V410H443.378V387.267H452.348C454.161 387.267 455.694 387.58 456.946 388.206C458.199 388.832 459.138 389.695 459.764 390.796C460.39 391.897 460.703 393.16 460.703 394.585ZM451.927 397.435C452.985 397.435 453.773 397.187 454.291 396.69C454.809 396.194 455.068 395.492 455.068 394.585C455.068 393.679 454.809 392.977 454.291 392.48C453.773 391.984 452.985 391.736 451.927 391.736H448.915V397.435H451.927Z" fill="black"/>
</svg>
